<svg width="64" height="64" viewBox="0 0 64 64" fill="none" xmlns="http://www.w3.org/2000/svg">
<g opacity="0.235768">
<path d="M32 1.96289C48.577 1.96289 62.0362 15.4221 62.0362 31.9991C62.0362 48.5761 48.577 62.0354 32 62.0354C15.423 62.0354 1.96375 48.5761 1.96375 31.9991C1.96375 15.4221 15.423 1.96289 32 1.96289Z" fill="#F50031"/>
</g>
<path d="M32 0.458984C49.4072 0.458984 63.5406 14.5923 63.5406 31.9996C63.5406 49.4069 49.4072 63.5402 32 63.5402C14.5927 63.5402 0.459351 49.4069 0.459351 31.9996C0.459351 14.5923 14.5927 0.458984 32 0.458984Z" fill="#F50031"/>
<path d="M20.6118 20.6172L43.3503 43.2763" stroke="white" stroke-width="5" stroke-linecap="round" stroke-linejoin="round"/>
<path d="M20.6174 43.3877L43.2765 20.6493" stroke="white" stroke-width="5" stroke-linecap="round" stroke-linejoin="round"/>
</svg>
