<svg width="897" height="656" viewBox="0 0 897 656" fill="none" xmlns="http://www.w3.org/2000/svg">
<path opacity="0.4" d="M121.075 -186.61L-122.567 9.03617C-122.567 9.03617 -151.177 228.517 38.1248 292.654C227.426 356.791 214.939 159.401 425.253 289.634C635.566 419.868 916.036 262.326 749.352 -12.1119C582.667 -286.55 437.9 16.3419 336.963 -48.455C236.026 -113.252 121.075 -186.61 121.075 -186.61Z" fill="url(#paint0_linear_2694_4059)"/>
<path opacity="0.4" d="M233.88 -81.7455L585.872 -85.6205C585.872 -85.6205 784.844 19.6876 684.749 139.049C584.654 258.41 436.309 146.562 372.417 310.911C308.526 475.259 -42.382 516.151 -129.098 293.736C-215.814 71.3206 143.057 169.478 171.882 89.3677C200.708 9.25696 233.88 -81.7455 233.88 -81.7455Z" fill="#E6FFBE"/>
<defs>
<linearGradient id="paint0_linear_2694_4059" x1="-314.312" y1="-638.263" x2="607.548" y2="398.938" gradientUnits="userSpaceOnUse">
<stop stop-color="#1561AC"/>
<stop offset="0.83" stop-color="#8BD3C4"/>
</linearGradient>
</defs>
</svg>
