<svg width="1621" height="1581" viewBox="0 0 1621 1581" fill="none" xmlns="http://www.w3.org/2000/svg">
<path fill-rule="evenodd" clip-rule="evenodd" d="M1026.59 1004.26C1026.68 1024.65 1063.52 1047.58 1079.26 1059.41C1110.37 1082.79 1142.74 1104.39 1174.8 1126.33C1206.86 1148.27 1239.01 1170.15 1269.58 1194.23C1289.43 1209.87 1312.75 1227.48 1326.22 1249.8C1354.9 1297.38 1264.47 1290.32 1241.05 1291.36C1181.46 1294.02 1113.12 1292.8 1057.26 1317.58C1023.92 1332.37 1010.62 1357.18 1017.79 1393.33C1020.09 1405.09 1026.93 1418.62 1021.14 1430.07C1014.96 1442.31 1000.74 1449.37 988.939 1454.1C945.896 1471.35 896.408 1473.35 850.866 1475.51C801.759 1477.89 752.19 1477.19 703.428 1477.38C682.752 1477.46 661.159 1485.11 641.47 1491.33C615.658 1499.48 590.152 1508.64 564.554 1517.5C508.239 1536.93 450.21 1557.4 390.629 1562.34C353.316 1565.43 312.535 1561.25 283.55 1534.35C268.997 1520.85 261.379 1500.77 252.966 1482.93C242.781 1461.39 233 1439.63 222.157 1418.42C187.227 1350.12 137.358 1283.37 56.4144 1280.02C44.1692 1279.51 32.1433 1281.16 19.9559 1281.47C12.1945 1281.66 5.2871 1279.73 2.40181 1271.36C-4.8518 1250.37 17.9477 1217.24 27.2961 1200.59C47.7643 1164.13 70.8466 1129.32 92.4689 1093.6C106.774 1069.98 131.536 1037.69 131.795 1008.99C132.026 983.42 99.0185 964.935 81.0489 952.339C64.2104 940.546 33.7014 924.042 31.8548 900.05C30.9603 888.418 38.4044 878.777 46.1773 871.295C59.8017 858.211 75.4976 848.981 87.7543 834.053C107.853 809.562 124.646 775.865 121.916 742.863C120.023 719.996 107.363 705.021 91.257 690.706C84.4881 684.687 78.9946 680.429 78.6368 670.657C78.0597 655.141 83.9573 638.72 88.8161 624.334C106.197 572.848 130.884 523.063 158.346 476.579C172.068 453.349 186.893 430.19 205.087 410.374C217.004 397.361 233.075 381.875 251.252 381.892C272.297 381.892 294.566 389.719 315.022 395.571C353.229 406.508 390.975 419.152 428.57 432.123C515.513 462.133 601.639 494.574 686.947 529.445C747.036 554.049 808.401 578.688 864.895 611.398C875.912 617.822 886.311 625.312 895.952 633.766C906.252 642.646 919.034 646.618 931.995 649.58C1012.44 667.963 1100.56 653.85 1181.34 645.001C1201.84 642.758 1222.35 640.504 1242.91 638.934C1260.58 637.584 1281.74 633.713 1298.92 639.529C1332.77 650.978 1303.18 693.174 1290.67 710.367C1246.62 770.905 1189.8 822.123 1137.12 874.412C1112.08 899.313 1086.84 924.149 1063.16 950.46C1050.83 964.138 1026.51 986.381 1026.59 1004.26Z" stroke="white" stroke-opacity="0.1"/>
<path fill-rule="evenodd" clip-rule="evenodd" d="M1011.41 1007.7C1024.91 1029.28 1048.6 1045.23 1068.26 1060.24C1096.56 1081.84 1125.74 1102.25 1154.49 1123.25C1181.67 1143.1 1208.91 1163.19 1234.08 1185.73C1249.43 1199.48 1268.68 1215.93 1275.95 1236.26C1291.73 1280.34 1206.89 1273.66 1185.94 1274.81C1133.87 1277.66 1074.84 1278.32 1026.67 1301.52C996.589 1316.02 984.232 1340.05 990.647 1373.42C992.864 1384.96 996.86 1394.82 991.802 1406.3C985.952 1419.6 972.498 1427.88 960.163 1433.73C921.526 1452.06 875.855 1455.95 833.973 1459.19C790.704 1462.54 745.622 1464.9 703.745 1462.45C686.999 1461.48 667.724 1467.01 651.151 1471.26C625.651 1477.8 600.41 1485.34 575.037 1492.35C523.47 1506.62 470.564 1520.37 416.919 1521.93C378.189 1523.06 337.808 1516.94 305.586 1493.27C272.931 1469.27 258.443 1432.07 240.334 1396.7C209.059 1335.56 166.818 1261.23 94.4635 1248.31C83.4919 1246.35 72.9476 1247.41 61.9876 1246.93C56.3517 1246.68 49.9362 1245.91 47.0778 1240.19C39.6575 1225.33 59.9896 1198.15 66.8324 1186.77C85.7382 1155.31 106.994 1125.39 126.807 1094.54C142.542 1070.04 162.487 1042.82 168.574 1013.78C175.959 978.538 127.702 953.464 110.73 928.651C81.3091 885.623 137.051 861.107 164.532 840.592C196.089 817.04 222.138 774.072 193.849 737.631C183.027 723.697 169.711 715.392 164.878 697.207C157.319 668.768 163.036 636.268 169.169 608.156C178.408 565.895 193.029 524.092 212.905 485.898C227.145 458.552 250.768 415.674 285.364 418.89C308.652 421.036 332.328 428.877 355.004 435.808C388.959 446.182 422.485 458.006 455.833 470.287C532.814 498.56 608.945 529.734 683.581 564.023C734.506 587.427 876.56 683.071 887.248 686.483C919.118 696.648 955.353 694.859 988.21 693.284C1031.92 691.191 1075.41 685.769 1118.86 680.746C1139.54 678.368 1160.33 675.461 1181.13 674.29C1195.93 673.458 1215.36 672.745 1228.33 681.608C1253.63 698.901 1225.44 738.469 1213.78 755.209C1178.07 806.529 1132.89 850.972 1090.52 896.413C1069.73 918.723 1048.63 940.998 1029.76 965.097C1022.15 974.829 1003.07 994.369 1011.41 1007.7Z" stroke="white" stroke-opacity="0.1"/>
<path fill-rule="evenodd" clip-rule="evenodd" d="M992.735 1018.76C1029.61 1061.95 1080.49 1094.06 1124.42 1130.13C1146.46 1148.23 1168.64 1166.83 1187.65 1188.4C1197.54 1199.62 1209.89 1213.8 1211.8 1229.43C1216.89 1271.25 1140.43 1265.6 1117.54 1267.18C1073.29 1270.26 1023.3 1272.6 983.156 1293.94C958.63 1306.99 946.551 1328.4 951.136 1356.55C953.168 1369.03 956.332 1379.64 951.136 1391.9C945.87 1404.32 934.9 1413.09 923.791 1419.66C891.869 1438.56 852.198 1444.6 816.257 1449.1C774.094 1454.34 731.614 1456.39 689.161 1455.22C651.978 1454.22 614.975 1465.52 578.67 1472.97C530.575 1482.84 481.608 1491.46 432.394 1490.15C393.525 1489.12 354.351 1480.99 321.123 1459.39C287.359 1437.39 267.059 1404.45 248.756 1368.92C221.089 1315.2 186.608 1243.21 125.909 1222.81C117.081 1219.84 108.854 1219.51 99.7489 1218.99C95.3262 1218.74 89.6161 1218.67 87.4221 1213.92C82.1449 1202.48 101.654 1180.3 107.099 1172.57C124.478 1147.89 143.317 1124.32 161.129 1099.97C177.757 1077.24 195.869 1053.55 206.198 1026.91C222.636 984.483 170.084 959.675 171.556 919.246C172.474 894.146 195.806 876.147 214.281 863.695C237.03 848.383 269.784 838.316 281.169 810.375C289.651 789.562 276.343 777.45 266.094 761.656C248.727 734.898 247.543 698.625 249.351 667.651C251.787 625.794 261.308 583.32 277.515 544.847C284.859 527.406 293.854 509.264 307.099 495.718C319.507 483.023 331.25 479.77 347.832 482.369C398.594 490.337 449.847 512.547 498.525 532.383C559.686 557.311 620.003 584.83 678.52 615.793C718.422 636.908 759.224 659.248 794.247 688.421C803.375 696.027 812.723 704.292 819.397 714.323C824.444 721.863 826.586 728.089 835.09 732.394C860.298 745.149 895.362 741.813 922.371 740.487C965.558 738.376 1008.54 732.757 1051.46 727.697C1076.51 724.723 1123.69 715.37 1143.69 737.805C1160.95 757.179 1140.12 790.21 1129.48 807.276C1102.56 850.435 1067.94 888.313 1035.81 927.315C1021.09 945.19 1005.79 963.201 993.63 983.074C990.524 988.14 985.547 994.853 984.692 1001.01C983.734 1008.06 988.208 1013.44 992.735 1018.76Z" stroke="white" stroke-opacity="0.1"/>
<path fill-rule="evenodd" clip-rule="evenodd" d="M989.565 1008.71C1023.64 1046.89 1064.68 1078.26 1101.26 1113.99C1117.66 1130.01 1134.22 1146.81 1146.71 1166.36C1153.44 1176.87 1160.57 1190.09 1158.72 1203.16C1153.4 1240.65 1090.51 1237.26 1065.1 1239.46C1027.35 1242.68 983.976 1245.93 950.593 1266.15C928.725 1279.39 920.525 1298.94 924.608 1324.16C928.991 1351.22 919.191 1370.85 896.89 1385.95C868.929 1404.85 833.635 1412.56 801.171 1418.03C762.058 1424.6 722.449 1427.51 682.828 1426.73C644.294 1425.97 606.962 1432.62 568.682 1436.94C517.93 1442.68 465.549 1445.5 415.368 1433.75C371.678 1423.53 332.215 1400.98 302.632 1366.12C271.732 1329.74 256.435 1283.9 231.345 1243.65C215.696 1218.54 193.874 1185.33 164.632 1175.57C154.879 1172.31 137.104 1176.71 144.894 1160.69C149.346 1151.53 157.679 1143.5 164.262 1136.01C174.899 1123.91 185.888 1112.15 196.704 1100.22C219.755 1074.78 244.442 1048.81 261.719 1018.69C283.489 980.772 251.129 951.588 255.073 913.14C257.192 892.448 271.155 875.934 285.926 862.961C295.483 854.559 305.941 847.281 316.618 840.491C327.768 833.397 340.963 827.994 350.687 818.824C364.546 805.773 358.529 790.325 355.931 773.454C351.357 743.805 350.352 713.688 352.939 683.785C356.104 647.134 363.524 609.435 379.156 576.128C385.236 563.161 392.94 549.414 404.379 540.72C415.818 532.025 427.65 532.62 440.759 535.239C479.639 542.975 518.438 560.977 555.32 578.038C601.482 599.396 646.737 623.265 689.953 650.419C719.785 669.164 749.714 689.415 774.672 714.831C781.93 722.228 788.837 730.149 794.421 738.992C798.255 745.056 800.311 752.881 805.866 757.44C823.247 771.668 858.143 767.42 878.527 766.592C919.208 764.944 959.249 757.107 999.879 755.202C1022.05 754.161 1056.78 751.542 1073.07 770.996C1088.38 789.283 1074.51 818.086 1065.36 835.706C1047.37 870.352 1023.2 901.22 1001.54 933.426C992.637 946.679 982.878 960.544 977.11 975.678C971.982 989.162 980.834 998.922 989.565 1008.71Z" stroke="white" stroke-opacity="0.1"/>
<path fill-rule="evenodd" clip-rule="evenodd" d="M981.186 1008.09C1008.3 1041.68 1041 1071.51 1068.31 1105.65C1084.3 1125.65 1111.83 1159.27 1099.47 1187.46C1085.9 1218.43 1038.62 1219.28 1011.29 1221.77C978.757 1224.75 940.555 1228.8 912.715 1248.15C903.91 1254.26 896.409 1262.36 893.23 1273.02C889.826 1284.43 893.547 1294.41 894.032 1305.83C895.048 1329.79 881.165 1349.02 862.794 1362.23C836.829 1380.91 804.362 1389.74 773.695 1395.9C738.951 1402.84 703.631 1406.27 668.239 1406.12C634.416 1406 600.951 1406.77 567.093 1407.66C522.815 1408.85 477.914 1406.93 434.962 1394.82C392.652 1382.87 354.184 1360.49 323.967 1327.56C294.489 1295.43 274.6 1256.16 257.181 1216.15C247.297 1193.45 230.599 1159.52 207.023 1148.05C196.539 1142.94 186.251 1143.29 197.399 1130.02C211.437 1113.3 230.356 1099.89 246.616 1085.59C270.071 1064.96 294.114 1043.93 313.801 1019.39C326.373 1003.73 331.976 988.53 331.11 968.249C330.441 952.799 327.406 937.509 328.941 921.999C332.535 885.596 360.364 860.632 384.966 837.386C400.793 822.435 415.247 811.031 423.394 789.763C433.029 764.627 437.074 737.28 443.513 711.181C450.587 682.521 458.757 652.708 474.198 627.465C487.942 604.991 504.657 594.913 529.675 600.968C568.697 610.405 607.159 633.651 641.801 655.157C677.061 677.036 711.715 701.638 740.934 731.712C756.709 747.953 767.475 767.022 781.485 784.469C799.106 806.372 838.97 798.077 862.661 796.223C901.989 793.145 1025.74 770.112 1014.32 844.713C1009.55 875.851 990.782 904.588 977.055 932.066C971.366 943.469 963.132 957.154 961.846 970.222C960.443 984.454 973.033 997.973 981.186 1008.09Z" stroke="white" stroke-opacity="0.1"/>
<path fill-rule="evenodd" clip-rule="evenodd" d="M966.868 1005.23C987.592 1035.68 1012.39 1064.44 1030.17 1097.33C1041.71 1118.63 1053.04 1147.08 1038.16 1169.61C1021.36 1195.04 984.327 1200.97 957.115 1204.21C929.079 1207.55 895.608 1210.35 872.693 1229.63C865.403 1235.78 859.393 1244.06 858.274 1253.97C857.196 1263.49 860.241 1273 859.232 1282.69C856.971 1304.43 844.172 1322.35 827.671 1335.35C778.859 1373.8 706.208 1382.35 647.314 1383.35C617.836 1383.85 587.498 1381.23 557.828 1379.35C519.329 1376.92 480.772 1371.68 444.055 1359.07C365.989 1332.27 313.664 1272.83 277.12 1198.86C265.619 1175.58 256.817 1150.39 238.793 1131.68C229.502 1122.01 231.532 1115.08 241.031 1106.27C255.883 1092.5 273.999 1081.97 290.484 1070.48C313.929 1054.14 337.877 1037.55 358.612 1017.97C372.904 1004.47 383.05 991.47 386.13 971.231C388.327 956.802 387.814 942.099 389.134 927.58C391.649 899.999 400.26 872.626 415.504 849.747C427.617 831.614 442.036 815.133 456.94 799.419C476.313 778.961 492.699 758.175 507.413 733.894C526.919 701.753 554.327 642.464 600.273 658.154C650.948 675.468 698.445 719.458 730.958 762.081C741.876 776.392 750.839 793.943 765.564 804.496C787.608 820.27 809.975 819.717 836.195 819.651C875.45 819.562 960.87 810.781 961.793 871.377C962.156 895.385 952.074 918.085 947.247 941.177C941.802 967.04 952.715 984.484 966.868 1005.23Z" stroke="white" stroke-opacity="0.1"/>
<path fill-rule="evenodd" clip-rule="evenodd" d="M951.432 1002.52C971.93 1042.2 1017.9 1107.41 982.935 1151.53C964.468 1174.85 931.805 1183.62 904.405 1188.84C882.354 1193.06 855.762 1194.65 839.101 1212.56C826.855 1225.72 832.292 1244.88 827.6 1261.36C821.777 1281.8 808.412 1298.52 791.988 1311.08C746.092 1346.2 682.277 1356.98 627.067 1359.27C569.727 1361.65 506.547 1350.53 452.59 1329.15C385.312 1302.48 334.909 1251.98 299.661 1188.02C293.157 1176.22 287.248 1164.11 281.004 1152.16C276.808 1144.14 270.587 1136.39 267.28 1127.96C261.775 1113.9 268.261 1102.41 278.661 1093.25C293.619 1080.06 311.993 1070.67 329.046 1060.77C352.366 1047.23 376.206 1033.92 397.899 1018.03C412.476 1007.34 427.734 995.817 432.951 977.262C436.512 964.607 437.251 951.204 437.124 938.097C436.847 909.995 438.278 887.269 451.008 861.532C471.957 819.277 504.17 781.282 538.201 749.668C564.909 724.857 607.169 686.316 646.082 702.904C680.996 717.757 701.419 753.31 724.422 782.054C735.606 796.028 748.169 808.79 762.931 818.73C781.542 831.26 799.063 836.518 821.113 838.568C858.226 842.02 914.186 842.917 925.659 888.784C929.895 905.711 927.477 923.244 929.698 940.391C932.601 963.063 941.09 982.503 951.432 1002.52Z" stroke="white" stroke-opacity="0.1"/>
<path fill-rule="evenodd" clip-rule="evenodd" d="M930.119 1001.05C944.715 1044.47 963.891 1099.19 928.636 1137.78C911.56 1156.47 887.54 1166.93 864.293 1174.74C847.643 1180.33 821.206 1181.98 810.998 1199.19C803.501 1211.85 802.463 1229.32 795.681 1242.89C786.361 1261.54 772.243 1276.9 755.68 1288.93C712.53 1320.27 656.33 1332.38 605.077 1335.85C493.714 1343.37 380.401 1283.45 320.809 1184.85C303.041 1155.46 280.105 1124.18 308.819 1094.16C340.169 1061.4 387.396 1046.06 424.814 1022.78C439.11 1013.9 457.329 1003.21 465.305 987.126C470.103 977.454 470.432 965.321 470.651 954.674C471.228 927.557 473.413 903.171 483.996 877.868C500.34 838.766 526.402 802.692 555.935 773.143C581.691 747.376 618.422 717.096 655.828 735.671C684.508 749.946 702.697 780.245 724.982 802.579C749.78 827.453 780.45 844.215 814.13 852.405C846.893 860.351 882.828 865.71 900.095 899.471C906.018 911.052 912.206 926.046 914.426 938.864C918.011 959.998 923.259 980.795 930.119 1001.05Z" stroke="white" stroke-opacity="0.1"/>
<path fill-rule="evenodd" clip-rule="evenodd" d="M906.351 1000.74C913.104 1044.59 913.855 1090.31 882.48 1124.86C867.837 1140.98 849.328 1152.44 830.61 1162.81C816.839 1170.45 802.618 1176.89 792.333 1189.41C782.804 1201 775.561 1214.46 766.361 1226.35C754.225 1242.11 739.704 1255.75 723.356 1266.76C682.378 1294.28 632.528 1307.16 584.837 1311.62C561.751 1313.79 536.707 1314.92 513.777 1309.01C491.631 1303.3 469.733 1294.27 449.371 1283.75C406.084 1261.39 368.568 1228.66 341.372 1187.27C322.724 1158.88 312.641 1131.27 336.79 1102.47C364.015 1070.01 406.701 1052.1 441.885 1031.03C466.017 1016.58 493.062 1002.41 497.57 971.706C501.16 947.271 504.075 924.079 513.361 900.982C527.182 866.914 547.504 836.053 573.121 810.23C596.548 786.705 626.185 766.742 659.695 779.307C686.245 789.28 706.844 811.622 730.04 827.594C755.891 845.434 784.293 855.27 814.202 863.179C841.08 870.315 866.389 881.281 883.761 904.562C887.317 909.32 891.051 914.499 893.792 919.821C897.29 926.613 897.019 933.344 897.706 940.956C899.495 961.044 903.298 980.9 906.351 1000.74Z" stroke="white" stroke-opacity="0.1"/>
<path fill-rule="evenodd" clip-rule="evenodd" d="M880.148 1004.33C879.571 1045.97 869.85 1085.33 843.226 1117.79C831.844 1131.67 818.253 1143.11 805.728 1155.83C795.644 1166.09 786.114 1175.62 774.518 1184.07C747.012 1204.08 724.657 1229.98 695.426 1247.8C656.405 1271.63 611.707 1284.8 567.356 1290.06C545.699 1292.63 523.327 1293.53 501.417 1290.63C482.598 1288.13 464.576 1279.37 447.858 1270.4C415.09 1252.85 383.274 1227.89 361.999 1196.32C315.091 1126.7 407.573 1076.09 455.04 1046.46C476.87 1032.82 510.226 1017.03 519.168 990.027C525.56 970.734 529.454 951.114 537.686 932.418C559.798 882.207 604.686 823.15 664.505 831.013C690.101 834.372 713.431 848.018 737.326 857.178C761.93 866.613 787.325 871.872 812.899 877.644C836.8 883.034 855.849 890.706 871.287 911.273C878.665 921.095 878.013 932.853 878.671 944.902C879.744 964.695 880.407 984.6 880.148 1004.33Z" stroke="white" stroke-opacity="0.1"/>
<path fill-rule="evenodd" clip-rule="evenodd" d="M856.285 1009.66C846.675 1072.52 810.984 1141.15 758.503 1177.66C696.77 1220.6 629.892 1256.76 556.135 1267.16C521.939 1271.98 484.48 1274.35 452.213 1258.59C427.656 1246.6 399.132 1228.68 385.617 1203.48C352.554 1141.83 426.097 1092.76 467.997 1064.24C490.556 1048.89 519.271 1033.93 536.273 1011.51C546.138 998.511 551.174 981.316 559.138 967.039C583.273 923.775 623.002 888.879 672.491 882.638C695.373 879.755 718.422 883.322 741.131 886.157C764.376 889.057 787.911 890.632 811.012 894.68C829.453 897.914 851.186 903.388 857.978 923.721C866.542 949.345 860.207 983.991 856.285 1009.66Z" stroke="white" stroke-opacity="0.1"/>
<path fill-rule="evenodd" clip-rule="evenodd" d="M832.887 1019.76C818.872 1078.86 789.192 1136.51 739.299 1171.79C712.84 1190.5 682.126 1203.41 652.637 1216.17C619.211 1230.63 584.287 1241.86 548.618 1247.43C504.206 1254.36 432.277 1260.62 409.073 1208.48C386.043 1156.72 444.24 1110.92 478.655 1084.81C500.719 1068.09 524.333 1052.75 545.415 1034.47C556.846 1024.55 565.652 1013.1 575.325 1001.48C602.061 969.274 640.177 943.778 679.027 930.167C716.679 916.973 763.26 911.131 803.006 915.492C820.155 917.366 832.413 923.689 837.6 941.666C844.787 966.656 838.681 995.347 832.887 1019.76Z" stroke="white" stroke-opacity="0.1"/>
<path fill-rule="evenodd" clip-rule="evenodd" d="M809.637 1035.68C795.713 1087.71 765.681 1135.24 721.876 1166.47C672.771 1201.48 609.542 1220.93 551.427 1230.83C520.535 1236.08 453.593 1250.33 437.848 1209.55C422.102 1168.78 467.62 1128.6 493.818 1106.48C525.615 1079.67 559.896 1053.79 594.137 1029.74C623.886 1008.83 655.631 987.451 687.854 971.303C706.027 962.142 724.959 954.662 744.424 948.952C758.838 944.758 777.166 938.502 792.277 941.624C830.392 949.509 816.296 1010.8 809.637 1035.68Z" stroke="white" stroke-opacity="0.1"/>
<path fill-rule="evenodd" clip-rule="evenodd" d="M780.936 1051.26C750.387 1149.66 653.596 1198.06 560.402 1214.93C538.746 1218.85 478.038 1232.96 465.934 1202.9C454.204 1173.76 491.509 1139.19 508.974 1122.82C563.093 1072.07 629.957 1034.45 693.316 997.176C713.093 985.541 748.761 960.294 773.293 971.94C799.929 984.608 787.265 1030.85 780.936 1051.26Z" stroke="white" stroke-opacity="0.1"/>
<path fill-rule="evenodd" clip-rule="evenodd" d="M749.644 1070.2C723.077 1142.67 645.802 1184.23 574.757 1197.93C557.355 1201.29 513.161 1211.72 499.981 1191.5C487.784 1172.79 516.891 1145.69 527.78 1134.92C552.023 1110.93 580.754 1091.17 609.137 1072.18C635.381 1054.61 661.909 1036.6 689.523 1021.74C704.068 1013.91 731.347 997.221 747.875 1009.3C765.669 1022.29 755.543 1054.11 749.644 1070.2Z" stroke="white" stroke-opacity="0.1"/>
<path fill-rule="evenodd" clip-rule="evenodd" d="M715.161 1091.37C694.912 1138.7 640.679 1169.43 592.838 1179.64C579.966 1182.38 552.143 1189.49 541.284 1176.86C531.286 1165.22 547.399 1148.15 554.55 1140.27C586.243 1105.34 632.654 1074.14 675.178 1054.98C685.869 1050.16 705.089 1040.71 716.087 1050.43C727.369 1060.42 719.813 1080.51 715.161 1091.37Z" stroke="white" stroke-opacity="0.1"/>
<path fill-rule="evenodd" clip-rule="evenodd" d="M678.58 1111.25C667.17 1134.75 637.347 1152.48 612.644 1158.12C595.259 1162.09 574.361 1158.66 589.512 1138.21C604.564 1117.91 632.492 1099.37 656.164 1091.15C674.223 1084.88 688.378 1091.07 678.58 1111.25Z" stroke="white" stroke-opacity="0.1"/>
<path fill-rule="evenodd" clip-rule="evenodd" d="M1603.87 948.491C1604.61 994.918 1628.55 1043.17 1616.72 1090.47C1607.02 1129.33 1558.13 1132.57 1528.81 1150.17C1505.51 1164.16 1492.28 1188.93 1479.68 1212.7C1468.36 1234.04 1458.18 1256.02 1446.26 1277.01C1438.54 1290.57 1425.28 1317.22 1408.53 1317.7C1392.5 1318.16 1377.8 1297.4 1368.49 1285.13C1356.35 1269.13 1345.58 1252.07 1333.79 1235.82C1313.92 1208.4 1290.08 1188.11 1262.79 1168.9C1231.73 1147.05 1200.15 1125.94 1168.06 1105.58C1144.44 1090.55 1120.65 1075.62 1097.94 1059.1C1083.69 1048.73 1052.25 1029.28 1052.11 1010.17C1052.04 1001.05 1060.43 990.955 1066.08 983.666C1075.64 971.327 1086.55 960.046 1097.48 949.008C1117.85 928.447 1139.09 908.819 1160.09 888.954C1187.35 863.171 1213.39 837.81 1237.36 808.54C1262.14 778.243 1285.81 746.947 1309.96 716.079C1326.32 695.168 1342.67 671.684 1366.26 658.853C1395.82 642.813 1420.08 659.726 1449.97 659.922C1475.68 660.094 1473.78 721.497 1477.05 738.571C1480.33 755.852 1487.56 771.94 1490.36 789.263C1493.85 810.887 1493.89 833.01 1494.75 854.866C1495.8 881.599 1496.21 907.049 1523.93 917.243C1539.71 923.035 1556.78 924.253 1573.11 927.722C1583.69 929.974 1603.64 933.824 1603.87 948.491Z" stroke="white" stroke-opacity="0.1"/>
<path fill-rule="evenodd" clip-rule="evenodd" d="M1591.24 956.75C1593.93 995.667 1609.85 1045.48 1594.8 1085.65C1581.93 1119.98 1541.7 1124.43 1514.61 1142.46C1492.25 1157.34 1482.29 1181.68 1471.12 1205.59C1462.15 1224.77 1453.45 1244.14 1443.27 1262.71C1435.77 1276.39 1424.31 1299.49 1408.71 1302.33C1394.69 1304.87 1379.65 1284.48 1371.78 1274.1C1360.29 1258.95 1350.47 1242.5 1340.32 1226.4C1322.5 1198.1 1304.24 1172.66 1278.15 1151.88C1251.95 1131.01 1223.28 1115.4 1194.3 1099.16C1171.63 1086.45 1149.08 1073.38 1127.54 1058.7C1111.49 1047.78 1088.43 1033.8 1081.09 1014.32C1075.28 998.909 1104.75 973.338 1113.44 964.312C1131.33 945.755 1150.29 928.334 1169.28 911.021C1192.43 889.923 1216.33 871.473 1236.77 847.407C1273.35 804.379 1303.91 750.796 1350.97 718.816C1379.35 699.527 1410.94 694.595 1442.51 697.481C1455.01 698.623 1458.01 716.811 1459.58 727.419C1462.2 745.042 1462.53 762.969 1464.55 780.663C1466.44 797.227 1470.62 812.964 1474 829.207C1477.42 845.663 1478.38 862.525 1480.89 879.095C1482.45 889.382 1483.99 901.352 1490.81 909.623C1497.86 918.184 1509.49 921.772 1519.66 924.497C1538.76 929.566 1589.33 929.286 1591.24 956.75Z" stroke="white" stroke-opacity="0.1"/>
<path fill-rule="evenodd" clip-rule="evenodd" d="M1574.97 973.041C1579.5 1008.76 1585.84 1053.26 1567.38 1086.17C1552.29 1113.08 1520.1 1118.89 1497.1 1136.42C1477.98 1151 1470.76 1174.19 1461.26 1195.74C1453.48 1213.42 1445.65 1231.18 1436.21 1248C1429.05 1260.75 1419.82 1278.05 1405.6 1282.5C1393.45 1286.3 1379.72 1269.27 1372.98 1260.79C1361.51 1246.34 1352.15 1230.15 1342.86 1214.17C1327.67 1188.03 1313.68 1160.1 1292.05 1138.83C1271.03 1118.2 1246.07 1106.02 1220.63 1092.32C1201.15 1081.83 1181.79 1070.93 1163.44 1058.41C1149.34 1048.81 1131.88 1037.43 1124.53 1021.46C1118.18 1007.68 1134.49 991.366 1142.63 981.645C1156.09 965.602 1171.02 950.884 1185.74 936.106C1201.63 920.164 1219.23 905.458 1234.61 889.124C1266.94 854.75 1292.77 816.692 1332.63 790.357C1358.44 773.298 1393.17 757.801 1423.68 760.588C1445.62 762.597 1444.17 812.639 1446.28 828.629C1449.75 854.773 1456.44 882.243 1467.07 906.325C1476.2 926.962 1497.89 933.326 1517.84 937.954C1530.34 940.86 1543.45 942.428 1555.54 946.921C1569.53 952.126 1573.07 958.068 1574.97 973.041Z" stroke="white" stroke-opacity="0.1"/>
<path fill-rule="evenodd" clip-rule="evenodd" d="M1559.79 989.786C1562.49 1019.99 1561.88 1055.7 1544.4 1081.83C1529.08 1104.71 1501.81 1110.74 1482.41 1128.76C1467.27 1142.83 1461.32 1165.76 1453.18 1184.36C1443.23 1207.1 1429.28 1249.1 1404.18 1257.66C1380.83 1265.61 1356.4 1214.79 1347.95 1199.64C1334.57 1175.65 1323.37 1149.35 1307.14 1127.2C1293.16 1108.13 1274.43 1097.58 1254.55 1086.26C1229.2 1071.79 1190.72 1054.63 1177.17 1026.43C1167.07 1005.42 1199.92 974.178 1211.13 959.62C1222.87 944.412 1231.7 926.385 1243.81 911.713C1262.91 888.561 1293.87 869.92 1319.43 855.695C1344.28 841.858 1376.55 826.542 1404.74 827.454C1423.27 828.05 1426.79 857.537 1430.74 871.94C1436.41 892.416 1443.94 910.765 1460.11 924.692C1476.58 938.869 1495.98 945.55 1516.38 951.396C1526.85 954.375 1538.8 956.7 1548.16 962.718C1558.51 969.268 1558.75 978.177 1559.79 989.786Z" stroke="white" stroke-opacity="0.1"/>
<path fill-rule="evenodd" clip-rule="evenodd" d="M1541.3 1007.19C1541.15 1033.29 1535.36 1061.11 1518.2 1081.24C1503.9 1098 1481.52 1103.6 1467.84 1120.74C1457 1134.31 1451.48 1153.36 1444.22 1169.11C1435.34 1188.42 1422.79 1222.15 1400.72 1228.85C1379.18 1235.38 1360.12 1198.22 1351.86 1183.52C1339.76 1161.97 1329.97 1139.12 1317.77 1117.62C1308.2 1100.76 1296.51 1089.89 1280.94 1079.02C1262.66 1066.25 1237.16 1052.11 1227.4 1030.99C1220.36 1015.69 1237.4 991.254 1243.59 977.781C1247.73 968.732 1251.53 959.54 1253.62 949.732C1255.24 942.094 1255.4 935.025 1260.11 928.467C1271.96 911.97 1297.93 909.817 1315.56 904.379C1338.97 897.162 1363.81 888.961 1388.31 887.395C1403.36 886.417 1411.05 900.714 1419.64 910.772C1429.8 922.661 1444.17 931.212 1456.73 940.185C1473.3 952.045 1491.34 959.422 1509.99 966.976C1518.41 970.386 1528.29 973.731 1534.81 980.509C1541.62 987.536 1541.35 997.777 1541.3 1007.19Z" stroke="white" stroke-opacity="0.1"/>
<path fill-rule="evenodd" clip-rule="evenodd" d="M1521.88 1022.68C1518.91 1044.6 1509.63 1065.54 1493.97 1081.03C1481.97 1092.93 1466.03 1099.62 1456.39 1113.91C1447.41 1127.23 1441.16 1142.38 1433.74 1156.62C1425.89 1171.68 1414.24 1196.85 1396.14 1200.94C1376.63 1205.36 1361.6 1179.97 1353.28 1165.9C1342.77 1148.12 1334.78 1128.99 1325.39 1110.59C1318.31 1096.89 1309.27 1084.35 1298.59 1073.4C1287.39 1061.86 1272.19 1050.8 1266.53 1034.93C1261.52 1020.87 1270.89 1003.86 1272.55 989.608C1274.32 974.378 1271.21 958.381 1281.03 945.304C1301.27 918.336 1352.06 923.337 1381.1 922.76C1409.75 922.165 1432.78 938.668 1455.97 954.367C1471.28 964.732 1487.23 973.51 1502.93 983.167C1518.94 993.021 1524.5 1003.4 1521.88 1022.68Z" stroke="white" stroke-opacity="0.1"/>
<path fill-rule="evenodd" clip-rule="evenodd" d="M1503.84 1035.23C1495.04 1066.97 1467.56 1083.85 1447.91 1107.84C1431.84 1127.48 1419.79 1168.15 1392.72 1173.53C1361.98 1179.64 1343.58 1125.75 1332.9 1104.95C1321.04 1081.89 1299.93 1063.13 1291.15 1038.71C1286.53 1025.9 1290.49 1013.94 1292.95 1001.13C1295.65 987.07 1297.67 972.691 1306.97 961.371C1325.28 939.093 1361.03 939.248 1386.78 938.635C1413.44 937.998 1437.02 953.264 1458.25 968.501C1480.78 984.636 1512.85 1002.67 1503.84 1035.23Z" stroke="white" stroke-opacity="0.1"/>
<path fill-rule="evenodd" clip-rule="evenodd" d="M1489.1 1043.83C1479.19 1066.45 1458.35 1084.84 1441.45 1102.2C1427.34 1116.67 1412.16 1145.81 1390.64 1147.88C1365.36 1150.33 1350.03 1119.22 1340.08 1100.15C1330.29 1081.4 1316.18 1061.61 1310.76 1041.04C1305.11 1019.61 1320.16 990.752 1334.52 975.588C1350.54 958.679 1376.74 952.431 1399.23 953.106C1422.77 953.792 1444.37 967.767 1462.2 982.262C1481.26 997.757 1500.63 1017.58 1489.1 1043.83Z" stroke="white" stroke-opacity="0.1"/>
<path fill-rule="evenodd" clip-rule="evenodd" d="M1475.43 1048.09C1465.96 1066.91 1449.54 1082.82 1434.41 1097.02C1422.73 1107.98 1405.49 1126.61 1388.64 1127.07C1370.1 1127.57 1354.39 1111.93 1347.02 1095.9C1339.75 1080.08 1332.1 1060.26 1331.01 1042.91C1328.65 1005.13 1376.73 962.808 1412.84 966.252C1447.07 969.517 1494.31 1010.61 1475.43 1048.09Z" stroke="white" stroke-opacity="0.1"/>
<path fill-rule="evenodd" clip-rule="evenodd" d="M1462.78 1050.17C1449.72 1074.68 1417.98 1109.62 1388.6 1110.45C1354.88 1111.4 1346.41 1072.52 1350.81 1044.33C1355.28 1015.57 1394.16 973.942 1425.16 979.568C1455.41 985.057 1478.26 1021.1 1462.78 1050.17Z" stroke="white" stroke-opacity="0.1"/>
<path fill-rule="evenodd" clip-rule="evenodd" d="M1449.43 1054.13C1438.37 1074.65 1414.76 1100.29 1390.15 1101.06C1360.81 1101.98 1361.37 1069.15 1368.02 1048.72C1374.93 1027.5 1405.4 991.265 1431.08 996.986C1456.06 1002.57 1460.03 1034.46 1449.43 1054.13Z" stroke="white" stroke-opacity="0.1"/>
<path fill-rule="evenodd" clip-rule="evenodd" d="M1437.8 1056.49C1430.5 1071.14 1412.23 1089.65 1394.85 1090.24C1373.62 1090.95 1377.75 1064.91 1383.23 1052.34C1389.76 1037.39 1411.61 1011.4 1429.96 1015.61C1448.02 1019.76 1443.82 1044.43 1437.8 1056.49Z" stroke="white" stroke-opacity="0.1"/>
<path fill-rule="evenodd" clip-rule="evenodd" d="M438.951 219.781C485.949 190.4 539.079 166.147 589.18 141.497C662.397 105.478 736.692 70.4272 813.624 43.5957C854.87 29.2142 908.318 8.4799 952.575 19.7474C968.757 23.8657 983.513 36.3217 998.021 44.4157C1018.03 55.5762 1038.33 66.184 1058.59 76.8156C1099.25 98.1263 1140.02 119.223 1179.98 141.901C1199.22 152.823 1217.88 166.581 1237.91 175.899C1249.62 181.349 1263.63 178.799 1276.13 178.455C1305.1 177.652 1334.06 176.131 1363.01 174.835C1398.42 173.255 1433.92 171.573 1469.37 172.197C1485.36 172.482 1524.53 169.558 1533.33 183.749C1538.07 191.392 1526.9 205.173 1521.73 211.55C1512.23 223.269 1501.31 233.829 1490.53 244.282C1465.61 268.458 1439.14 291.48 1416.99 318.484C1405.61 332.366 1390.7 349.327 1398.13 368.278C1405.63 387.42 1418.62 403.994 1426.55 423.07C1435.67 445.023 1439.46 467.867 1443.77 491.145C1446.96 508.349 1454.39 523.592 1461.37 539.453C1469.09 556.984 1477.09 574.664 1482.44 593.152C1485.99 605.364 1491.7 627.335 1479.31 635.066C1461.71 646.06 1428.69 637.158 1408.62 633.919C1380.89 629.45 1353.35 623.757 1325.69 618.854C1305.61 615.289 1285.46 611.378 1265.04 610.962C1232.13 610.291 1199.11 612.615 1166.29 614.778C1105.51 618.783 1045.17 624.215 984.182 624.215C930.753 624.215 807.284 560.526 778.383 549.312C720.696 526.926 661.474 505.704 606.884 475.919C592.116 467.855 569.388 457.11 561.617 440.512C556.823 430.285 559.027 424.372 547.72 417.781C532.295 408.79 512.531 405.26 495.456 401.237C467.956 394.759 440.243 389.274 412.617 383.408C356.741 371.576 301.246 358.193 245.601 345.315C228.779 341.423 208.427 340.561 192.39 333.703C182.052 329.3 183.125 323.755 191.126 317.063C205.162 305.321 224.833 298.801 241.412 292.104C265.705 282.292 290.395 273.539 315.096 264.91C339.798 256.281 364.627 247.92 389.34 239.273C405.665 233.58 424.281 228.95 438.951 219.781Z" stroke="white" stroke-opacity="0.1"/>
<path fill-rule="evenodd" clip-rule="evenodd" d="M477.625 226.243C527.339 196.802 582.523 173.349 635.722 150.466C703.808 121.162 773.434 93.697 845.172 75.3791C887.293 64.6311 936.99 52.7643 980.028 65.0893C995.382 69.4873 1006.85 79.3723 1020.01 88.0968C1035.02 98.0532 1050.59 107.177 1066.17 116.157C1098.24 134.642 1130.65 152.495 1163.4 169.718C1180.74 178.877 1199.83 191.143 1219.43 194.321C1235.01 196.85 1252.71 193.19 1268.35 192.125C1296.53 190.208 1324.71 188.233 1352.9 186.554C1385.43 184.62 1418.05 182.835 1450.66 183.144C1468.82 183.317 1500.02 180.466 1512.87 192.565C1524.08 203.123 1483.26 241.306 1476.08 248.56C1453.67 271.211 1430.09 292.778 1409.23 317C1396.9 331.283 1381.88 348.655 1376.68 367.585C1372.26 383.719 1380.8 402.103 1385.84 417.017C1392.15 435.698 1397.24 455.063 1404.56 473.351C1411.09 489.646 1421.48 504.161 1430.6 518.973C1440.63 535.268 1450.79 551.83 1458.24 569.607C1462.81 580.545 1470.36 598.863 1461.29 609.29C1450.81 621.311 1418.51 613.455 1405.23 611.742C1378.3 608.218 1351.57 602.981 1324.82 598.292C1280.4 590.508 1238.04 583.699 1192.8 585.33C1133.88 587.46 1075.02 592.472 1016.11 595.245C994.361 596.28 972.262 598.363 950.491 597.238C938.011 596.59 928.508 592.662 921.249 583.8C911.336 571.708 888.505 565.012 872.626 558.073C847.867 547.26 822.796 537.202 797.795 527.014C742.911 504.637 686.971 483.07 634.92 454.129C618.453 444.976 599.597 434.769 587.416 419.647C580.619 411.214 582.333 403.091 578.184 394.128C572.691 382.339 554.631 377.018 543.836 373.162C523 365.711 501.311 360.718 479.789 356.04C431.091 345.459 382.277 338.502 332.788 333.378C321.19 332.188 275.521 328.063 299.506 308.186C326.008 286.22 364.274 275.454 395.472 263.076C423.578 251.947 451.707 241.592 477.625 226.243Z" stroke="white" stroke-opacity="0.1"/>
<path fill-rule="evenodd" clip-rule="evenodd" d="M546.329 231.688C593.058 205.787 644.824 186.464 695.152 167.979C756.223 145.548 818.826 125.553 882.878 114.353C923.115 107.323 967.476 101.922 1007.44 113.604C1034.73 121.578 1055.85 143.135 1079.82 157.966C1103.79 172.797 1128.73 186.719 1154.42 198.324C1170.36 205.526 1187.51 212.781 1205.25 211.83C1248.38 209.524 1291.46 204.028 1334.63 201.36C1363.2 199.578 1391.82 198.11 1420.47 198.55C1437.74 198.811 1461.48 197.742 1476.77 207.106C1493.68 217.463 1403.66 305.89 1395.15 315.843C1373.82 340.799 1347.99 373.92 1352.11 409.411C1356.06 443.339 1373.15 468.669 1392.49 495.254C1403.47 510.376 1438.66 550.775 1425.62 570.442C1418.17 581.685 1393.61 577.793 1381.94 577.026C1358.94 575.517 1336.08 572.273 1313.2 569.456C1279.85 565.374 1245.58 559.07 1212.09 557.222C1188.76 555.938 1165.3 557.656 1141.93 557.691C1108.43 557.739 1074.93 557.477 1041.43 557.168C1013.3 556.907 984.931 557.168 956.9 554.387C939.473 552.676 926.245 548.832 913.746 537.97C902.869 528.522 886.459 522.99 872.596 516.983C849.699 507.066 826.502 497.874 803.38 488.533C754.97 468.972 706.005 449.822 659.669 425.377C638.517 414.224 602.953 398.608 597.991 371.567C596.2 361.816 594.883 357.603 585.641 352.059C572.524 344.192 556.813 340.645 542.095 337.561C507.784 330.371 472.48 331.447 438.228 324.34C424.278 321.411 406.066 315.089 421.991 300.614C440.573 283.686 467.623 274.381 489.884 263.923C500.997 258.706 512.446 253.821 522.999 247.452C531.103 242.544 538.04 236.251 546.329 231.688Z" stroke="white" stroke-opacity="0.1"/>
<path fill-rule="evenodd" clip-rule="evenodd" d="M634.836 239.774C678.008 218.737 724.894 203.442 770.938 189.654C822.081 174.358 874.457 161.69 927.525 156.299C964.169 152.565 1003.21 151.463 1038.78 162.893C1061.27 170.124 1076.52 185.329 1095.87 198.081C1125.08 217.355 1156.69 232.627 1191.78 228.91C1231.12 224.753 1270.59 221.634 1310.19 219.553C1334.08 218.296 1358.06 217.355 1381.98 218.231C1397.1 218.779 1416.58 219.702 1429.73 226.76C1447.33 236.212 1381.22 308.139 1372.98 318.621C1352.54 344.62 1337.56 371.899 1328.8 404.109C1321.66 430.394 1336.25 451.055 1351.29 470.717C1360.65 482.927 1390.87 513.636 1381.41 529.491C1376.22 538.235 1359.11 537.782 1349.93 538.229C1332.42 539.075 1314.84 538.193 1297.33 537.806C1271.47 537.211 1243.95 541.302 1218.32 538.009C1161.51 530.718 1104.84 524.405 1047.68 519.408C1016.17 516.656 984.464 514.155 953.235 508.848C942.024 506.942 930.444 504.923 919.821 500.61C912.987 497.841 909.261 493.124 903.494 489.252C875.997 470.824 840.103 461.342 809.134 449.531C767.963 433.83 726.572 418.374 686.497 399.827C665.419 390.071 635.978 378.861 621.474 358.95C617.091 352.935 618.959 348.122 616.202 342.339C613.031 335.668 603.394 333.678 597.171 331.82C583.048 327.597 523.93 321.212 551.173 296.441C564.172 284.642 580.735 277.071 595.389 267.798C600.695 264.439 605.868 261.061 610.291 256.529C617.69 248.929 624.98 244.593 634.836 239.774Z" stroke="white" stroke-opacity="0.1"/>
<path fill-rule="evenodd" clip-rule="evenodd" d="M729.138 248.883C814.366 214.848 914.249 191.66 1007.17 196.152C1038.07 197.652 1071.31 202.656 1098.1 219.78C1113.89 229.896 1126.51 241.314 1145.49 244.967C1159.18 247.603 1173.93 244.61 1187.71 243.528C1207.66 241.957 1227.63 240.552 1247.61 239.416C1272.39 238.03 1297.24 236.959 1322.06 237.53C1339.8 237.94 1364.29 237.476 1379.7 247.294C1398.09 259.004 1351.27 313.936 1344.68 323.724C1328.71 347.447 1317.52 370.433 1313.47 399.024C1312.28 407.354 1308.27 415.892 1308.79 424.288C1309.34 432.862 1314.46 440.496 1319.2 447.238C1325.38 456.074 1346.86 477.031 1340.71 487.806C1337.31 493.757 1324.56 494.506 1317.95 495.768C1305.55 498.148 1292.96 499.427 1280.49 501.319C1259.32 504.544 1238.3 515.046 1217.06 514.749C1159.93 513.963 1101.98 495.708 1046 485.682C1012.72 479.702 979.216 474.276 946.339 466.178C935.937 463.613 925.223 460.959 915.335 456.61C908.435 453.575 904.003 448.166 897.611 444.769C873.103 431.72 844.919 423.8 818.602 415.018C784.437 403.594 750.156 392.514 716.228 380.352C694.962 372.73 667.616 366.024 649.291 351.886C635.907 341.563 645.055 338.475 652.117 328.859C655.723 323.956 654.891 319.125 656.457 313.573C658.693 305.647 665.016 299.941 670.945 294.812C679.122 287.726 690.015 281.888 696.701 273.201C699.059 270.143 698.949 266.347 700.856 263.681C706.404 255.916 721.123 252.084 729.138 248.883Z" stroke="white" stroke-opacity="0.1"/>
<path fill-rule="evenodd" clip-rule="evenodd" d="M819.753 261.008C888.925 239.61 965.89 227.426 1039.01 233.08C1064.45 235.051 1090.04 239.628 1113.74 249.681C1124.52 254.241 1132.61 259.324 1144.43 259.597C1171.84 260.228 1199.34 258.02 1226.75 257.49C1246.36 257.11 1266.07 256.973 1285.64 258.598C1298.72 259.681 1316.42 260.978 1327.13 269.246C1342.71 281.287 1314.59 322.221 1308.87 333.53C1299.39 352.285 1289.98 373.136 1293.74 394.838C1294.89 401.474 1296.93 407.337 1297.2 414.105C1297.45 419.92 1296.74 425.289 1298.75 430.848C1301.22 437.741 1312.23 448.437 1308.44 454.782C1305.86 459.115 1298.22 459.318 1293.13 460.705C1284.87 462.953 1276.82 465.904 1269.04 469.526C1260.85 473.359 1253.87 479.281 1245.39 482.448C1231.61 487.579 1216.19 488.061 1201.71 488.038C1143.94 487.942 1085.43 476.198 1029.13 463.919C999.804 457.526 970.32 450.711 941.823 441.015C933.17 438.068 923.363 435.11 915.755 429.67C911.007 426.283 907.788 422.039 902.394 419.492C856.32 397.742 803.053 389.665 754.14 373.957C741.409 369.868 670.853 349.208 707.743 329.774C730.154 317.965 753.835 312.596 774.285 296.442C780.515 291.531 784.668 287.466 787.102 279.972C788.706 274.984 784.847 277.514 790.235 272.3C796.771 266.032 811.694 263.502 819.753 261.008Z" stroke="white" stroke-opacity="0.1"/>
<path fill-rule="evenodd" clip-rule="evenodd" d="M891.677 273.661C972.661 256.195 1058.42 255.364 1140.69 270.848C1161.42 274.747 1183.01 273.816 1204 274.807C1224.4 275.756 1260.66 273.78 1275.47 289.94C1286.22 301.655 1274.56 326.552 1270.53 339.655C1265.39 356.35 1260.9 373.596 1269.34 389.81C1274.28 399.305 1281.04 408.344 1286.34 417.751C1288.88 422.243 1294.09 429.127 1291.92 433.383C1288.32 440.403 1271.49 443.359 1263.32 446.67C1237.21 457.252 1209.57 459.952 1181.66 459.877C1130.11 459.739 1078.29 452.475 1027.72 442.623C1004.45 438.089 980.864 433.252 958.425 425.371C945.728 420.914 936.363 412.314 924.238 407.216C885.198 390.789 843.254 382.012 803.543 366.991C792.049 362.641 749.115 348.16 770.744 331.086C791.684 314.557 822.227 316.522 844 300.973C846.464 299.192 849.513 297.062 850.942 294.184C851.786 292.462 850.3 289.187 850.942 288.207C857.629 277.566 881.398 275.875 891.677 273.661Z" stroke="white" stroke-opacity="0.1"/>
<path fill-rule="evenodd" clip-rule="evenodd" d="M944.145 285.205C985.692 279.333 1028.15 277.877 1070.4 277.507C1093.49 277.304 1118.86 275.789 1141.46 281.815C1155.34 285.527 1168.74 288.773 1183.05 291.112C1198.45 293.63 1223.24 295.462 1232.61 309.108C1239.61 319.306 1234.81 340.268 1234.56 352.668C1234.29 366.266 1236.99 376.351 1246.31 386.083C1252.17 392.211 1279.04 414.456 1275.94 420.871C1272.98 426.981 1254.26 427.918 1246.16 429.505C1220.57 434.541 1194.64 436.295 1168.61 436.021C1128.29 435.603 1087.83 431.367 1048.14 424.087C1031.73 421.062 1014.78 417.929 999.104 411.884C988.549 407.809 979.747 400.583 969.262 396.37C939.235 384.287 907.485 376.082 877.354 363.778C867.684 359.822 836.177 349.29 843.73 333.06C850.028 319.509 871.449 315.386 881.975 306.304C899.88 290.814 921.313 288.427 944.145 285.205Z" stroke="white" stroke-opacity="0.1"/>
<path fill-rule="evenodd" clip-rule="evenodd" d="M970.319 292.992C1003.28 289.105 1037 287.405 1070.44 287.322C1092.02 287.269 1114.79 286.965 1135.97 291.964C1146.61 294.472 1155.86 300.339 1165.92 304.523C1176.29 308.826 1190.6 313.629 1195.08 323.495C1199.29 332.767 1197.72 346.295 1201.42 357.475C1204.7 367.395 1211.59 373.523 1219 380.227C1223.72 384.513 1247.98 403.063 1245.17 407.158C1242.17 411.544 1227.6 411.188 1220.02 411.794C1199.14 413.493 1178.18 414.035 1157.24 413.417C1128.66 412.513 1099.86 409.993 1071.77 404.287C1051.85 400.245 1036.82 390.617 1018.25 383.556C994.182 374.385 969.254 367.133 945.419 357.1C933.543 352.102 915.964 345.671 909.881 332.767C907.543 327.822 905.273 315.245 907.877 310.3C911.004 304.357 922.645 301.837 928.14 300.309C941.906 296.499 956.311 294.645 970.319 292.992Z" stroke="white" stroke-opacity="0.1"/>
</svg>
