<svg width="128" height="49" viewBox="0 0 128 49" fill="none" xmlns="http://www.w3.org/2000/svg">
<path d="M67.4837 7.86103C67.1709 7.63781 66.7955 7.51319 66.4079 7.50391C66.0266 7.51097 65.6574 7.63603 65.3539 7.86103C65.1829 7.98351 65.0463 8.14588 64.9565 8.33324C64.8667 8.52059 64.8266 8.72692 64.84 8.93329V28.3459C64.84 29.2059 64.8077 30.1439 64.7431 31.1597C64.6822 32.1452 64.5098 33.121 64.2292 34.0696C63.957 34.9815 63.5175 35.8378 62.9318 36.5968C62.2983 37.3921 61.4265 37.9755 60.4374 38.2661C60.0208 38.3738 59.6407 38.5867 59.3354 38.8833C59.1517 39.1151 59.0558 39.4017 59.064 39.6945C59.0639 40.0499 59.1845 40.3953 59.4069 40.6769C59.5266 40.829 59.6831 40.9499 59.8625 41.0287C60.0418 41.1075 60.2384 41.1417 60.4347 41.1283C61.5844 41.1433 62.7106 40.8106 63.6583 40.176C64.6262 39.5177 65.4362 38.6627 66.0324 37.67C66.6978 36.5684 67.1929 35.3772 67.5018 34.1349C67.846 32.8018 68.0187 31.4321 68.0156 30.0575V8.93153C68.0287 8.72359 67.9866 8.51588 67.8935 8.32839C67.8003 8.1409 67.6592 7.97994 67.4837 7.86103Z" fill="#23293F"/>
<path d="M55.8103 11.8439C55.0187 10.8085 54.0094 9.94957 52.8499 9.32464C51.5123 8.62623 50.0104 8.28092 48.4935 8.32294C47.0717 8.31969 45.6612 8.56981 44.3316 9.06099C42.9717 9.56689 41.7006 10.2751 40.5633 11.1605C39.3408 12.1126 38.2464 13.2111 37.3061 14.4302C36.2759 15.7522 35.4115 17.1894 34.7312 18.7113V10.9851C34.7433 10.7756 34.6996 10.5667 34.6045 10.3785C34.5094 10.1904 34.3661 10.0293 34.1883 9.91104C33.8755 9.68781 33.5001 9.5632 33.1126 9.55391C32.7319 9.56134 32.3634 9.68639 32.0603 9.91104C31.8891 10.0337 31.7523 10.1963 31.6625 10.384C31.5727 10.5717 31.5328 10.7784 31.5464 10.9851V28.299H16.1402V15.4249C16.2618 13.0601 15.5821 10.722 14.2058 8.77088C13.5755 7.95052 12.7486 7.29316 11.7973 6.85629C10.8461 6.41942 9.79954 6.21636 8.74917 6.26484C8.53452 6.25293 8.32036 6.29539 8.12756 6.38811C7.93475 6.48083 7.76987 6.62063 7.64897 6.7939C7.41994 7.09877 7.29207 7.46461 7.28255 7.84235C7.29017 8.21338 7.41848 8.57248 7.64897 8.86788C7.77464 9.03449 7.94124 9.16766 8.13347 9.25517C8.3257 9.34268 8.53742 9.38173 8.74917 9.36873C9.46756 9.40205 10.161 9.63586 10.7469 10.0423C11.3329 10.4488 11.7867 11.0108 12.0543 11.6614C12.7174 13.3518 13.0251 15.155 12.959 16.9636V28.3061H1.46403C1.26168 28.2953 1.05973 28.3332 0.875931 28.4164C0.692136 28.4996 0.532128 28.6255 0.40998 28.7831C0.173686 29.0662 0.0446777 29.4199 0.0446777 29.7848C0.0446777 30.1497 0.173686 30.5035 0.40998 30.7865C0.532128 30.9441 0.692136 31.0701 0.875931 31.1532C1.05973 31.2364 1.26168 31.2743 1.46403 31.2636H47.0748C48.949 31.3365 50.8088 30.9165 52.4591 30.0476C53.8045 29.2884 54.9505 28.2349 55.8067 26.9701C56.6339 25.7418 57.2227 24.3759 57.5438 22.9404C57.8574 21.6018 58.0215 20.2341 58.0333 18.8612C58.0291 17.6322 57.8507 16.4096 57.5031 15.2282C57.1519 14.009 56.5772 12.8618 55.8067 11.8422L55.8103 11.8439ZM54.4161 22.5744C54.1956 23.6539 53.764 24.682 53.1449 25.6025C52.5505 26.4512 51.7399 27.1347 50.7925 27.5856C49.6566 28.0946 48.4149 28.3394 47.1653 28.3008H34.7375V24.4438C35.2473 23.0306 35.8354 21.6453 36.4991 20.2941C37.2565 18.7269 38.1928 17.2479 39.2903 15.8852C40.3826 14.516 41.7066 13.3384 43.2052 12.403C44.7565 11.4513 46.5595 10.9624 48.3922 10.9965C49.4031 10.9716 50.4015 11.2191 51.2775 11.7116C52.079 12.1723 52.7669 12.7991 53.2924 13.5475C53.822 14.311 54.2114 15.1584 54.4432 16.0518C54.6814 16.9233 54.8045 17.8209 54.8096 18.7228C54.818 20.0166 54.6861 21.3076 54.4161 22.5744Z" fill="#23293F"/>
<path d="M77.9515 0C77.5836 0.000467456 77.2309 0.143298 76.971 0.397113C76.7111 0.650927 76.5652 0.994941 76.5654 1.35354V47.3433C76.5654 47.7017 76.7115 48.0454 76.9716 48.2989C77.2316 48.5523 77.5842 48.6947 77.952 48.6947C78.3197 48.6947 78.6724 48.5523 78.9324 48.2989C79.1924 48.0454 79.3385 47.7017 79.3385 47.3433V1.35354C79.3385 0.99486 79.1925 0.650848 78.9324 0.397059C78.6723 0.14327 78.3196 0.000467333 77.9515 0Z" fill="#3283D0"/>
<path d="M117.858 21.4496C118.644 24.6878 118.202 28.0935 116.616 31.0398C115.029 33.986 112.404 36.2745 109.223 37.4838C106.042 38.6932 102.521 38.742 99.3059 37.6214C96.0912 36.5007 93.4002 34.2859 91.7282 31.3849C90.0561 28.4838 89.5156 25.0917 90.2062 21.8331C90.8969 18.5744 92.772 15.6686 95.4866 13.6506C98.2012 11.6326 101.572 10.6382 104.979 10.8505C108.387 11.0629 111.6 12.4676 114.029 14.8062L116.101 12.9932C113.184 10.1293 109.29 8.40968 105.158 8.16114C101.025 7.91261 96.9433 9.15253 93.6876 11.6452C90.4319 14.1379 88.2294 17.7096 87.4989 21.6814C86.7683 25.6531 87.5606 29.748 89.725 33.1877C91.8895 36.6274 95.2753 39.1721 99.2389 40.3381C103.202 41.5041 107.467 41.2101 111.223 39.512C114.979 37.8138 117.963 34.8299 119.609 31.1275C121.256 27.4251 121.449 23.2623 120.152 19.4303L117.858 21.4496Z" fill="#23293F"/>
<path d="M126.811 8.34504C126.723 8.24196 126.614 8.15749 126.491 8.09683C126.369 8.03617 126.235 8.0006 126.098 7.99231C125.826 7.97167 125.557 8.05626 125.349 8.22775L117.58 14.6648L115.462 16.4205L103.467 26.3635L97.4846 20.8374C97.4218 20.7814 97.3495 20.7363 97.271 20.7042C97.0972 20.6018 96.8957 20.553 96.6929 20.5642C96.4901 20.5754 96.2956 20.646 96.1347 20.7668C95.9499 20.9039 95.8174 21.0973 95.7586 21.3163C95.6997 21.5352 95.7178 21.7671 95.8099 21.9749C95.8433 22.0524 95.8874 22.125 95.941 22.1909L96.6341 23.0824L101.396 29.1667L102.025 29.978L102.146 30.1138C102.263 30.2355 102.399 30.3387 102.549 30.4198C102.751 30.537 102.979 30.6045 103.214 30.6164C103.459 30.6467 103.709 30.6229 103.944 30.5465C104.179 30.4702 104.393 30.3434 104.571 30.1755L104.635 30.1129L116.927 18.7837L119.027 16.8437L120.219 15.7441L126.264 10.165L126.745 9.72415C126.939 9.5466 127.055 9.30303 127.069 9.04427C127.083 8.7855 126.993 8.53152 126.82 8.33533L126.811 8.34504Z" fill="#3283D0"/>
</svg>
