<svg width="57" height="56" viewBox="0 0 57 56" fill="none" xmlns="http://www.w3.org/2000/svg">
<path d="M42.7545 6.61828V49.2801C42.7545 51.011 41.329 52.3346 39.7 52.3346H8.23814C6.50723 52.3346 5.18359 50.9092 5.18359 49.2801V14.6619L16.3836 3.46191H39.7C41.4309 3.56373 42.7545 4.98919 42.7545 6.61828Z" fill="#E5E8F9"/>
<path d="M16.3836 3.56348V11.6071C16.3836 13.338 14.9581 14.6617 13.329 14.6617H5.18359L16.3836 3.56348Z" fill="#666666"/>
<path d="M35.9323 45.5125H11.4959C11.0887 45.5125 10.7832 45.2071 10.7832 44.7998C10.7832 44.3925 11.0887 44.0871 11.4959 44.0871H35.9323C36.3396 44.0871 36.645 44.3925 36.645 44.7998C36.645 45.2071 36.3396 45.5125 35.9323 45.5125ZM35.9323 40.0144H11.4959C11.0887 40.0144 10.7832 39.7089 10.7832 39.3016C10.7832 38.8944 11.0887 38.5889 11.4959 38.5889H35.9323C36.3396 38.5889 36.645 38.8944 36.645 39.3016C36.645 39.7089 36.3396 40.0144 35.9323 40.0144ZM25.5468 34.5162H11.4959C11.0887 34.5162 10.7832 34.2107 10.7832 33.8035C10.7832 33.3962 11.0887 33.0907 11.4959 33.0907H25.5468C25.9541 33.0907 26.2596 33.3962 26.2596 33.8035C26.2596 34.2107 25.9541 34.5162 25.5468 34.5162ZM25.5468 28.9162H11.4959C11.0887 28.9162 10.7832 28.6107 10.7832 28.2035C10.7832 27.7962 11.0887 27.4907 11.4959 27.4907H25.5468C25.9541 27.4907 26.2596 27.7962 26.2596 28.2035C26.2596 28.6107 25.9541 28.9162 25.5468 28.9162Z" fill="#C5CEEA"/>
<path d="M51.0022 15.0693L39.2931 30.6475C38.9876 31.0548 38.4786 31.462 37.9695 31.6657L32.3695 34.2111C31.7586 34.5166 31.1476 34.0075 31.2495 33.2948L32.1658 27.1857C32.2676 26.6766 32.4713 26.0657 32.7767 25.6584L44.2822 10.2839C45.7076 8.45113 48.4567 7.94204 50.2895 9.46931C51.104 10.182 51.6131 11.0984 51.7149 12.0148C51.9186 13.0329 51.7149 14.1529 51.0022 15.0693Z" fill="#FF4848"/>
<path opacity="0.4" d="M37.2566 23.7236C37.1547 23.7236 37.0529 23.7236 36.9511 23.6218C36.7475 23.4181 36.6456 23.1127 36.8493 22.909L39.5984 19.2436C39.802 19.0399 40.1075 18.9381 40.3111 19.1418C40.5147 19.3454 40.6166 19.6509 40.4129 19.8545L37.6638 23.5199C37.562 23.7236 37.4602 23.7236 37.2566 23.7236Z" fill="white"/>
<path d="M49.78 16.6982L51.0019 15.0691C52.3255 13.2364 52.02 10.6909 50.1873 9.36726C48.3546 8.04363 45.8091 8.34908 44.4855 10.1818L43.2637 11.8109L49.78 16.6982Z" fill="#FFEB33"/>
<path d="M39.0892 30.8509C38.7838 31.1564 38.4783 31.4618 38.071 31.5636L34.8128 33.0909L32.471 34.1091C31.8601 34.4145 31.2492 33.9055 31.351 33.1927L31.7583 30.6473L32.2674 27.0836C32.3692 26.6764 32.471 26.2691 32.6747 25.8618L39.0892 30.8509Z" fill="#FFC776"/>
<path d="M34.7113 33.1927L32.3695 34.2108C31.7586 34.5163 31.1476 34.0072 31.2495 33.2945L31.6567 30.749L34.7113 33.1927Z" fill="#666666"/>
<g opacity="0.4">
<path d="M31.2494 6.71984H22.2894C21.9839 6.71984 21.7803 6.51621 21.7803 6.21075C21.7803 5.9053 21.9839 5.70166 22.2894 5.70166H31.2494C31.5548 5.70166 31.7585 5.9053 31.7585 6.21075C31.7585 6.51621 31.5548 6.71984 31.2494 6.71984Z" fill="white"/>
</g>
<g opacity="0.4">
<path d="M7.72882 31.6657C7.42336 31.6657 7.21973 31.462 7.21973 31.1566V22.1966C7.21973 21.8911 7.42336 21.6875 7.72882 21.6875C8.03427 21.6875 8.23791 21.8911 8.23791 22.1966V31.1566C8.23791 31.462 8.03427 31.6657 7.72882 31.6657Z" fill="white"/>
</g>
</svg>
