<svg width="57" height="56" viewBox="0 0 57 56" fill="none" xmlns="http://www.w3.org/2000/svg">
<g clip-path="url(#clip0_5609_18559)">
<path fill-rule="evenodd" clip-rule="evenodd" d="M2.4641 17.8726C1.86374 17.8726 1.58691 18.1432 1.58691 18.7529V30.3236C1.58691 33.3189 4.01613 35.7483 7.01148 35.7483L15.7799 35.5646V17.8726H2.4641Z" fill="#BED8FB"/>
<path fill-rule="evenodd" clip-rule="evenodd" d="M5.74219 35.599C6.08125 35.6798 6.43267 35.7296 6.7935 35.7421H7.23833L15.7796 35.5647V17.8726H9.91944V30.3174C9.91944 32.8834 8.13717 35.0329 5.74219 35.599Z" fill="#9DC6FB"/>
<path fill-rule="evenodd" clip-rule="evenodd" d="M24.9279 35.7482H7.01172C10.0072 35.7482 12.4332 33.3189 12.4332 30.3236V5.42467C12.4332 2.42922 14.8625 0 17.8579 0L23.2855 0.0745937L24.9279 35.7482Z" fill="#DDEAFB"/>
<path fill-rule="evenodd" clip-rule="evenodd" d="M24.9281 35.7482H20.5392V5.42467C20.5392 2.90216 18.8191 0.783781 16.4863 0.174125C16.925 0.062125 17.3853 0 17.8581 0L23.2857 0.0745937L24.9281 35.7482Z" fill="#CBE2FF"/>
<path fill-rule="evenodd" clip-rule="evenodd" d="M55.4128 55.3035V5.42467C55.4128 2.42922 52.9835 0 49.9882 0H17.8574C20.8528 0 23.282 2.42922 23.282 5.42467V55.3035C23.282 55.9037 23.5775 56.0469 24.0814 55.8167L26.4983 54.7125C27.0209 54.473 27.5713 54.4698 28.097 54.7125L30.517 55.8167C31.0675 56.0687 31.5994 56.0501 32.1126 55.8167L34.5326 54.7125C35.0676 54.4668 35.6275 54.4823 36.1282 54.7125L38.5482 55.8167C39.0925 56.0654 39.6399 56.0469 40.147 55.8167L42.5637 54.7125C43.1298 54.4544 43.6431 54.473 44.1625 54.7125L46.5824 55.8167C47.1547 56.078 47.6804 56.0436 48.178 55.8167L50.5978 54.7125C51.1297 54.4668 51.6803 54.4761 52.1935 54.7125L54.6134 55.8167C55.1982 56.0843 55.4128 55.9225 55.4128 55.3035Z" fill="#F5FAFF"/>
<path fill-rule="evenodd" clip-rule="evenodd" d="M55.413 55.3035V5.42467C55.413 2.42922 52.9838 0 49.9885 0H47.2451C50.2405 0 52.6697 2.42922 52.6697 5.42467V54.9272L54.6136 55.8168C55.1984 56.0843 55.413 55.9225 55.413 55.3035Z" fill="#ECF4FF"/>
<path d="M36.2217 30.4324C35.7676 30.4324 35.3975 30.0623 35.3975 29.6081C35.3975 29.154 35.7676 28.7838 36.2217 28.7838H48.595C49.0491 28.7838 49.4192 29.154 49.4192 29.6081C49.4192 30.0623 49.0491 30.4324 48.595 30.4324H36.2217ZM36.2217 27.3592C35.7676 27.3592 35.3975 26.9892 35.3975 26.5351C35.3975 26.0809 35.7676 25.7139 36.2217 25.7139H51.3384C51.7926 25.7139 52.1627 26.0808 52.1627 26.5351C52.1627 26.9892 51.7926 27.3592 51.3384 27.3592H36.2217Z" fill="#E28086"/>
<path d="M36.2217 39.2101C35.7676 39.2101 35.3975 38.8399 35.3975 38.3859C35.3975 37.9318 35.7676 37.5647 36.2217 37.5647H48.595C49.0491 37.5647 49.4192 37.9317 49.4192 38.3859C49.4192 38.8399 49.0491 39.2101 48.595 39.2101H36.2217ZM36.2217 36.1371C35.7676 36.1371 35.3975 35.7702 35.3975 35.3129C35.3975 34.8588 35.7676 34.4917 36.2217 34.4917H51.3384C51.7926 34.4917 52.1627 34.8587 52.1627 35.3129C52.1627 35.7702 51.7926 36.1371 51.3384 36.1371H36.2217Z" fill="#E28086"/>
<path d="M36.2217 47.9877C35.7676 47.9877 35.3975 47.6207 35.3975 47.1635C35.3975 46.7093 35.7676 46.3423 36.2217 46.3423H48.595C49.0491 46.3423 49.4192 46.7092 49.4192 47.1635C49.4192 47.6207 49.0491 47.9877 48.595 47.9877H36.2217ZM36.2217 44.9146C35.7676 44.9146 35.3975 44.5475 35.3975 44.0933C35.3975 43.6393 35.7676 43.269 36.2217 43.269H51.3384C51.7926 43.269 52.1627 43.6393 52.1627 44.0933C52.1627 44.5474 51.7926 44.9146 51.3384 44.9146H36.2217Z" fill="#E28086"/>
<path fill-rule="evenodd" clip-rule="evenodd" d="M28.9125 43.1605H32.0944C32.5765 43.1605 32.9716 43.5555 32.9716 44.0376V47.2197C32.9716 47.7018 32.5765 48.097 32.0944 48.097H28.9125C28.4272 48.097 28.0322 47.7019 28.0322 47.2197V44.0376C28.0322 43.5556 28.4273 43.1605 28.9125 43.1605ZM28.9125 25.6021H32.0944C32.5765 25.6021 32.9716 25.9971 32.9716 26.4824V29.6643C32.9716 30.1465 32.5765 30.5415 32.0944 30.5415H28.9125C28.4272 30.5415 28.0322 30.1466 28.0322 29.6643V26.4824C28.0322 25.9971 28.4273 25.6021 28.9125 25.6021ZM28.9125 34.3829H32.0944C32.5765 34.3829 32.9716 34.7778 32.9716 35.2601V38.4421C32.9716 38.9241 32.5765 39.3191 32.0944 39.3191H28.9125C28.4272 39.3191 28.0322 38.9241 28.0322 38.4421V35.2601C28.0322 34.778 28.4273 34.3829 28.9125 34.3829Z" fill="#77C9A5"/>
</g>
<defs>
<clipPath id="clip0_5609_18559">
<rect width="56" height="56" fill="white" transform="translate(0.5)"/>
</clipPath>
</defs>
</svg>
