<svg width="34" height="35" viewBox="0 0 34 35" fill="none" xmlns="http://www.w3.org/2000/svg">
<path d="M16.9997 9.45239C18.6663 8.78573 20.333 8.45239 21.9997 8.45239C23.333 8.45239 24.6663 8.61906 25.833 8.95239C22.833 2.11906 14.9997 -0.880941 8.33301 1.95239C1.66634 4.95239 -1.50033 12.7857 1.49967 19.6191C1.99967 20.6191 2.49967 21.6191 3.16634 22.4524L0.833008 24.7857C0.166341 25.4524 0.166341 26.4524 0.833008 27.1191C1.16634 27.4524 1.49967 27.6191 1.99967 27.6191H8.83301C5.99967 20.2857 9.66634 12.1191 16.9997 9.45239ZM33.1663 31.4524L31.333 29.6191C35.1663 24.4524 34.1663 17.1191 28.9997 13.2857C23.833 9.45239 16.4997 10.4524 12.6663 15.6191C8.83301 20.7857 9.83301 28.1191 14.9997 31.9524C16.9997 33.4524 19.4997 34.2857 21.9997 34.2857H31.9997C32.9997 34.2857 33.6663 33.6191 33.6663 32.6191C33.6663 32.1191 33.4997 31.7857 33.1663 31.4524Z" fill="white"/>
</svg>
