<svg width="104" height="104" viewBox="0 0 104 104" fill="none" xmlns="http://www.w3.org/2000/svg">
<g clip-path="url(#clip0_5574_10620)">
<path d="M17.5 45C27.165 45 35 36.9411 35 27C35 17.0589 27.165 9 17.5 9C7.83502 9 0 17.0589 0 27C0 36.9411 7.83502 45 17.5 45Z" fill="#FFA91A"/>
<path d="M28.5792 13C31.0398 16.1073 32.5163 20.0776 32.5163 24.4041C32.5163 34.3629 24.6953 42.4361 15.0477 42.4361C10.8564 42.4361 7.01023 40.912 4 38.372C7.20364 42.4175 12.0752 45 17.5314 45C27.179 45 35 36.9267 35 26.9679C35 21.3356 32.4982 16.3065 28.5792 13Z" fill="#F79219"/>
<path d="M18.8639 35H16.1366C13.8561 35 12.0005 33.0833 12.0005 30.7271C12.0005 30.3125 12.3259 29.9763 12.7272 29.9763C13.1285 29.9763 13.4538 30.3125 13.4538 30.7271C13.4538 32.255 14.6573 33.4984 16.1361 33.4984H18.8634C20.3422 33.4984 21.5457 32.255 21.5457 30.7271V29.3181C21.5457 27.7902 20.3422 26.5468 18.8634 26.5468H16.1361C13.8556 26.5468 12 24.6296 12 22.2734C12 19.9172 13.8556 18 16.1361 18H18.8634C21.1439 18 22.9995 19.9172 22.9995 22.2734C22.9995 22.688 22.6741 23.0242 22.2728 23.0242C21.8715 23.0242 21.5462 22.688 21.5462 22.2734C21.5462 20.745 20.3427 19.5016 18.8639 19.5016H16.1366C14.6578 19.5016 13.4543 20.745 13.4543 22.2734C13.4543 23.8013 14.6578 25.0447 16.1366 25.0447H18.8639C21.1444 25.0447 23 26.9615 23 29.3176V30.7266C23 33.0833 21.1449 35 18.8639 35Z" fill="white"/>
<path d="M17.5 37C17.2239 37 17 36.6607 17 36.2423V17.7577C17 17.3393 17.2239 17 17.5 17C17.7761 17 18 17.3393 18 17.7577V36.2418C18 36.6607 17.7761 37 17.5 37Z" fill="white"/>
<path d="M33.0095 79H1.99047C0.891306 79 0 78.1353 0 77.0688V73.9312C0 72.8647 0.891306 72 1.99047 72H33.0095C34.1087 72 35 72.8647 35 73.9312V77.0688C35 78.1353 34.1087 79 33.0095 79Z" fill="#F79219"/>
<path d="M33.0095 72H1.99047C0.891306 72 0 71.1353 0 70.0688V66.9312C0 65.8647 0.891306 65 1.99047 65H33.0095C34.1087 65 35 65.8647 35 66.9312V70.0688C35 71.1357 34.1087 72 33.0095 72Z" fill="#FFA91A"/>
<path d="M33.3939 64.6128H2.01456C0.902635 64.6128 0.000976562 63.7111 0.000976562 62.5992V59.3276C0.000976562 58.2156 0.902635 57.314 2.01456 57.314H33.3939C34.5058 57.314 35.4075 58.2156 35.4075 59.3276V62.5992C35.4075 63.7116 34.5058 64.6128 33.3939 64.6128Z" fill="#F79219"/>
<path d="M33.3939 57.2881H2.01456C0.902635 57.2881 0.000976562 56.3864 0.000976562 55.2745V52.0028C0.000976562 50.8909 0.902635 49.9893 2.01456 49.9893H33.3939C34.5058 49.9893 35.4075 50.8909 35.4075 52.0028V55.2745C35.4075 56.3864 34.5058 57.2881 33.3939 57.2881Z" fill="#FFA91A"/>
<path d="M33.3939 49.9634H2.01456C0.902635 49.9634 0.000976562 49.0617 0.000976562 47.9498V44.6781C0.000976562 43.5662 0.902635 42.6646 2.01456 42.6646H33.3939C34.5058 42.6646 35.4075 43.5662 35.4075 44.6781V47.9498C35.4075 49.0617 34.5058 49.9634 33.3939 49.9634Z" fill="#F79219"/>
<path d="M86.296 44.7024C96.0733 44.7024 103.999 36.7764 103.999 26.9992C103.999 17.2219 96.0733 9.2959 86.296 9.2959C76.5188 9.2959 68.5928 17.2219 68.5928 26.9992C68.5928 36.7764 76.5188 44.7024 86.296 44.7024Z" fill="#FFA91A"/>
<path d="M97.4934 13.2856C99.9871 16.3363 101.483 20.2342 101.483 24.4818C101.483 34.259 93.5574 42.1851 83.7801 42.1851C79.5325 42.1851 75.6347 40.6887 72.584 38.1951C75.8307 42.1667 80.7676 44.7022 86.2972 44.7022C96.0745 44.7022 104.001 36.7761 104.001 26.9989C104.001 21.4693 101.465 16.5318 97.4934 13.2856Z" fill="#F79219"/>
<path d="M87.7138 35.3522H84.8801C82.5106 35.3522 80.5825 33.4247 80.5825 31.0552C80.5825 30.6382 80.9206 30.3002 81.3376 30.3002C81.7545 30.3002 82.0926 30.6382 82.0926 31.0552C82.0926 32.5918 83.343 33.8422 84.8795 33.8422H87.7133C89.2499 33.8422 90.5003 32.5918 90.5003 31.0552V29.6383C90.5003 28.1018 89.2499 26.8514 87.7133 26.8514H84.8795C82.5101 26.8514 80.582 24.9233 80.582 22.5539C80.582 20.1844 82.5101 18.2563 84.8795 18.2563H87.7133C90.0828 18.2563 92.0108 20.1844 92.0108 22.5539C92.0108 22.9708 91.6728 23.3089 91.2558 23.3089C90.8388 23.3089 90.5008 22.9708 90.5008 22.5539C90.5008 21.0168 89.2504 19.7664 87.7138 19.7664H84.8801C83.3435 19.7664 82.0931 21.0168 82.0931 22.5539C82.0931 24.0904 83.3435 25.3408 84.8801 25.3408H87.7138C90.0833 25.3408 92.0114 27.2684 92.0114 29.6378V31.0547C92.0114 33.4247 90.0833 35.3522 87.7138 35.3522Z" fill="white"/>
<path d="M86.296 36.7695C85.8791 36.7695 85.541 36.4314 85.541 36.0145V17.5949C85.541 17.1779 85.8791 16.8398 86.296 16.8398C86.713 16.8398 87.0511 17.1779 87.0511 17.5949V36.014C87.0516 36.4314 86.7135 36.7695 86.296 36.7695Z" fill="white"/>
<path d="M101.986 79.2622H70.6064C69.4944 79.2622 68.5928 78.3605 68.5928 77.2486V73.977C68.5928 72.865 69.4944 71.9634 70.6064 71.9634H101.986C103.098 71.9634 103.999 72.865 103.999 73.977V77.2486C103.999 78.3605 103.098 79.2622 101.986 79.2622Z" fill="#F79219"/>
<path d="M101.986 71.9375H70.6064C69.4944 71.9375 68.5928 71.0358 68.5928 69.9239V66.6523C68.5928 65.5403 69.4944 64.6387 70.6064 64.6387H101.986C103.098 64.6387 103.999 65.5403 103.999 66.6523V69.9239C103.999 71.0363 103.098 71.9375 101.986 71.9375Z" fill="#FFA91A"/>
<path d="M33.3939 93.8862H2.01456C0.902635 93.8862 0.000976562 92.9845 0.000976562 91.8726V88.601C0.000976562 87.4891 0.902635 86.5874 2.01456 86.5874H33.3939C34.5058 86.5874 35.4075 87.4891 35.4075 88.601V91.8726C35.4075 92.9851 34.5058 93.8862 33.3939 93.8862Z" fill="#F79219"/>
<path d="M33.3939 86.5615H2.01456C0.902635 86.5615 0.000976562 85.6598 0.000976562 84.5479V81.2763C0.000976562 80.1644 0.902635 79.2627 2.01456 79.2627H33.3939C34.5058 79.2627 35.4075 80.1644 35.4075 81.2763V84.5479C35.4075 85.6603 34.5058 86.5615 33.3939 86.5615Z" fill="#FFA91A"/>
<path d="M101.986 93.8862H70.6064C69.4944 93.8862 68.5928 92.9845 68.5928 91.8726V88.601C68.5928 87.4891 69.4944 86.5874 70.6064 86.5874H101.986C103.098 86.5874 103.999 87.4891 103.999 88.601V91.8726C103.999 92.9851 103.098 93.8862 101.986 93.8862Z" fill="#F79219"/>
<path d="M101.986 86.5615H70.6064C69.4944 86.5615 68.5928 85.6598 68.5928 84.5479V81.2763C68.5928 80.1644 69.4944 79.2627 70.6064 79.2627H101.986C103.098 79.2627 103.999 80.1644 103.999 81.2763V84.5479C103.999 85.6603 103.098 86.5615 101.986 86.5615Z" fill="#FFA91A"/>
<path d="M101.986 64.6128H70.6064C69.4944 64.6128 68.5928 63.7111 68.5928 62.5992V59.3276C68.5928 58.2156 69.4944 57.314 70.6064 57.314H101.986C103.098 57.314 103.999 58.2156 103.999 59.3276V62.5992C103.999 63.7116 103.098 64.6128 101.986 64.6128Z" fill="#F79219"/>
<path d="M101.986 57.2885H70.6064C69.4944 57.2885 68.5928 56.3869 68.5928 55.275V52.0033C68.5928 50.8914 69.4944 49.9897 70.6064 49.9897H101.986C103.098 49.9897 103.999 50.8914 103.999 52.0033V55.275C103.999 56.3869 103.098 57.2885 101.986 57.2885Z" fill="#FFA91A"/>
<path d="M101.986 49.9638H70.6064C69.4944 49.9638 68.5928 49.0622 68.5928 47.9503V44.6786C68.5928 43.5667 69.4944 42.665 70.6064 42.665H101.986C103.098 42.665 103.999 43.5667 103.999 44.6786V47.9503C103.999 49.0622 103.098 49.9638 101.986 49.9638Z" fill="#F79219"/>
<path d="M51.9999 21.1077L43.52 16.349C40.7025 14.7681 37.4853 17.6605 38.7581 20.6297L51.9999 51.5081L65.2412 20.6297C66.5146 17.6605 63.2969 14.7681 60.4794 16.349L51.9999 21.1077Z" fill="#648940"/>
<path d="M49.4519 7.86773L49.2579 7.64524C46.9684 5.02122 42.6861 7.15445 43.4019 10.5625L51.9995 51.5083L60.5971 10.5625C61.3129 7.15445 57.0307 5.02122 54.7411 7.64524L54.5472 7.86773C53.1995 9.4114 50.7995 9.4114 49.4519 7.86773Z" fill="#76A34F"/>
<path d="M83.4905 78.5152C83.4905 93.8856 69.3913 97.5274 51.9996 97.5274C34.608 97.5274 20.5088 93.8856 20.5088 78.5152C20.5088 61.6428 34.608 32.7856 51.9996 32.7856C69.3913 32.7856 83.4905 61.6428 83.4905 78.5152Z" fill="#76A34F"/>
<path d="M24.3548 84.8237C23.9169 84.8237 23.53 84.5488 23.392 84.1313C22.8218 82.4619 22.5469 80.6235 22.5469 78.5162C22.5525 74.4432 23.392 69.6523 24.9805 64.6629C26.5593 59.6934 28.804 54.7554 31.4667 50.3871C32.5919 48.5491 33.7782 46.8334 34.9995 45.2851C35.3356 44.8575 35.9974 44.776 36.4307 45.1171C36.8685 45.4639 36.9449 46.1048 36.5987 46.5483C35.4277 48.0349 34.2873 49.6845 33.2079 51.4512C27.9538 60.0197 24.5681 70.6451 24.5834 78.5162C24.5834 80.3999 24.8232 82.019 25.3165 83.4746V83.4801C25.4081 83.7347 25.3878 84.0147 25.2656 84.2586C25.1485 84.4984 24.9392 84.6812 24.6801 84.7677C24.5737 84.8079 24.4668 84.8237 24.3548 84.8237ZM38.4728 43.8647C38.208 43.8647 37.9535 43.7629 37.7651 43.5796C37.566 43.3861 37.4591 43.1366 37.4545 42.8617C37.4494 42.5919 37.5513 42.3322 37.7402 42.1388C38.1164 41.7462 38.7889 41.7366 39.1805 42.1133C39.5827 42.5002 39.5934 43.1417 39.2064 43.5485C39.2064 43.5485 39.2064 43.5485 39.2064 43.5541C39.0125 43.7527 38.7523 43.8647 38.4728 43.8647Z" fill="#91B56B"/>
<path d="M64.6473 37.8755C72.949 47.8156 78.3987 62.9351 78.3987 73.4241C78.3987 88.7945 64.2995 92.4363 46.9078 92.4363C37.2304 92.4363 28.5768 91.305 22.7998 87.6566C27.4685 95.4172 38.7787 97.5275 51.9991 97.5275C69.3913 97.5275 83.4899 93.8857 83.4899 78.5153C83.4899 66.0076 75.7411 46.9175 64.6473 37.8755Z" fill="#648940"/>
<path d="M65.9512 38.9966C74.9474 48.866 80.9454 64.9655 80.9454 75.9697C80.9454 91.3401 66.8462 94.9819 49.4545 94.9819C38.8617 94.9819 29.4974 93.6246 23.7891 89.0954C28.9424 95.6819 39.6361 97.5275 52.0001 97.5275C69.3923 97.5275 83.491 93.8858 83.491 78.5153C83.491 66.5035 76.3439 48.4205 65.9512 38.9966Z" fill="#5A7A39"/>
<path d="M64.8501 43.8791C59.24 43.8791 54.6768 39.3153 54.6768 33.7058C54.6768 32.7216 55.4746 31.9238 56.4587 31.9238C57.4428 31.9238 58.2406 32.7216 58.2406 33.7058C58.2406 37.3501 61.2058 40.3152 64.8501 40.3152C65.8342 40.3152 66.632 41.113 66.632 42.0971C66.632 43.0813 65.8342 43.8791 64.8501 43.8791Z" fill="#F79219"/>
<path d="M57.6887 47.8675C57.3043 47.8675 56.9174 47.7443 56.5915 47.4892C52.1739 44.0323 51.3918 37.6255 54.8478 33.2073C55.4547 32.4314 56.5752 32.2955 57.3491 32.9013C58.124 33.5077 58.2609 34.6278 57.6551 35.4026C55.4093 38.2736 55.918 42.4357 58.7884 44.6819C59.5633 45.2883 59.6997 46.4089 59.0939 47.1838C58.7416 47.6328 58.2177 47.8675 57.6887 47.8675Z" fill="#F79219"/>
<path d="M62.5634 36.2025H41.4348C40.0555 36.2025 38.9375 35.0845 38.9375 33.7053C38.9375 32.326 40.0555 31.208 41.4348 31.208H62.5634C63.9426 31.208 65.0607 32.326 65.0607 33.7053C65.0607 35.0845 63.9426 36.2025 62.5634 36.2025Z" fill="#FFA91A"/>
<path d="M54.7748 86.3174H49.2254C44.5852 86.3174 40.8096 82.5422 40.8096 77.9021C40.8096 77.0849 41.4714 76.4231 42.2886 76.4231C43.1052 76.4231 43.7676 77.0849 43.7676 77.9021C43.7676 80.9115 46.2165 83.3599 49.2259 83.3599H54.7754C57.7848 83.3599 60.2337 80.9115 60.2337 77.9021V75.1269C60.2337 72.1174 57.7848 69.669 54.7754 69.669H49.2259C44.5857 69.669 40.8101 65.8939 40.8101 61.2532C40.8101 56.6126 44.5852 52.8374 49.2259 52.8374H54.7754C59.4155 52.8374 63.1912 56.6126 63.1912 61.2532C63.1912 62.0699 62.5293 62.7322 61.7122 62.7322C60.895 62.7322 60.2332 62.0704 60.2332 61.2532C60.2332 58.2438 57.7843 55.7949 54.7748 55.7949H49.2254C46.216 55.7949 43.7671 58.2438 43.7671 61.2532C43.7671 64.2627 46.216 66.7115 49.2254 66.7115H54.7748C59.415 66.7115 63.1907 70.4867 63.1907 75.1269V77.9021C63.1907 82.5422 59.415 86.3174 54.7748 86.3174Z" fill="white"/>
<path d="M51.9995 89.0924C51.1824 89.0924 50.5205 88.4306 50.5205 87.6134V51.542C50.5205 50.7254 51.1824 50.063 51.9995 50.063C52.8161 50.063 53.4785 50.7248 53.4785 51.542V87.6134C53.4785 88.4306 52.8167 89.0924 51.9995 89.0924Z" fill="white"/>
</g>
<defs>
<clipPath id="clip0_5574_10620">
<rect width="104" height="104" fill="white"/>
</clipPath>
</defs>
</svg>
