<svg width="124" height="104" viewBox="0 0 124 104" fill="none" xmlns="http://www.w3.org/2000/svg">
<g clip-path="url(#clip0_5574_10593)">
<path d="M97.1498 82.2261L97.8031 89.324H77.3916V78.9457C79.4819 74.7026 82.4886 74.0106 86.1404 76.3697L97.1498 82.2261ZM97.8031 82.8469L95.4457 67.986C92.7525 63.0333 93.3238 62.0099 97.1498 64.9232H97.1523L102.279 57.5015L106.831 46.2778L123.605 51.4645V89.324H114.66L106.769 88.3471L97.8031 82.8469Z" fill="#EF9D26"/>
<path d="M123.605 13.6074V51.4644H108.631C106.071 55.6213 102.944 55.665 99.2311 51.4644C90.9207 54.3236 91.1082 48.9913 94.8691 40.3731L86.3691 25.1039L100.958 21.7884L108.631 13.6074H123.605Z" fill="#F9B132"/>
<path d="M99.2311 51.4648L97.1494 64.9235H97.1519H108.631V51.4648H99.2311Z" fill="#C3DDDA"/>
<path d="M108.631 13.6074V27.066H94.869L84.9229 16.0098L94.869 13.6074H108.631Z" fill="#C3DDDA"/>
<path d="M94.8691 13.6077V16.7848C63.378 21.5211 31.8866 21.5211 0.395508 16.7848V6.85351C0.395508 3.06781 3.4658 0 7.2515 0H88.0131C91.7989 0 94.8691 3.06781 94.8691 6.85351V13.6077Z" fill="#655F68"/>
<path d="M75.3742 5.90479C76.7504 5.90479 77.8633 7.01764 77.8633 8.39133C77.8633 9.76749 76.7504 10.8804 75.3742 10.8804C74.0006 10.8804 72.8877 9.76749 72.8877 8.39133C72.8877 7.01764 74.0006 5.90479 75.3742 5.90479Z" fill="#6FCEAE"/>
<path d="M84.9226 5.90479C86.2963 5.90479 87.4116 7.01764 87.4116 8.39133C87.4116 9.76749 86.2963 10.8804 84.9226 10.8804C83.5489 10.8804 82.4336 9.76749 82.4336 8.39133C82.4336 7.01764 83.5489 5.90479 84.9226 5.90479Z" fill="#E15C63"/>
<path d="M59.5933 75.9176V91.3337C51.9206 99.6943 43.9256 99.1041 35.6719 91.3337V75.9176C41.7109 70.3188 49.3282 69.2877 59.5933 75.9176Z" fill="#524956"/>
<path d="M70.0807 91.334C72.7784 91.334 74.9669 93.5224 74.9669 96.2201C74.9669 97.5714 74.4204 98.7936 73.5361 99.6779C72.6517 100.562 71.4296 101.109 70.0807 101.109H25.1839C22.4862 101.109 20.2978 98.9203 20.2978 96.2201C20.2978 94.8713 20.8443 93.6491 21.7286 92.7648C22.6129 91.8804 23.8351 91.334 25.1839 91.334H35.6716H59.5931H70.0807ZM62.959 75.9179H59.5931H35.6716H7.2515C3.4658 75.9179 0.395508 72.8501 0.395508 69.0644V63.5051L9.16448 54.8916L26.7841 58.1942L52.1757 63.5051C61.1364 63.2827 65.4219 67.3096 62.959 75.9179Z" fill="#5D5560"/>
<path d="M0.395508 16.7847V63.5048H7.74832H25.241H52.1757L94.8691 40.3733V27.0662V16.7847H0.395508Z" fill="#E7F2F1"/>
<path d="M32.3682 47.249H51.6295C56.1547 50.0225 55.144 52.4382 50.5043 54.5993H32.3682V47.249Z" fill="#1EA6BC"/>
<path d="M25.2408 46.278V63.5049H7.74805V46.278C13.5786 33.1157 19.4094 33.1157 25.2408 46.278Z" fill="#F9B132"/>
<path d="M25.2408 23.6953H7.74805V46.2779H25.2408V23.6953Z" fill="#FFC05A"/>
<path d="M118.46 93.5446C120.776 96.1156 120.567 100.075 117.996 102.39C116.799 103.468 115.301 104 113.808 104C112.094 104 110.387 103.299 109.15 101.926L100.232 92.0218C98.7612 85.302 102.55 83.0966 109.543 83.6406L114.66 89.3241L118.46 93.5446Z" fill="#AD6A6A"/>
<path d="M95.4458 67.986L104.324 77.8477C104.596 85.7557 101.261 88.1977 95.016 86.2289L86.1405 76.3697C85.1076 68.8479 89.1422 66.9027 95.4458 67.986Z" fill="#AD6A6A"/>
<path d="M109.542 83.6405L100.232 92.0217L97.8027 89.324L95.0156 86.2289L104.323 77.8477L109.542 83.6405Z" fill="#655F68"/>
<path d="M99.2312 51.4648C99.3628 52.4907 99.4299 53.5365 99.4299 54.5997C99.4299 58.2885 98.6126 61.7861 97.1495 64.9234C96.6552 65.9891 96.0839 67.0125 95.4455 67.9863C93.1303 71.5236 89.9209 74.425 86.1402 76.37C83.4723 77.7437 80.5188 78.6379 77.3913 78.9459C76.5939 79.0254 75.7842 79.0652 74.9669 79.0652C70.6024 79.0652 66.5062 77.9225 62.959 75.9179C58.0778 73.1631 54.2374 68.7812 52.1757 63.505C51.0951 60.7453 50.5039 57.742 50.5039 54.5997C50.5039 52.0386 50.8964 49.5695 51.6292 47.2494C54.7492 37.3305 64.0172 30.1367 74.9669 30.1367C83.1693 30.1367 90.4301 34.1758 94.8692 40.3735C97.1644 43.5779 98.707 47.3636 99.2312 51.4648Z" fill="#655F68"/>
<path d="M74.9672 36.4062C85.0152 36.4062 93.1629 44.5515 93.1629 54.5995C93.1629 64.65 85.0152 72.7952 74.9672 72.7952C64.9192 72.7952 56.7715 64.65 56.7715 54.5995C56.7715 44.5515 64.9192 36.4062 74.9672 36.4062Z" fill="#E7F2F1"/>
<path d="M59.5933 75.918H35.6719V82.0387H59.5933V75.918Z" fill="#4A414F"/>
<path d="M105.034 87.6997L117.996 102.39C116.799 103.469 115.301 104 113.808 104C112.094 104 110.387 103.3 109.15 101.926L100.232 92.022L105.034 87.6997Z" fill="#A35757"/>
<path d="M99.8769 81.8521L105.034 87.6995L100.232 92.0218L97.8027 89.3241L95.0156 86.229L99.8769 81.8521Z" fill="#5D5560"/>
<path d="M99.8775 81.8523L95.0162 86.2292L86.1406 76.37C88.1502 75.3366 89.9959 74.0325 91.6329 72.5098L99.8775 81.8523Z" fill="#A35757"/>
<path d="M72.2348 63.2404C68.4501 62.0463 65.9072 58.5739 65.9072 54.5994C65.9072 52.9065 66.3767 51.2566 67.265 49.8283C67.5548 49.3622 67.412 48.7497 66.946 48.4598C66.48 48.1694 65.8672 48.313 65.5775 48.7787C64.4932 50.5223 63.9199 52.5349 63.9199 54.5994C63.9199 59.4455 67.021 63.6796 71.6369 65.1355C71.7363 65.1671 71.8371 65.182 71.936 65.182C72.358 65.182 72.7495 64.9109 72.8831 64.4869C73.0486 63.9635 72.7584 63.4054 72.2348 63.2404Z" fill="#D6EAE8"/>
<path d="M54.1637 22.3469C53.9779 22.055 53.6614 21.8776 53.3064 21.8871C52.9596 21.8935 52.6419 22.0803 52.4673 22.3797L43.9376 37.0021L37.407 27.3083C37.2095 27.0149 36.8697 26.8477 36.5189 26.8718C36.1662 26.8947 35.8522 27.1029 35.6942 27.4188L29.9585 38.8902C29.7133 39.3813 29.9121 39.978 30.4029 40.2234C30.5455 40.2947 30.6973 40.3285 30.8466 40.3285C31.211 40.3285 31.562 40.127 31.7361 39.779L36.7102 29.8306L43.174 39.4253C43.3652 39.7092 43.6872 39.8707 44.0302 39.8634C44.3718 39.8523 44.684 39.6662 44.8562 39.3711L53.3626 24.789L57.3559 31.0627C57.6503 31.5252 58.2641 31.6618 58.7276 31.3672C59.1904 31.0726 59.3268 30.4586 59.0322 29.9955L54.1637 22.3469Z" fill="#E15C63"/>
</g>
<defs>
<clipPath id="clip0_5574_10593">
<rect width="123.209" height="104" fill="white" transform="translate(0.395508)"/>
</clipPath>
</defs>
</svg>
