<svg width="9" height="15" viewBox="0 0 9 15" fill="none" xmlns="http://www.w3.org/2000/svg">
<path d="M8.34398 8.43779L8.76098 5.72279H6.16098V3.96079C6.14271 3.75805 6.17029 3.5538 6.24167 3.36316C6.31305 3.17252 6.42641 3.00039 6.57334 2.8595C6.72028 2.71862 6.89702 2.6126 7.09049 2.54929C7.28396 2.48599 7.48919 2.46702 7.69098 2.49379H8.87498V0.182791C8.17741 0.0702767 7.47252 0.00911237 6.76599 -0.000209253C6.28148 -0.0370829 5.79479 0.0330387 5.3404 0.205188C4.88601 0.377337 4.47503 0.647302 4.13659 0.995958C3.79814 1.34461 3.54051 1.76343 3.38194 2.22273C3.22336 2.68204 3.16773 3.17059 3.21898 3.65379V5.72279H0.833984V8.43779H3.21799V14.9998H6.15298V8.43779H8.34398Z" fill="#B5C4E4"/>
</svg>
