<svg width="161" height="63" viewBox="0 0 161 63" fill="none" xmlns="http://www.w3.org/2000/svg">
<path d="M85.4283 10.1348C85.0351 9.84704 84.5634 9.6862 84.0763 9.67383C83.5973 9.68312 83.1336 9.84457 82.7523 10.1348C82.5374 10.2926 82.3656 10.5018 82.2527 10.7433C82.1399 10.9848 82.0895 11.2508 82.1063 11.5168V36.5438C82.1063 37.6525 82.0656 38.8618 81.9843 40.1718C81.9075 41.4418 81.6909 42.6994 81.3383 43.9218C80.9964 45.0974 80.4441 46.2013 79.7083 47.1798C78.9125 48.2053 77.8172 48.9575 76.5743 49.3318C76.0503 49.4719 75.5725 49.7479 75.1893 50.1318C74.9599 50.4313 74.8409 50.8008 74.8523 51.1778C74.8524 51.6358 75.0039 52.0809 75.2833 52.4438C75.4339 52.6397 75.6306 52.7952 75.8558 52.8968C76.081 52.9983 76.3279 53.0426 76.5743 53.0258C78.0192 53.0452 79.4344 52.6161 80.6253 51.7978C81.8412 50.949 82.8585 49.8467 83.6073 48.5668C84.4433 47.1468 85.0653 45.6113 85.4533 44.0098C85.886 42.2914 86.103 40.5259 86.0993 38.7538V11.5148C86.1154 11.2466 86.0621 10.9787 85.9446 10.737C85.8271 10.4952 85.6492 10.2879 85.4283 10.1348Z" fill="white"/>
<path d="M70.7645 15.2724C69.77 13.9375 68.5021 12.8302 67.0455 12.0244C65.3646 11.1241 63.4775 10.679 61.5715 10.7334C59.786 10.7298 58.0149 11.0524 56.3455 11.6854C54.6372 12.3375 53.0402 13.2503 51.6115 14.3914C50.0767 15.6189 48.7028 17.0351 47.5225 18.6064C46.2278 20.3106 45.1414 22.1634 44.2865 24.1254V14.1654C44.302 13.8956 44.2477 13.6264 44.1288 13.3838C44.0098 13.1412 43.8303 12.9333 43.6075 12.7804C43.2143 12.4926 42.7426 12.3318 42.2555 12.3194C41.7771 12.3291 41.3142 12.4906 40.9335 12.7804C40.7183 12.9386 40.5463 13.1483 40.4334 13.3903C40.3205 13.6324 40.2703 13.8989 40.2875 14.1654V36.4854H20.9195V19.8854C21.0721 16.8368 20.2179 13.8226 18.4885 11.3074C17.6964 10.25 16.6574 9.40275 15.4622 8.83969C14.267 8.27662 12.9521 8.01491 11.6325 8.07742C11.3632 8.06177 11.0945 8.11596 10.8523 8.23475C10.6102 8.35355 10.4029 8.5329 10.2505 8.75541C9.96268 9.14861 9.80184 9.62032 9.78947 10.1074C9.79918 10.5858 9.96061 11.0487 10.2505 11.4294C10.408 11.6445 10.6172 11.8165 10.8587 11.9294C11.1003 12.0423 11.3664 12.0925 11.6325 12.0754C12.5346 12.1182 13.4054 12.4191 14.1415 12.9424C14.8775 13.4657 15.4478 14.1894 15.7845 15.0274C16.618 17.2068 17.0047 19.5316 16.9215 21.8634V36.4974H2.48046C2.22628 36.4836 1.97262 36.5325 1.74175 36.6398C1.51089 36.747 1.3099 36.9093 1.15646 37.1124C0.85885 37.4769 0.696289 37.9329 0.696289 38.4034C0.696289 38.8739 0.85885 39.33 1.15646 39.6944C1.30996 39.8975 1.51096 40.0597 1.74181 40.167C1.97265 40.2742 2.22629 40.3231 2.48046 40.3094H59.7865C62.1412 40.4036 64.4779 39.8623 66.5515 38.7424C68.2433 37.7643 69.6846 36.4062 70.7615 34.7754C71.8012 33.1904 72.5408 31.4278 72.9435 29.5754C73.3373 27.85 73.5435 26.0871 73.5585 24.3174C73.5533 22.7329 73.3292 21.1566 72.8925 19.6334C72.4518 18.0634 71.7308 16.586 70.7645 15.2724ZM69.0125 29.1084C68.7341 30.499 68.1909 31.823 67.4125 33.0084C66.6668 34.1022 65.6495 34.9834 64.4605 35.5654C63.0334 36.2216 61.4734 36.5372 59.9035 36.4874H44.2845V31.5154C44.9249 29.6934 45.6636 27.9074 46.4975 26.1654C47.4488 24.1432 48.6252 22.2348 50.0045 20.4764C51.377 18.7113 53.0405 17.1932 54.9235 15.9874C56.8726 14.7606 59.1378 14.1304 61.4405 14.1744C62.7106 14.1421 63.9651 14.4612 65.0655 15.0964C66.0728 15.6903 66.9371 16.4984 67.5975 17.4634C68.2629 18.4475 68.7522 19.5397 69.0435 20.6914C69.3429 21.8148 69.4978 22.9718 69.5045 24.1344C69.5153 25.8046 69.3494 27.4712 69.0095 29.1064L69.0125 29.1084Z" fill="white"/>
<path d="M98.5818 0C98.1197 0.000530036 97.6766 0.184499 97.3499 0.511505C97.0233 0.838511 96.8398 1.28181 96.8398 1.744V61.033C96.8398 61.2618 96.8849 61.4883 96.9725 61.6996C97.06 61.911 97.1883 62.103 97.3501 62.2648C97.5118 62.4265 97.7039 62.5549 97.9152 62.6424C98.1266 62.7299 98.3531 62.775 98.5818 62.775C98.8106 62.775 99.0372 62.7299 99.2485 62.6424C99.4599 62.5549 99.6519 62.4265 99.8136 62.2648C99.9754 62.103 100.104 61.911 100.191 61.6996C100.279 61.4883 100.324 61.2618 100.324 61.033V1.744C100.324 1.28181 100.14 0.838511 99.8138 0.511505C99.4871 0.184499 99.044 0.000530036 98.5818 0Z" fill="#47B652"/>
<path d="M148.72 27.6518C149.706 31.8264 149.151 36.2169 147.157 40.015C145.163 43.813 141.864 46.7629 137.868 48.3215C133.872 49.8802 129.447 49.9427 125.408 48.4976C121.369 47.0524 117.988 44.1969 115.888 40.4567C113.787 36.7165 113.108 32.3434 113.977 28.1426C114.845 23.9417 117.201 20.1959 120.612 17.5947C124.023 14.9934 128.259 13.712 132.54 13.9861C136.821 14.2603 140.858 16.0717 143.91 19.0868L146.509 16.7498C142.845 13.0573 137.952 10.8399 132.76 10.5189C127.568 10.198 122.439 11.796 118.348 15.0092C114.257 18.2223 111.489 22.8266 110.571 27.9469C109.652 33.0672 110.647 38.3464 113.366 42.7812C116.085 47.216 120.339 50.4971 125.319 52.0008C130.299 53.5046 135.658 53.1262 140.377 50.9376C145.096 48.7489 148.846 44.9026 150.915 40.1297C152.984 35.3568 153.227 29.9902 151.598 25.0498L148.72 27.6518Z" fill="white"/>
<path d="M159.968 10.7552C159.857 10.6221 159.72 10.5132 159.565 10.4353C159.41 10.3574 159.241 10.3121 159.068 10.3022C158.727 10.2742 158.388 10.382 158.126 10.6022L148.366 18.9022L145.705 21.1652L130.638 33.9832L123.121 26.8592C123.042 26.7869 122.952 26.7287 122.853 26.6872C122.635 26.5552 122.381 26.4923 122.127 26.5067C121.872 26.5212 121.627 26.6123 121.425 26.7682C121.193 26.9449 121.027 27.1942 120.953 27.4764C120.879 27.7585 120.902 28.0574 121.017 28.3252C121.059 28.4253 121.115 28.5191 121.182 28.6042L122.053 29.7532L128.036 37.6012L128.826 38.6472L128.978 38.8222C129.125 38.9792 129.296 39.1125 129.484 39.2172C129.738 39.3681 130.025 39.4549 130.32 39.4702C130.63 39.5097 130.944 39.4789 131.24 39.3802C131.536 39.2815 131.805 39.1175 132.029 38.9002L132.11 38.8192L147.553 24.2132L150.191 21.7132L151.691 20.2952L159.291 13.1022L159.896 12.5322C160.139 12.3029 160.284 11.9892 160.301 11.656C160.319 11.3228 160.207 10.9956 159.99 10.7422L159.968 10.7552Z" fill="#47B652"/>
</svg>
