<svg width="16" height="15" viewBox="0 0 16 15" fill="none" xmlns="http://www.w3.org/2000/svg">
<path d="M8.33648 3.65345C7.57582 3.65345 6.83223 3.87902 6.19976 4.30162C5.56729 4.72422 5.07434 5.32489 4.78324 6.02765C4.49215 6.73042 4.41599 7.50372 4.56438 8.24977C4.71278 8.99582 5.07908 9.68111 5.61695 10.219C6.15482 10.7569 6.84012 11.1232 7.58617 11.2716C8.33222 11.42 9.10552 11.3438 9.80828 11.0527C10.511 10.7616 11.1117 10.2686 11.5343 9.63618C11.9569 9.00371 12.1825 8.26012 12.1825 7.49945C12.1833 6.99417 12.0843 6.49369 11.8913 6.02672C11.6983 5.55974 11.4151 5.13545 11.0578 4.77816C10.7005 4.42087 10.2762 4.1376 9.80922 3.9446C9.34224 3.7516 8.84177 3.65266 8.33648 3.65345ZM8.33648 9.99945C7.84203 9.99945 7.35868 9.85283 6.94756 9.57813C6.53644 9.30342 6.216 8.91298 6.02679 8.45616C5.83757 7.99935 5.78806 7.49668 5.88452 7.01173C5.98098 6.52677 6.21909 6.08132 6.56872 5.73169C6.91835 5.38205 7.36381 5.14395 7.84876 5.04749C8.33371 4.95103 8.83638 5.00054 9.29319 5.18975C9.75001 5.37897 10.1405 5.6994 10.4152 6.11053C10.6899 6.52165 10.8365 7.005 10.8365 7.49945C10.8365 8.1625 10.5731 8.79838 10.1043 9.26722C9.63541 9.73606 8.99953 9.99945 8.33648 9.99945ZM13.2365 3.49945C13.2365 3.67746 13.1837 3.85146 13.0848 3.99947C12.9859 4.14747 12.8454 4.26283 12.6809 4.33094C12.5164 4.39906 12.3355 4.41689 12.1609 4.38216C11.9863 4.34743 11.826 4.26172 11.7001 4.13585C11.5742 4.00998 11.4885 3.84962 11.4538 3.67503C11.4191 3.50045 11.4369 3.31949 11.505 3.15504C11.5731 2.99058 11.6885 2.85003 11.8365 2.75113C11.9845 2.65224 12.1585 2.59945 12.3365 2.59945C12.4546 2.59879 12.5717 2.62152 12.681 2.66633C12.7903 2.71114 12.8896 2.77714 12.9733 2.86052C13.057 2.94391 13.1233 3.04304 13.1685 3.15218C13.2136 3.26132 13.2368 3.37833 13.2365 3.49645V3.49945ZM15.7835 4.40945C15.8081 3.24324 15.3728 2.11418 14.5715 1.26645C13.7221 0.467863 12.5942 0.0329169 11.4285 0.0544531C10.1905 -0.0155469 6.47848 -0.0155469 5.23948 0.0544531C4.07426 0.0311978 2.94618 0.464772 2.09648 1.26246C1.29783 2.11088 0.863438 3.23849 0.886484 4.40345C0.816484 5.64145 0.816484 9.35345 0.886484 10.5925C0.861834 11.7587 1.29722 12.8877 2.09848 13.7355C2.94824 14.5335 4.07593 14.9684 5.24148 14.9475C6.47948 15.0175 10.1915 15.0175 11.4305 14.9475C12.5967 14.9721 13.7258 14.5367 14.5735 13.7355C15.3721 12.886 15.807 11.7581 15.7855 10.5925C15.8545 9.35345 15.8545 5.64545 15.7845 4.40645L15.7835 4.40945ZM14.1835 11.9235C14.0562 12.2462 13.864 12.5393 13.6186 12.7846C13.3733 13.0299 13.0802 13.2222 12.7575 13.3495C11.3036 13.6475 9.81627 13.7484 8.33548 13.6495C6.8547 13.7468 5.36755 13.646 3.91348 13.3495C3.59075 13.2222 3.29763 13.0299 3.05232 12.7846C2.80702 12.5393 2.61476 12.2462 2.48748 11.9235C2.18944 10.4696 2.08854 8.98224 2.18748 7.50145C2.09009 6.02067 2.19099 4.53351 2.48748 3.07945C2.61476 2.75672 2.80702 2.4636 3.05232 2.21829C3.29763 1.97298 3.59075 1.78073 3.91348 1.65345C5.36734 1.35541 6.8547 1.25451 8.33548 1.35345C9.81627 1.25606 11.3034 1.35696 12.7575 1.65345C13.0799 1.78005 13.3729 1.97149 13.6184 2.21592C13.8639 2.46034 14.0565 2.75255 14.1845 3.07446C14.4825 4.52831 14.5834 6.01567 14.4845 7.49645C14.5838 8.97823 14.4829 10.4666 14.1845 11.9215L14.1835 11.9235Z" fill="#B5C4E4"/>
</svg>
