<svg width="104" height="104" viewBox="0 0 104 104" fill="none" xmlns="http://www.w3.org/2000/svg">
<path d="M25.9999 36.3999H43.3333C43.793 36.3999 44.2339 36.5825 44.5589 36.9076C44.884 37.2326 45.0666 37.6735 45.0666 38.1332V55.4666H24.2666V38.1332C24.2666 37.6735 24.4492 37.2326 24.7743 36.9076C25.0993 36.5825 25.5402 36.3999 25.9999 36.3999Z" fill="#E69B45"/>
<path d="M31.2002 36.3999H38.1335V43.3332C38.1335 43.7929 37.9509 44.2338 37.6258 44.5589C37.3008 44.884 36.8599 45.0666 36.4002 45.0666H32.9335C32.4738 45.0666 32.0329 44.884 31.7079 44.5589C31.3828 44.2338 31.2002 43.7929 31.2002 43.3332V36.3999Z" fill="#FFCB92"/>
<path d="M57.2001 36.3999H74.5335C74.9932 36.3999 75.4341 36.5825 75.7591 36.9076C76.0842 37.2326 76.2668 37.6735 76.2668 38.1332V55.4666H55.4668V38.1332C55.4668 37.6735 55.6494 37.2326 55.9745 36.9076C56.2995 36.5825 56.7404 36.3999 57.2001 36.3999Z" fill="#E69B45"/>
<path d="M62.4004 36.3999H69.3337V43.3332C69.3337 43.7929 69.1511 44.2338 68.826 44.5589C68.501 44.884 68.0601 45.0666 67.6004 45.0666H64.1337C63.674 45.0666 63.2331 44.884 62.9081 44.5589C62.583 44.2338 62.4004 43.7929 62.4004 43.3332V36.3999Z" fill="#FFCB92"/>
<path d="M29.4667 67.6001H46.8001C47.2598 67.6001 47.7007 67.7827 48.0257 68.1078C48.3508 68.4328 48.5334 68.8737 48.5334 69.3334V86.6668H27.7334V69.3334C27.7334 68.8737 27.916 68.4328 28.2411 68.1078C28.5661 67.7827 29.007 67.6001 29.4667 67.6001Z" fill="#E69B45"/>
<path d="M34.667 67.6001H41.6003V74.5334C41.6003 74.9931 41.4177 75.434 41.0926 75.7591C40.7676 76.0841 40.3267 76.2668 39.867 76.2668H36.4003C35.9406 76.2668 35.4997 76.0841 35.1747 75.7591C34.8496 75.434 34.667 74.9931 34.667 74.5334V67.6001Z" fill="#FFCB92"/>
<path d="M60.6669 67.6001H78.0003C78.46 67.6001 78.9008 67.7827 79.2259 68.1078C79.551 68.4328 79.7336 68.8737 79.7336 69.3334V86.6668H58.9336V69.3334C58.9336 68.8737 59.1162 68.4328 59.4413 68.1078C59.7663 67.7827 60.2072 67.6001 60.6669 67.6001Z" fill="#E69B45"/>
<path d="M65.8662 67.6001H72.7995V74.5334C72.7995 74.9931 72.6169 75.434 72.2919 75.7591C71.9668 76.0841 71.5259 76.2668 71.0662 76.2668H67.5995C67.1398 76.2668 66.699 76.0841 66.3739 75.7591C66.0488 75.434 65.8662 74.9931 65.8662 74.5334V67.6001Z" fill="#FFCB92"/>
<path d="M34.6669 5.2002H52.0003C52.46 5.2002 52.9008 5.38281 53.2259 5.70788C53.551 6.03294 53.7336 6.47382 53.7336 6.93353V24.2669H32.9336V6.93353C32.9336 6.47382 33.1162 6.03294 33.4413 5.70788C33.7663 5.38281 34.2072 5.2002 34.6669 5.2002Z" fill="#E69B45"/>
<path d="M98.8001 22.5332H5.20007C3.28548 22.5332 1.7334 24.0853 1.7334 25.9999C1.7334 27.9145 3.28548 29.4665 5.20007 29.4665H98.8001C100.715 29.4665 102.267 27.9145 102.267 25.9999C102.267 24.0853 100.715 22.5332 98.8001 22.5332Z" fill="#BFDBF0"/>
<path d="M98.8001 53.7334H5.20007C3.28548 53.7334 1.7334 55.2855 1.7334 57.2001C1.7334 59.1147 3.28548 60.6667 5.20007 60.6667H98.8001C100.715 60.6667 102.267 59.1147 102.267 57.2001C102.267 55.2855 100.715 53.7334 98.8001 53.7334Z" fill="#BFDBF0"/>
<path d="M98.8001 84.9331H5.20007C3.28548 84.9331 1.7334 86.4852 1.7334 88.3998C1.7334 90.3144 3.28548 91.8664 5.20007 91.8664H98.8001C100.715 91.8664 102.267 90.3144 102.267 88.3998C102.267 86.4852 100.715 84.9331 98.8001 84.9331Z" fill="#BFDBF0"/>
<path d="M15.6003 5.20007C15.6003 3.28548 14.0482 1.7334 12.1337 1.7334C10.2191 1.7334 8.66699 3.28548 8.66699 5.20007V98.8001C8.66699 100.715 10.2191 102.267 12.1337 102.267C14.0482 102.267 15.6003 100.715 15.6003 98.8001V5.20007Z" fill="#9EBBCE"/>
<path d="M95.3337 5.20007C95.3337 3.28548 93.7816 1.7334 91.8671 1.7334C89.9525 1.7334 88.4004 3.28548 88.4004 5.20007V98.8001C88.4004 100.715 89.9525 102.267 91.8671 102.267C93.7816 102.267 95.3337 100.715 95.3337 98.8001V5.20007Z" fill="#9EBBCE"/>
<path d="M39.8662 5.2002H46.7995V12.1335C46.7995 12.5932 46.6169 13.0341 46.2919 13.3592C45.9668 13.6842 45.5259 13.8669 45.0662 13.8669H41.5995C41.1398 13.8669 40.699 13.6842 40.3739 13.3592C40.0488 13.0341 39.8662 12.5932 39.8662 12.1335V5.2002Z" fill="#FFCB92"/>
</svg>
