<svg width="57" height="56" viewBox="0 0 57 56" fill="none" xmlns="http://www.w3.org/2000/svg">
<path d="M50.375 2.625H22.375C20.442 2.625 18.875 4.192 18.875 6.125V49.875C18.875 51.808 20.442 53.375 22.375 53.375H50.375C52.308 53.375 53.875 51.808 53.875 49.875V6.125C53.875 4.192 52.308 2.625 50.375 2.625Z" fill="#E9F1F2"/>
<path d="M53.875 47.25V49.875C53.875 50.8033 53.5062 51.6935 52.8499 52.3499C52.1935 53.0062 51.3033 53.375 50.375 53.375H22.375C21.4467 53.375 20.5565 53.0062 19.9001 52.3499C19.2437 51.6935 18.875 50.8033 18.875 49.875V6.125C18.875 5.19674 19.2437 4.3065 19.9001 3.65013C20.5565 2.99375 21.4467 2.625 22.375 2.625H24.125C24.1238 2.85478 24.1689 3.08245 24.2576 3.29442C24.3463 3.50639 24.4767 3.69832 24.6413 3.85875C24.8017 4.02325 24.9936 4.15375 25.2056 4.24244C25.4176 4.33114 25.6452 4.37622 25.875 4.375H50.375C50.8387 4.37638 51.283 4.5612 51.6109 4.88909C51.9388 5.21698 52.1236 5.6613 52.125 6.125V45.5C52.1264 45.9637 52.3112 46.408 52.6391 46.7359C52.967 47.0638 53.4113 47.2486 53.875 47.25Z" fill="#D0D8DA"/>
<path d="M22.375 6.125H50.375V49.875H22.375V6.125Z" fill="#ADE8F4"/>
<path d="M22.375 6.125V49.875H50.375V6.125H22.375ZM47.75 34.125C47.75 35.0533 47.3813 35.9435 46.7249 36.5999C46.0685 37.2563 45.1783 37.625 44.25 37.625H40.75C37.5011 37.625 34.3853 36.3344 32.0879 34.0371C29.7906 31.7397 28.5 28.6239 28.5 25.375V12.25C28.5 11.3217 28.8687 10.4315 29.5251 9.77513C30.1815 9.11875 31.0717 8.75 32 8.75H44.25C45.1783 8.75 46.0685 9.11875 46.7249 9.77513C47.3813 10.4315 47.75 11.3217 47.75 12.25V34.125Z" fill="#48CAE4"/>
<path d="M30.25 21C32.183 21 33.75 19.433 33.75 17.5C33.75 15.567 32.183 14 30.25 14C28.317 14 26.75 15.567 26.75 17.5C26.75 19.433 28.317 21 30.25 21Z" fill="#FF7373"/>
<path d="M30.25 31.5C32.183 31.5 33.75 29.933 33.75 28C33.75 26.067 32.183 24.5 30.25 24.5C28.317 24.5 26.75 26.067 26.75 28C26.75 29.933 28.317 31.5 30.25 31.5Z" fill="#FF7373"/>
<path d="M30.25 42C32.183 42 33.75 40.433 33.75 38.5C33.75 36.567 32.183 35 30.25 35C28.317 35 26.75 36.567 26.75 38.5C26.75 40.433 28.317 42 30.25 42Z" fill="#EF5350"/>
<path d="M28.5001 14.4727V20.5277C27.9682 20.2212 27.5264 19.7801 27.2192 19.2486C26.912 18.7171 26.7502 18.114 26.7502 17.5002C26.7502 16.8863 26.912 16.2832 27.2192 15.7517C27.5264 15.2202 27.9682 14.7791 28.5001 14.4727ZM30.1451 31.4914C29.3845 31.4701 28.6517 31.201 28.058 30.725C27.4644 30.249 27.0424 29.5922 26.8562 28.8544C26.67 28.1167 26.7298 27.3383 27.0266 26.6376C27.3233 25.9369 27.8407 25.3523 28.5001 24.9727V25.3752C28.4964 27.5237 29.0641 29.6346 30.1451 31.4914Z" fill="#EF5350"/>
<path d="M30.25 18.3751C30.0607 18.3751 29.8765 18.3137 29.725 18.2001L26.225 15.5751C26.0394 15.4359 25.9166 15.2286 25.8838 14.9989C25.851 14.7691 25.9108 14.5358 26.05 14.3501C26.1892 14.1645 26.3965 14.0417 26.6263 14.0089C26.856 13.9761 27.0894 14.0359 27.275 14.1751L30.2798 16.4282L35.0144 13.2721C35.11 13.2083 35.2172 13.164 35.3299 13.1417C35.4427 13.1194 35.5587 13.1194 35.6714 13.1419C35.7841 13.1645 35.8912 13.2089 35.9867 13.2729C36.0823 13.3368 36.1642 13.4189 36.228 13.5145C36.2918 13.6101 36.3361 13.7173 36.3584 13.83C36.3808 13.9428 36.3807 14.0588 36.3582 14.1715C36.3357 14.2842 36.2912 14.3913 36.2273 14.4869C36.1633 14.5824 36.0812 14.6643 35.9856 14.7281L30.7356 18.2281C30.5918 18.324 30.4228 18.3751 30.25 18.3751ZM30.25 28.8751C30.0607 28.8751 29.8765 28.8137 29.725 28.7001L26.225 26.0751C26.0394 25.9359 25.9166 25.7286 25.8838 25.4989C25.851 25.2691 25.9108 25.0358 26.05 24.8501C26.1892 24.6645 26.3965 24.5417 26.6263 24.5089C26.856 24.4761 27.0894 24.5359 27.275 24.6751L30.2798 26.9282L35.0144 23.7721C35.11 23.7083 35.2172 23.664 35.3299 23.6417C35.4427 23.6194 35.5587 23.6194 35.6714 23.6419C35.7841 23.6645 35.8912 23.7089 35.9867 23.7729C36.0823 23.8368 36.1642 23.9189 36.228 24.0145C36.2918 24.1101 36.3361 24.2173 36.3584 24.33C36.3808 24.4428 36.3807 24.5588 36.3582 24.6715C36.3357 24.7842 36.2912 24.8913 36.2273 24.9869C36.1633 25.0824 36.0812 25.1643 35.9856 25.2281L30.7356 28.7281C30.5918 28.824 30.4228 28.8751 30.25 28.8751ZM30.25 39.3751C30.0489 39.3752 29.8539 39.3059 29.6979 39.1791L26.2311 36.3599C26.1418 36.2874 26.0677 36.198 26.013 36.0968C25.9582 35.9957 25.924 35.8847 25.9121 35.7703C25.9002 35.6559 25.911 35.5403 25.9438 35.4301C25.9767 35.3198 26.0309 35.2171 26.1034 35.1279C26.1759 35.0386 26.2653 34.9644 26.3664 34.9097C26.4676 34.855 26.5785 34.8207 26.6929 34.8088C26.8073 34.797 26.9229 34.8078 27.0332 34.8406C27.1434 34.8734 27.2461 34.9276 27.3354 35.0001L30.3016 37.4125L35.0144 34.2704C35.11 34.2066 35.2172 34.1623 35.3299 34.1399C35.4427 34.1176 35.5587 34.1177 35.6714 34.1402C35.7841 34.1627 35.8912 34.2072 35.9867 34.2711C36.0823 34.335 36.1642 34.4171 36.228 34.5127C36.2918 34.6083 36.3361 34.7156 36.3584 34.8283C36.3808 34.941 36.3807 35.057 36.3582 35.1697C36.3357 35.2824 36.2912 35.3896 36.2273 35.4851C36.1633 35.5806 36.0812 35.6626 35.9856 35.7264L30.7356 39.2264C30.592 39.3229 30.423 39.3746 30.25 39.3751ZM46 21.0001H36.375C36.1429 21.0001 35.9204 20.9079 35.7563 20.7438C35.5922 20.5797 35.5 20.3572 35.5 20.1251C35.5 19.893 35.5922 19.6705 35.7563 19.5064C35.9204 19.3423 36.1429 19.2501 36.375 19.2501H46C46.2321 19.2501 46.4546 19.3423 46.6187 19.5064C46.7828 19.6705 46.875 19.893 46.875 20.1251C46.875 20.3572 46.7828 20.5797 46.6187 20.7438C46.4546 20.9079 46.2321 21.0001 46 21.0001ZM46 31.5001H36.375C36.1429 31.5001 35.9204 31.4079 35.7563 31.2438C35.5922 31.0797 35.5 30.8572 35.5 30.6251C35.5 30.393 35.5922 30.1705 35.7563 30.0064C35.9204 29.8423 36.1429 29.7501 36.375 29.7501H46C46.2321 29.7501 46.4546 29.8423 46.6187 30.0064C46.7828 30.1705 46.875 30.393 46.875 30.6251C46.875 30.8572 46.7828 31.0797 46.6187 31.2438C46.4546 31.4079 46.2321 31.5001 46 31.5001Z" fill="#FFD000"/>
<path d="M46 42H36.375C36.1429 42 35.9204 41.9078 35.7563 41.7437C35.5922 41.5796 35.5 41.3571 35.5 41.125C35.5 40.8929 35.5922 40.6704 35.7563 40.5063C35.9204 40.3422 36.1429 40.25 36.375 40.25H46C46.2321 40.25 46.4546 40.3422 46.6187 40.5063C46.7828 40.6704 46.875 40.8929 46.875 41.125C46.875 41.3571 46.7828 41.5796 46.6187 41.7437C46.4546 41.9078 46.2321 42 46 42Z" fill="#FFB700"/>
<path d="M46 17.5H37.25C37.0179 17.5 36.7954 17.4078 36.6313 17.2437C36.4672 17.0796 36.375 16.8571 36.375 16.625C36.375 16.3929 36.4672 16.1704 36.6313 16.0063C36.7954 15.8422 37.0179 15.75 37.25 15.75H46C46.2321 15.75 46.4546 15.8422 46.6187 16.0063C46.7828 16.1704 46.875 16.3929 46.875 16.625C46.875 16.8571 46.7828 17.0796 46.6187 17.2437C46.4546 17.4078 46.2321 17.5 46 17.5ZM46 28H38.125C37.8929 28 37.6704 27.9078 37.5063 27.7437C37.3422 27.5796 37.25 27.3571 37.25 27.125C37.25 26.8929 37.3422 26.6704 37.5063 26.5063C37.6704 26.3422 37.8929 26.25 38.125 26.25H46C46.2321 26.25 46.4546 26.3422 46.6187 26.5063C46.7828 26.6704 46.875 26.8929 46.875 27.125C46.875 27.3571 46.7828 27.5796 46.6187 27.7437C46.4546 27.9078 46.2321 28 46 28ZM45.125 38.5H38.125C37.8929 38.5 37.6704 38.4078 37.5063 38.2437C37.3422 38.0796 37.25 37.8571 37.25 37.625C37.25 37.3929 37.3422 37.1704 37.5063 37.0063C37.6704 36.8422 37.8929 36.75 38.125 36.75H45.125C45.3571 36.75 45.5796 36.8422 45.7437 37.0063C45.9078 37.1704 46 37.3929 46 37.625C46 37.8571 45.9078 38.0796 45.7437 38.2437C45.5796 38.4078 45.3571 38.5 45.125 38.5Z" fill="#FFD000"/>
<path d="M44.25 10.5H34.625C34.3929 10.5 34.1704 10.4078 34.0063 10.2437C33.8422 10.0796 33.75 9.85706 33.75 9.625C33.75 9.39294 33.8422 9.17038 34.0063 9.00628C34.1704 8.84219 34.3929 8.75 34.625 8.75H44.25C44.4821 8.75 44.7046 8.84219 44.8687 9.00628C45.0328 9.17038 45.125 9.39294 45.125 9.625C45.125 9.85706 45.0328 10.0796 44.8687 10.2437C44.7046 10.4078 44.4821 10.5 44.25 10.5ZM32 10.5H29.375C29.1429 10.5 28.9204 10.4078 28.7563 10.2437C28.5922 10.0796 28.5 9.85706 28.5 9.625C28.5 9.39294 28.5922 9.17038 28.7563 9.00628C28.9204 8.84219 29.1429 8.75 29.375 8.75H32C32.2321 8.75 32.4546 8.84219 32.6187 9.00628C32.7828 9.17038 32.875 9.39294 32.875 9.625C32.875 9.85706 32.7828 10.0796 32.6187 10.2437C32.4546 10.4078 32.2321 10.5 32 10.5Z" fill="#E9F1F2"/>
<path d="M28.5 15.0938V17.2813L26.225 15.575C26.0394 15.4358 25.9166 15.2285 25.8838 14.9987C25.851 14.769 25.9108 14.5357 26.05 14.35C26.1892 14.1644 26.3965 14.0416 26.6263 14.0088C26.856 13.976 27.0894 14.0358 27.275 14.175L28.5 15.0938ZM28.78 27.9913L26.225 26.075C26.0394 25.9358 25.9166 25.7285 25.8838 25.4987C25.851 25.269 25.9108 25.0357 26.05 24.85C26.1892 24.6644 26.3965 24.5416 26.6263 24.5088C26.856 24.476 27.0894 24.5358 27.275 24.675L28.5088 25.6025C28.5182 26.4059 28.6091 27.2062 28.78 27.9913ZM35.1588 36.2775L30.7313 39.2263C30.5891 39.3224 30.4216 39.3741 30.25 39.375C30.0502 39.3726 29.8566 39.305 29.6988 39.1825L26.2338 36.3563C26.1441 36.2849 26.0694 36.1964 26.0142 36.096C25.959 35.9956 25.9242 35.8852 25.912 35.7712C25.8998 35.6572 25.9104 35.542 25.9431 35.4321C25.9758 35.3223 26.03 35.22 26.1025 35.1313C26.1747 35.0414 26.264 34.9666 26.3652 34.9114C26.4663 34.8561 26.5774 34.8213 26.6921 34.8092C26.8067 34.797 26.9227 34.8075 27.0332 34.8403C27.1438 34.873 27.2468 34.9273 27.3363 35L30.3025 37.415L33.5313 35.2625C34.0459 35.6436 34.5901 35.983 35.1588 36.2775ZM46 37.625C46 37.8571 45.9078 38.0796 45.7437 38.2437C45.5796 38.4078 45.3571 38.5 45.125 38.5H38.125C37.9681 38.4997 37.8141 38.4573 37.6792 38.377C37.5443 38.2968 37.4335 38.1818 37.3583 38.044C37.2831 37.9062 37.2464 37.7508 37.252 37.5939C37.2576 37.4371 37.3053 37.2846 37.39 37.1525C38.4825 37.466 39.6134 37.6251 40.75 37.625H44.25C44.8239 37.6259 45.3891 37.4846 45.895 37.2138C45.9654 37.3393 46.0016 37.4811 46 37.625Z" fill="#FFB700"/>
<path d="M31.9999 8.75001C31.4009 8.74891 30.8117 8.9021 30.2891 9.19482C29.7665 9.48754 29.3281 9.90991 29.0161 10.4213C28.8346 10.3386 28.6868 10.1963 28.5972 10.0181C28.5076 9.83988 28.4815 9.63639 28.5234 9.44135C28.5653 9.24632 28.6725 9.07144 28.8274 8.9457C28.9822 8.81997 29.1754 8.75092 29.3749 8.75001H31.9999Z" fill="#D0D8DA"/>
<path d="M3.125 16.625H15.375V28.875H3.125V16.625Z" fill="#FFD000"/>
<path d="M7.5 16.625H11V20.125H7.5V16.625Z" fill="#FFEA00"/>
<path d="M15.375 26.25V28.875H3.125V16.625H5.75V19.25C5.75 21.1065 6.4875 22.887 7.80025 24.1997C9.11301 25.5125 10.8935 26.25 12.75 26.25H15.375Z" fill="#FFB700"/>
<path d="M3.125 28.875H15.375V41.125H3.125V28.875Z" fill="#FFD000"/>
<path d="M7.5 28.875H11V32.375H7.5V28.875Z" fill="#FFEA00"/>
<path d="M15.375 38.5V41.125H3.125V28.875H5.75V31.5C5.75 33.3565 6.4875 35.137 7.80025 36.4497C9.11301 37.7625 10.8935 38.5 12.75 38.5H15.375Z" fill="#FFB700"/>
<path d="M3.125 41.125H15.375V53.375H3.125V41.125Z" fill="#FFD000"/>
<path d="M7.5 41.125H11V44.625H7.5V41.125Z" fill="#FFEA00"/>
<path d="M15.375 50.75V53.375H3.125V41.125H5.75V43.75C5.75 45.6065 6.4875 47.387 7.80025 48.6997C9.11301 50.0125 10.8935 50.75 12.75 50.75H15.375Z" fill="#FFB700"/>
<path d="M15.375 28.875H27.625V41.125H15.375V28.875Z" fill="#FFD000"/>
<path d="M19.75 28.875H23.25V32.375H19.75V28.875Z" fill="#FFEA00"/>
<path d="M27.625 38.5V41.125H15.375V28.875H18V31.5C18 33.3565 18.7375 35.137 20.0503 36.4497C21.363 37.7625 23.1435 38.5 25 38.5H27.625Z" fill="#FFB700"/>
<path d="M15.375 41.125H27.625V53.375H15.375V41.125Z" fill="#FFD000"/>
<path d="M19.75 41.125H23.25V44.625H19.75V41.125Z" fill="#FFEA00"/>
<path d="M27.625 50.75V53.375H15.375V41.125H18V43.75C18 45.6065 18.7375 47.387 20.0503 48.6997C21.363 50.0125 23.1435 50.75 25 50.75H27.625Z" fill="#FFB700"/>
<path d="M27.625 41.125H39.875V53.375H27.625V41.125Z" fill="#FFD000"/>
<path d="M32 41.125H35.5V44.625H32V41.125Z" fill="#FFEA00"/>
<path d="M39.875 50.75V53.375H27.625V41.125H30.25V43.75C30.25 45.6065 30.9875 47.387 32.3003 48.6997C33.613 50.0125 35.3935 50.75 37.25 50.75H39.875Z" fill="#FFB700"/>
</svg>
