<svg width="16" height="15" viewBox="0 0 16 15" fill="none" xmlns="http://www.w3.org/2000/svg">
<path d="M4.19244 14.999H1.08244V4.98902H4.19244V14.999ZM2.63444 3.61802C2.27637 3.61999 1.92577 3.51572 1.62698 3.3184C1.3282 3.12107 1.09465 2.83955 0.955888 2.50947C0.817128 2.17938 0.779391 1.81555 0.847451 1.46401C0.915511 1.11247 1.08631 0.789016 1.33824 0.534568C1.59017 0.280119 1.91191 0.106111 2.26275 0.0345562C2.6136 -0.0369983 2.97778 -0.00288327 3.30924 0.132585C3.64069 0.268054 3.92451 0.498788 4.1248 0.795598C4.32509 1.09241 4.43285 1.44196 4.43444 1.80002C4.43498 2.27924 4.24609 2.73925 3.90892 3.07979C3.57175 3.42033 3.11364 3.6138 2.63444 3.61802ZM15.8344 14.999H12.7344V10.124C12.7344 8.96202 12.7114 7.47202 11.1174 7.47202C9.50044 7.47202 9.25244 8.73402 9.25244 10.04V14.999H6.14044V4.98902H9.12244V6.35002H9.16644C9.4647 5.83959 9.89585 5.41963 10.4139 5.13487C10.932 4.85012 11.5177 4.71124 12.1084 4.73302C15.2564 4.73302 15.8344 6.80602 15.8344 9.49802V14.998V14.999Z" fill="#B5C4E4"/>
</svg>
