<svg width="128" height="49" viewBox="0 0 128 49" fill="none" xmlns="http://www.w3.org/2000/svg">
<path d="M67.4837 7.86127C67.1709 7.63805 66.7955 7.51344 66.4079 7.50415C66.0266 7.51121 65.6574 7.63628 65.3539 7.86127C65.1829 7.98375 65.0463 8.14613 64.9565 8.33348C64.8667 8.52083 64.8266 8.72716 64.84 8.93353V28.3462C64.84 29.2062 64.8077 30.1441 64.7431 31.16C64.6822 32.1454 64.5098 33.1213 64.2292 34.0699C63.957 34.9818 63.5175 35.838 62.9318 36.5971C62.2983 37.3923 61.4265 37.9757 60.4374 38.2663C60.0208 38.3741 59.6407 38.587 59.3354 38.8835C59.1517 39.1154 59.0558 39.402 59.064 39.6948C59.0639 40.0501 59.1845 40.3955 59.4069 40.6771C59.5266 40.8293 59.6831 40.9501 59.8625 41.0289C60.0418 41.1077 60.2384 41.1419 60.4347 41.1286C61.5844 41.1436 62.7106 40.8108 63.6583 40.1763C64.6262 39.5179 65.4362 38.663 66.0324 37.6702C66.6978 36.5686 67.1929 35.3775 67.5018 34.1351C67.846 32.802 68.0187 31.4324 68.0156 30.0577V8.93177C68.0287 8.72384 67.9866 8.51613 67.8935 8.32864C67.8003 8.14115 67.6592 7.98019 67.4837 7.86127Z" fill="white"/>
<path d="M55.8106 11.8442C55.0189 10.8087 54.0096 9.94981 52.8502 9.32488C51.5125 8.62648 50.0107 8.28116 48.4938 8.32318C47.0719 8.31993 45.6614 8.57006 44.3318 9.06123C42.972 9.56713 41.7008 10.2754 40.5635 11.1608C39.341 12.1128 38.2467 13.2114 37.3064 14.4305C36.2761 15.7524 35.4117 17.1896 34.7314 18.7115V10.9853C34.7435 10.7759 34.6999 10.5669 34.6048 10.3788C34.5097 10.1906 34.3663 10.0296 34.1886 9.91128C33.8758 9.68806 33.5004 9.56344 33.1128 9.55416C32.7321 9.56159 32.3637 9.68664 32.0606 9.91128C31.8894 10.0339 31.7526 10.1966 31.6628 10.3843C31.5729 10.572 31.533 10.7786 31.5467 10.9853V28.2993H16.1404V15.4251C16.2621 13.0604 15.5823 10.7222 14.206 8.77113C13.5757 7.95077 12.7488 7.29341 11.7976 6.85654C10.8463 6.41967 9.79979 6.2166 8.74941 6.26508C8.53476 6.25318 8.3206 6.29564 8.1278 6.38836C7.935 6.48107 7.77012 6.62088 7.64922 6.79415C7.42018 7.09901 7.29232 7.46486 7.28279 7.84259C7.29041 8.21363 7.41872 8.57273 7.64922 8.86812C7.77489 9.03473 7.94148 9.1679 8.13372 9.25541C8.32595 9.34293 8.53766 9.38197 8.74941 9.36897C9.4678 9.4023 10.1612 9.6361 10.7472 10.0426C11.3331 10.449 11.7869 11.011 12.0545 11.6616C12.7177 13.3521 13.0254 15.1552 12.9593 16.9638V28.3063H1.46427C1.26192 28.2956 1.05997 28.3335 0.876175 28.4167C0.69238 28.4998 0.532372 28.6258 0.410224 28.7834C0.173931 29.0664 0.0449219 29.4202 0.0449219 29.7851C0.0449219 30.15 0.173931 30.5037 0.410224 30.7868C0.532372 30.9444 0.69238 31.0703 0.876175 31.1535C1.05997 31.2367 1.26192 31.2746 1.46427 31.2638H47.0751C48.9493 31.3367 50.809 30.9167 52.4593 30.0478C53.8048 29.2887 54.9508 28.2351 55.8069 26.9704C56.6342 25.7421 57.223 24.3762 57.5441 22.9406C57.8576 21.6021 58.0217 20.2344 58.0335 18.8614C58.0294 17.6324 57.8509 16.4099 57.5034 15.2285C57.1522 14.0093 56.5774 12.8621 55.8069 11.8424L55.8106 11.8442ZM54.4163 22.5747C54.1958 23.6542 53.7643 24.6822 53.1451 25.6027C52.5508 26.4515 51.7401 27.1349 50.7928 27.5859C49.6568 28.0949 48.4151 28.3397 47.1656 28.301H34.7378V24.4441C35.2476 23.0308 35.8356 21.6455 36.4993 20.2944C37.2567 18.7271 38.193 17.2481 39.2905 15.8854C40.3829 14.5162 41.7068 13.3386 43.2054 12.4032C44.7567 11.4516 46.5597 10.9627 48.3924 10.9968C49.4034 10.9719 50.4018 11.2193 51.2777 11.7119C52.0793 12.1726 52.7671 12.7993 53.2926 13.5478C53.8223 14.3112 54.2117 15.1586 54.4435 16.0521C54.6816 16.9236 54.8048 17.8211 54.8099 18.723C54.8182 20.0168 54.6863 21.3079 54.4163 22.5747Z" fill="white"/>
<path d="M77.9515 0C77.5836 0.000467456 77.2309 0.143298 76.971 0.397113C76.7111 0.650927 76.5652 0.994941 76.5654 1.35354V47.3433C76.5654 47.7017 76.7115 48.0454 76.9716 48.2989C77.2316 48.5523 77.5842 48.6947 77.952 48.6947C78.3197 48.6947 78.6724 48.5523 78.9324 48.2989C79.1924 48.0454 79.3385 47.7017 79.3385 47.3433V1.35354C79.3385 0.99486 79.1925 0.650848 78.9324 0.397059C78.6723 0.14327 78.3196 0.000467333 77.9515 0Z" fill="white"/>
<path d="M117.859 21.4496C118.644 24.6878 118.203 28.0935 116.616 31.0398C115.029 33.986 112.404 36.2745 109.223 37.4838C106.043 38.6932 102.521 38.742 99.3064 37.6214C96.0917 36.5007 93.4007 34.2859 91.7287 31.3849C90.0566 28.4838 89.5161 25.0917 90.2067 21.8331C90.8973 18.5744 92.7725 15.6686 95.4871 13.6506C98.2016 11.6326 101.573 10.6382 104.98 10.8505C108.387 11.0629 111.601 12.4676 114.03 14.8062L116.101 12.9932C113.185 10.1293 109.29 8.40968 105.158 8.16114C101.026 7.91261 96.9438 9.15253 93.6881 11.6452C90.4324 14.1379 88.2299 17.7096 87.4994 21.6814C86.7688 25.6531 87.561 29.748 89.7255 33.1877C91.89 36.6274 95.2758 39.1721 99.2394 40.3381C103.203 41.5041 107.468 41.2101 111.224 39.512C114.979 37.8138 117.964 34.8299 119.61 31.1275C121.256 27.4251 121.449 23.2623 120.152 19.4303L117.859 21.4496Z" fill="white"/>
<path d="M126.811 8.34528C126.723 8.2422 126.614 8.15773 126.491 8.09707C126.369 8.03642 126.235 8.00084 126.098 7.99256C125.826 7.97192 125.557 8.05651 125.349 8.22799L117.58 14.6651L115.462 16.4207L103.467 26.3638L97.4846 20.8376C97.4218 20.7816 97.3495 20.7366 97.271 20.7044C97.0972 20.6021 96.8957 20.5533 96.6929 20.5645C96.4901 20.5756 96.2956 20.6462 96.1347 20.7671C95.9499 20.9041 95.8174 21.0976 95.7586 21.3165C95.6997 21.5355 95.7178 21.7673 95.8099 21.9751C95.8433 22.0526 95.8874 22.1253 95.941 22.1911L96.6341 23.0826L101.396 29.167L102.025 29.9782L102.146 30.114C102.263 30.2357 102.399 30.3389 102.549 30.42C102.751 30.5372 102.979 30.6047 103.214 30.6167C103.459 30.647 103.709 30.6231 103.944 30.5468C104.179 30.4705 104.393 30.3437 104.571 30.1758L104.635 30.1131L116.927 18.7839L119.027 16.844L120.219 15.7444L126.264 10.1653L126.745 9.7244C126.939 9.54684 127.055 9.30328 127.069 9.04451C127.083 8.78574 126.993 8.53177 126.82 8.33558L126.811 8.34528Z" fill="white"/>
<path d="M7.00239 42.037C7.12239 42.037 7.18239 42.196 7.18239 42.514C7.18239 42.838 7.12239 43 7.00239 43H5.42739C4.88739 43 4.37739 42.922 3.89739 42.766C3.65739 42.844 3.41739 42.904 3.17739 42.946C2.81739 43.018 2.52639 43.09 2.30439 43.162C2.08239 43.234 1.90239 43.342 1.76439 43.486C1.63239 43.636 1.56639 43.834 1.56639 44.08C1.56639 44.458 1.71639 44.761 2.01639 44.989C2.32239 45.217 2.72439 45.331 3.22239 45.331C3.47439 45.331 3.73839 45.298 4.01439 45.232C4.29639 45.172 4.53339 45.094 4.72539 44.998L5.22939 45.853C4.98339 45.985 4.67139 46.09 4.29339 46.168C3.91539 46.252 3.55839 46.294 3.22239 46.294C2.71239 46.294 2.25039 46.198 1.83639 46.006C1.42839 45.82 1.10739 45.559 0.873387 45.223C0.645387 44.887 0.531387 44.506 0.531387 44.08C0.531387 43.486 0.732387 43.039 1.13439 42.739C1.53639 42.433 2.03439 42.211 2.62839 42.073C1.99239 41.557 1.56039 40.888 1.33239 40.066L2.20539 38.563C2.70939 38.413 3.23439 38.338 3.78039 38.338C4.58439 38.338 5.20539 38.497 5.64339 38.815C6.08139 39.133 6.30039 39.583 6.30039 40.165C6.30039 40.513 6.21339 40.849 6.03939 41.173C5.87139 41.491 5.62839 41.779 5.31039 42.037H5.42739H7.00239ZM2.29539 39.589C2.40339 40.081 2.59539 40.51 2.87139 40.876C3.15339 41.242 3.50439 41.524 3.92439 41.722C4.35639 41.542 4.68639 41.317 4.91439 41.047C5.14839 40.777 5.26539 40.483 5.26539 40.165C5.26539 39.871 5.15139 39.655 4.92339 39.517C4.69539 39.373 4.31439 39.301 3.78039 39.301C3.49839 39.301 3.24339 39.325 3.01539 39.373C2.78739 39.415 2.54739 39.487 2.29539 39.589ZM8.55749 42.037C8.67749 42.037 8.73749 42.196 8.73749 42.514C8.73749 42.838 8.67749 43 8.55749 43H7.00049C6.88049 43 6.82049 42.838 6.82049 42.514C6.82049 42.196 6.88049 42.037 7.00049 42.037H8.55749ZM10.1132 42.037C10.2332 42.037 10.2932 42.196 10.2932 42.514C10.2932 42.838 10.2332 43 10.1132 43H8.55615C8.43615 43 8.37615 42.838 8.37615 42.514C8.37615 42.196 8.43615 42.037 8.55615 42.037H10.1132ZM11.6688 42.037C11.7888 42.037 11.8488 42.196 11.8488 42.514C11.8488 42.838 11.7888 43 11.6688 43H10.1118C9.99182 43 9.93182 42.838 9.93182 42.514C9.93182 42.196 9.99182 42.037 10.1118 42.037H11.6688ZM13.2245 42.037C13.3445 42.037 13.4045 42.196 13.4045 42.514C13.4045 42.838 13.3445 43 13.2245 43H11.6675C11.5475 43 11.4875 42.838 11.4875 42.514C11.4875 42.196 11.5475 42.037 11.6675 42.037H13.2245ZM16.7421 42.037C16.8621 42.037 16.9221 42.196 16.9221 42.514C16.9221 42.838 16.8621 43 16.7421 43H16.2471C15.7371 43 15.3171 42.871 14.9871 42.613C14.7051 42.871 14.2701 43 13.6821 43H13.2231C13.1031 43 13.0431 42.838 13.0431 42.514C13.0431 42.196 13.1031 42.037 13.2231 42.037H13.6011C13.9251 42.037 14.1471 41.974 14.2671 41.848C14.3871 41.716 14.4471 41.491 14.4471 41.173V38.626H15.4821V41.182C15.4821 41.452 15.4551 41.692 15.4011 41.902C15.5571 41.992 15.7461 42.037 15.9681 42.037H16.7421ZM15.6801 44.827C15.5241 44.827 15.3921 44.773 15.2841 44.665C15.1821 44.557 15.1311 44.422 15.1311 44.26C15.1311 44.092 15.1821 43.954 15.2841 43.846C15.3921 43.744 15.5241 43.693 15.6801 43.693C15.8361 43.693 15.9651 43.744 16.0671 43.846C16.1751 43.954 16.2291 44.092 16.2291 44.26C16.2291 44.422 16.1751 44.557 16.0671 44.665C15.9651 44.773 15.8361 44.827 15.6801 44.827ZM14.2581 44.827C14.1021 44.827 13.9701 44.773 13.8621 44.665C13.7601 44.557 13.7091 44.422 13.7091 44.26C13.7091 44.092 13.7601 43.954 13.8621 43.846C13.9701 43.744 14.1021 43.693 14.2581 43.693C14.4141 43.693 14.5431 43.744 14.6451 43.846C14.7531 43.954 14.8071 44.092 14.8071 44.26C14.8071 44.422 14.7531 44.557 14.6451 44.665C14.5431 44.773 14.4141 44.827 14.2581 44.827ZM20.2578 42.037C20.3778 42.037 20.4378 42.196 20.4378 42.514C20.4378 42.838 20.3778 43 20.2578 43H19.7628C19.2528 43 18.8328 42.871 18.5028 42.613C18.2208 42.871 17.7858 43 17.1978 43H16.7388C16.6188 43 16.5588 42.838 16.5588 42.514C16.5588 42.196 16.6188 42.037 16.7388 42.037H17.1168C17.4408 42.037 17.6628 41.974 17.7828 41.848C17.9028 41.716 17.9628 41.491 17.9628 41.173V38.626H18.9978V41.182C18.9978 41.452 18.9708 41.692 18.9168 41.902C19.0728 41.992 19.2618 42.037 19.4838 42.037H20.2578ZM18.3948 44.971C18.2208 44.971 18.0768 44.911 17.9628 44.791C17.8488 44.671 17.7918 44.521 17.7918 44.341C17.7918 44.161 17.8488 44.011 17.9628 43.891C18.0768 43.777 18.2208 43.72 18.3948 43.72C18.5688 43.72 18.7128 43.777 18.8268 43.891C18.9408 44.011 18.9978 44.161 18.9978 44.341C18.9978 44.521 18.9408 44.671 18.8268 44.791C18.7128 44.911 18.5688 44.971 18.3948 44.971ZM21.9824 36.331V43H20.2544C20.1344 43 20.0744 42.838 20.0744 42.514C20.0744 42.196 20.1344 42.037 20.2544 42.037H20.9474V36.331H21.9824ZM23.5165 36.331H24.5515V43H23.5165V36.331ZM32.7456 38.437C33.3396 38.437 33.8406 38.566 34.2486 38.824C34.6566 39.082 34.9596 39.433 35.1576 39.877C35.3556 40.321 35.4546 40.816 35.4546 41.362V43H28.1466V42.037H28.8936V36.331H29.9286V40.39C30.1806 39.802 30.5346 39.331 30.9906 38.977C31.4526 38.617 32.0376 38.437 32.7456 38.437ZM34.4196 42.037V41.362C34.4196 40.732 34.2726 40.249 33.9786 39.913C33.6846 39.571 33.2826 39.4 32.7726 39.4C32.3406 39.4 31.9326 39.517 31.5486 39.751C31.1646 39.985 30.8376 40.306 30.5676 40.714C30.2976 41.116 30.1116 41.557 30.0096 42.037H34.4196ZM38.9116 42.037C39.0316 42.037 39.0916 42.196 39.0916 42.514C39.0916 42.838 39.0316 43 38.9116 43H36.8056V36.331H37.8406V42.037H38.9116ZM40.4706 42.037C40.5906 42.037 40.6506 42.196 40.6506 42.514C40.6506 42.838 40.5906 43 40.4706 43H38.9136C38.7936 43 38.7336 42.838 38.7336 42.514C38.7336 42.196 38.7936 42.037 38.9136 42.037H40.4706ZM42.0262 42.037C42.1462 42.037 42.2062 42.196 42.2062 42.514C42.2062 42.838 42.1462 43 42.0262 43H40.4692C40.3492 43 40.2892 42.838 40.2892 42.514C40.2892 42.196 40.3492 42.037 40.4692 42.037H42.0262ZM43.5819 42.037C43.7019 42.037 43.7619 42.196 43.7619 42.514C43.7619 42.838 43.7019 43 43.5819 43H42.0249C41.9049 43 41.8449 42.838 41.8449 42.514C41.8449 42.196 41.9049 42.037 42.0249 42.037H43.5819ZM45.1376 42.037C45.2576 42.037 45.3176 42.196 45.3176 42.514C45.3176 42.838 45.2576 43 45.1376 43H43.5806C43.4606 43 43.4006 42.838 43.4006 42.514C43.4006 42.196 43.4606 42.037 43.5806 42.037H45.1376ZM51.2112 42.037C51.3312 42.037 51.3912 42.196 51.3912 42.514C51.3912 42.838 51.3312 43 51.2112 43H45.1362C45.0162 43 44.9562 42.838 44.9562 42.514C44.9562 42.196 45.0162 42.037 45.1362 42.037H46.2252C45.9552 41.653 45.8202 41.221 45.8202 40.741C45.8202 40.291 45.9312 39.886 46.1532 39.526C46.3752 39.16 46.6782 38.875 47.0622 38.671C47.4462 38.461 47.8662 38.356 48.3222 38.356C48.8982 38.356 49.5162 38.521 50.1762 38.851V42.037H51.2112ZM46.8552 40.732C46.8552 41.062 46.9482 41.344 47.1342 41.578C47.3262 41.806 47.5842 41.959 47.9082 42.037H49.1412V39.463C48.8352 39.367 48.5652 39.319 48.3312 39.319C48.0492 39.319 47.7942 39.382 47.5662 39.508C47.3442 39.628 47.1702 39.796 47.0442 40.012C46.9182 40.228 46.8552 40.468 46.8552 40.732ZM49.0422 37.582C48.8862 37.582 48.7542 37.528 48.6462 37.42C48.5442 37.312 48.4932 37.177 48.4932 37.015C48.4932 36.847 48.5442 36.712 48.6462 36.61C48.7542 36.502 48.8862 36.448 49.0422 36.448C49.1982 36.448 49.3272 36.502 49.4292 36.61C49.5372 36.712 49.5912 36.847 49.5912 37.015C49.5912 37.177 49.5372 37.312 49.4292 37.42C49.3272 37.528 49.1982 37.582 49.0422 37.582ZM47.6202 37.582C47.4642 37.582 47.3322 37.528 47.2242 37.42C47.1222 37.312 47.0712 37.177 47.0712 37.015C47.0712 36.847 47.1222 36.712 47.2242 36.61C47.3322 36.502 47.4642 36.448 47.6202 36.448C47.7762 36.448 47.9052 36.502 48.0072 36.61C48.1152 36.712 48.1692 36.847 48.1692 37.015C48.1692 37.177 48.1152 37.312 48.0072 37.42C47.9052 37.528 47.7762 37.582 47.6202 37.582ZM53.1985 38.626V43H51.2095C51.0895 43 51.0295 42.838 51.0295 42.514C51.0295 42.196 51.0895 42.037 51.2095 42.037H52.1635V38.626H53.1985ZM52.6855 38.005C52.5115 38.005 52.3675 37.945 52.2535 37.825C52.1395 37.705 52.0825 37.555 52.0825 37.375C52.0825 37.195 52.1395 37.048 52.2535 36.934C52.3675 36.814 52.5115 36.754 52.6855 36.754C52.8595 36.754 53.0035 36.814 53.1175 36.934C53.2315 37.048 53.2885 37.195 53.2885 37.375C53.2885 37.555 53.2315 37.705 53.1175 37.825C53.0035 37.945 52.8595 38.005 52.6855 38.005Z" fill="white"/>
</svg>
