<svg width="104" height="104" viewBox="0 0 104 104" fill="none" xmlns="http://www.w3.org/2000/svg">
<path d="M98.3542 90.4797H5.6456C5.05132 90.4797 4.45703 90.034 4.45703 89.2911C4.45703 88.5483 4.90275 88.1025 5.6456 88.1025H98.5028C99.097 88.1025 99.6913 88.5483 99.6913 89.2911C99.6913 90.034 99.097 90.4797 98.3542 90.4797Z" fill="#666666"/>
<path d="M14.5597 99.5427C13.9654 99.5427 13.3711 99.097 13.3711 98.3542V5.6456C13.5197 4.90275 13.9654 4.45703 14.5597 4.45703C15.154 4.45703 15.7482 4.90275 15.7482 5.6456V98.5028C15.7482 99.097 15.3025 99.5427 14.5597 99.5427Z" fill="#666666"/>
<path d="M42.9356 43.977C42.3414 43.977 41.7471 43.5313 41.7471 42.7885V11.5885C41.7471 10.9942 42.1928 10.3999 42.9356 10.3999C43.6785 10.3999 44.1242 10.8456 44.1242 11.5885V42.7885C44.1242 43.5313 43.5299 43.977 42.9356 43.977Z" fill="#666666"/>
<path d="M47.6903 20.7999V33.8742C47.6903 34.7657 46.9475 35.6571 45.9075 35.6571H39.8161C38.9246 35.6571 38.0332 34.9142 38.0332 33.8742V20.7999C38.0332 19.9085 38.7761 19.0171 39.8161 19.0171H46.0561C46.9475 19.0171 47.6903 19.7599 47.6903 20.7999Z" fill="#FF9933"/>
<path d="M47.6903 20.7997V33.874C47.6903 34.7654 46.9475 35.6568 45.9075 35.6568H39.8161C38.9246 35.6568 38.0332 34.914 38.0332 33.874V32.0911C41.3018 32.0911 43.9761 29.4168 43.9761 26.1483V19.1654H46.0561C46.9475 19.0168 47.6903 19.7597 47.6903 20.7997Z" fill="#FF8B22"/>
<path d="M76.8106 76.96C76.2164 76.96 75.6221 76.5143 75.6221 75.7714V36.4C75.6221 35.8057 76.0678 35.2114 76.8106 35.2114C77.5535 35.2114 77.9992 35.6571 77.9992 36.4V75.7714C77.8506 76.3657 77.4049 76.96 76.8106 76.96Z" fill="#666666"/>
<path d="M81.5653 47.0973V65.223C81.5653 66.1145 80.8225 67.0059 79.7825 67.0059H73.6911C72.7996 67.0059 71.9082 66.263 71.9082 65.223V47.0973C71.9082 46.2059 72.6511 45.3145 73.6911 45.3145H79.7825C80.6739 45.3145 81.5653 46.0573 81.5653 47.0973Z" fill="#FF9933"/>
<path d="M81.5653 47.0971V65.2228C81.5653 66.1142 80.8225 67.0056 79.7825 67.0056H73.6911C72.7996 67.0056 71.9082 66.2628 71.9082 65.2228V63.4399C75.1768 63.4399 77.8511 60.7656 77.8511 57.4971V45.4628H79.6339C80.6739 45.3142 81.5653 46.0571 81.5653 47.0971Z" fill="#FF8B22"/>
<path d="M25.9991 50.3658C25.4048 50.3658 24.8105 49.9201 24.8105 49.1772V20.0572C24.8105 19.4629 25.2563 18.8687 25.9991 18.8687C26.742 18.8687 27.1877 19.3144 27.1877 20.0572V49.1772C27.1877 49.9201 26.742 50.3658 25.9991 50.3658Z" fill="#666666"/>
<path d="M30.9023 31.6456V42.6399C30.9023 43.5314 30.1594 44.4228 29.1194 44.4228H23.028C22.1365 44.4228 21.2451 43.6799 21.2451 42.6399V31.6456C21.2451 30.7542 21.988 29.8628 23.028 29.8628H29.1194C30.0108 29.8628 30.9023 30.7542 30.9023 31.6456Z" fill="#FF9933"/>
<path d="M30.9023 31.6456V42.6399C30.9023 43.5314 30.1594 44.4228 29.1194 44.4228H23.028C22.1365 44.4228 21.2451 43.6799 21.2451 42.6399V40.8571C24.5137 40.8571 27.188 38.1828 27.188 34.9142V29.8628H28.9708C30.0108 29.8628 30.9023 30.7542 30.9023 31.6456Z" fill="#FF8B22"/>
<path d="M93.5987 80.8228C93.0044 80.8228 92.4102 80.3771 92.4102 79.6343V50.5143C92.4102 49.92 92.8559 49.3257 93.5987 49.3257C94.3416 49.3257 94.7873 49.7714 94.7873 50.5143V79.6343C94.7873 80.2285 94.3416 80.8228 93.5987 80.8228Z" fill="#666666"/>
<path d="M98.3533 62.1027V73.097C98.3533 73.9884 97.6104 74.8798 96.5704 74.8798H90.6276C89.7362 74.8798 88.8447 74.137 88.8447 73.097V62.1027C88.8447 61.2113 89.5876 60.3198 90.6276 60.3198H96.719C97.6104 60.3198 98.3533 61.0627 98.3533 62.1027Z" fill="#FF9933"/>
<path d="M98.3533 62.1027V73.097C98.3533 73.9884 97.6104 74.8798 96.5704 74.8798H90.6276C89.7362 74.8798 88.8447 74.137 88.8447 73.097V71.3141C92.1133 71.3141 94.7876 68.6398 94.7876 65.3713V60.3198H96.5704C97.6104 60.3198 98.3533 61.0627 98.3533 62.1027Z" fill="#FF8B22"/>
<path d="M59.8731 63.1427C59.2789 63.1427 58.6846 62.6969 58.6846 61.9541V32.8341C58.6846 32.2398 59.1303 31.6455 59.8731 31.6455C60.616 31.6455 61.0617 32.0912 61.0617 32.8341V61.9541C60.9131 62.6969 60.4674 63.1427 59.8731 63.1427Z" fill="#666666"/>
<path d="M64.6278 44.4225V55.4168C64.6278 56.3082 63.885 57.1996 62.845 57.1996H56.7536C55.8621 57.1996 54.9707 56.4568 54.9707 55.4168V44.4225C54.9707 43.5311 55.7136 42.6396 56.7536 42.6396H62.845C63.885 42.6396 64.6278 43.5311 64.6278 44.4225Z" fill="#FF9933"/>
<path d="M64.6278 44.4225V55.4168C64.6278 56.3082 63.885 57.1996 62.845 57.1996H56.7536C55.8621 57.1996 54.9707 56.4568 54.9707 55.4168V53.6339C58.2393 53.6339 60.9136 50.9596 60.9136 47.6911V42.6396H62.6964C63.885 42.6396 64.6278 43.5311 64.6278 44.4225Z" fill="#FF8B22"/>
<path d="M44.7197 74.5829V80.5257C44.7197 81.4172 44.1254 82.0115 43.234 82.0115H23.474C22.5826 82.0115 21.9883 81.4172 21.9883 80.5257V74.5829C21.9883 73.6915 22.5826 73.0972 23.474 73.0972H43.234C44.1254 73.0972 44.7197 73.6915 44.7197 74.5829Z" fill="#77E244"/>
<path d="M44.7197 74.5829V80.5257C44.7197 81.2686 43.9769 82.0115 43.234 82.0115H23.474C22.5826 82.0115 21.9883 81.2686 21.9883 80.5257V78.4457H37.1426C39.3711 78.4457 41.3026 76.6629 41.3026 74.2857V73.0972H43.3826C44.1254 73.0972 44.7197 73.6915 44.7197 74.5829Z" fill="#62D333"/>
<path d="M43.0859 68.194H23.7716C23.1773 68.194 22.583 67.7483 22.583 67.0055C22.583 66.2626 23.0287 65.8169 23.7716 65.8169H43.0859C43.6801 65.8169 44.2744 66.2626 44.2744 67.0055C44.2744 67.7483 43.6801 68.194 43.0859 68.194Z" fill="#666666"/>
<path d="M43.0859 63.1426H23.7716C23.1773 63.1426 22.583 62.6969 22.583 61.9541C22.583 61.2112 23.1773 60.9141 23.7716 60.9141H43.0859C43.6801 60.9141 44.2744 61.3598 44.2744 62.1026C44.2744 62.8455 43.6801 63.1426 43.0859 63.1426Z" fill="#666666"/>
<path d="M94.0457 23.4743L87.9543 31.3485C87.5086 31.9428 86.6172 31.9428 86.1715 31.3485L80.08 23.4743C79.4858 22.7314 80.08 21.6914 80.9715 21.6914H93.1543C94.0458 21.6914 94.64 22.7314 94.0457 23.4743Z" fill="#FF4848"/>
<path d="M94.0455 23.4739L87.9541 31.3482C87.5084 31.9425 86.617 31.9425 86.1713 31.3482L84.6855 29.4168L89.2913 23.3253C89.8855 22.5825 89.2913 21.5425 88.3998 21.5425H93.0055C94.0455 21.6911 94.6398 22.7311 94.0455 23.4739Z" fill="#F91C1C"/>
<path d="M89.7375 5.64551H84.5375C83.646 5.64551 83.0518 6.23979 83.0518 7.13122V21.8398H91.2232V7.13122C91.2232 6.23979 90.4803 5.64551 89.7375 5.64551Z" fill="#FF4848"/>
<path d="M91.2232 7.13122V21.8398H83.0518V18.7198H83.7946C86.1718 18.7198 88.1032 16.7884 88.1032 14.4112V5.64551H89.7375C90.4803 5.64551 91.2232 6.23979 91.2232 7.13122Z" fill="#F91C1C"/>
</svg>
