<svg width="57" height="56" viewBox="0 0 57 56" fill="none" xmlns="http://www.w3.org/2000/svg">
<g clip-path="url(#clip0_5609_18629)">
<path d="M21.8675 14.875H35.1325C35.3941 14.8697 35.6474 14.7824 35.8567 14.6254C36.066 14.4684 36.2206 14.2497 36.2989 14C36.2206 13.7503 36.066 13.5316 35.8567 13.3746C35.6474 13.2176 35.3941 13.1303 35.1325 13.125H21.8675C21.6059 13.1303 21.3526 13.2176 21.1433 13.3746C20.934 13.5316 20.7794 13.7503 20.7011 14C20.7794 14.2497 20.934 14.4684 21.1433 14.6254C21.3526 14.7824 21.6059 14.8697 21.8675 14.875ZM21.8675 12.25H35.1325C35.3941 12.2447 35.6474 12.1574 35.8567 12.0004C36.066 11.8434 36.2206 11.6247 36.2989 11.375C36.2206 11.1253 36.066 10.9066 35.8567 10.7496C35.6474 10.5926 35.3941 10.5053 35.1325 10.5H21.8675C21.6059 10.5053 21.3526 10.5926 21.1433 10.7496C20.934 10.9066 20.7794 11.1253 20.7011 11.375C20.7794 11.6247 20.934 11.8434 21.1433 12.0004C21.3526 12.1574 21.6059 12.2447 21.8675 12.25Z" fill="#A80132"/>
<path d="M20.0457 2.86125C20.1114 2.90587 20.1805 2.94875 20.2566 2.99425C20.2881 3.01262 20.3214 3.03012 20.3546 3.0485C20.4421 3.094 20.5296 3.136 20.6268 3.18412C20.6556 3.19812 20.6854 3.21213 20.7142 3.22525C21.4187 3.51934 22.1518 3.73928 22.9017 3.8815L22.9333 3.88762C23.1608 3.934 23.3979 3.97512 23.6464 4.01887C25.252 4.26835 26.8752 4.38744 28.5 4.375C33.33 4.375 36.375 3.5 37.25 2.625C37.25 2.625 35.5 0.875 28.5 0.875C21.5 0.875 19.75 2.625 19.75 2.625C19.8185 2.69135 19.8916 2.75276 19.9688 2.80875C19.9924 2.82625 20.0204 2.84375 20.0457 2.86125Z" fill="#DE8800"/>
<path d="M20.7124 3.22525C20.6818 3.21213 20.6521 3.19812 20.6249 3.18412C20.6564 3.19812 20.6844 3.21213 20.7124 3.22525ZM23.6472 4.01887L23.9499 5.075C24.2516 6.13352 24.8901 7.06489 25.7686 7.72802C26.6471 8.39115 27.7178 8.74993 28.8184 8.75H32.6378C33.7104 8.7458 34.7474 8.36452 35.5673 7.67287L37.2499 2.625C36.3749 3.5 33.3299 4.375 28.4999 4.375C26.8754 4.3874 25.2525 4.2683 23.6472 4.01887ZM32.9274 15.75H27.6319C24.0875 17.7564 21.1558 20.6893 19.1507 24.2345C17.1457 27.7796 16.143 31.8035 16.2499 35.875C16.2499 52.5 50.3749 49.875 50.3749 42C50.3749 35.665 42.8849 19.67 32.9274 15.75Z" fill="#FFC608"/>
<path d="M20.2566 2.99425C20.1805 2.9505 20.1114 2.90675 20.0457 2.86125C20.1114 2.90587 20.1805 2.9505 20.2566 2.99425ZM23.6473 4.01887C23.3988 3.97862 23.1616 3.93137 22.9341 3.88762C23.1625 3.9375 23.3988 3.97862 23.6473 4.01887ZM20.625 3.18412C20.5279 3.1395 20.4377 3.09662 20.3529 3.0485C20.4386 3.094 20.5296 3.1395 20.625 3.18412Z" fill="#F09413"/>
<path d="M55.625 21.875L52.7112 23.3363L51.25 26.25L49.7888 23.3363L46.875 21.875L49.7888 20.4137L51.25 17.5L52.7112 20.4137L55.625 21.875Z" fill="#FF9C00"/>
<path d="M10.125 11.375L7.21125 12.8363L5.75 15.75L4.28875 12.8363L1.375 11.375L4.28875 9.91375L5.75 7L7.21125 9.91375L10.125 11.375Z" fill="#FF9C00"/>
<path d="M36.585 34.7812C36.4457 35.1291 36.3744 35.5003 36.375 35.875V48.1512C35.5087 48.1775 34.6337 48.1775 33.75 48.1337V38.5C33.75 37.0475 34.835 35.735 36.585 34.7812Z" fill="#F09413"/>
<path d="M36.2993 14C36.2211 13.7503 36.0664 13.5316 35.8571 13.3746C35.6478 13.2176 35.3945 13.1303 35.1329 13.125C35.4715 13.1152 35.7925 12.9715 36.0254 12.7255C36.2583 12.4795 36.3841 12.1512 36.3754 11.8125C36.3741 11.6635 36.3484 11.5157 36.2993 11.375C36.2211 11.1253 36.0664 10.9066 35.8571 10.7496C35.6478 10.5926 35.3945 10.5053 35.1329 10.5H21.8679C21.6063 10.5053 21.353 10.5926 21.1437 10.7496C20.9345 10.9066 20.7798 11.1253 20.7015 11.375C20.6524 11.5157 20.6267 11.6635 20.6254 11.8125C20.6167 12.1512 20.7426 12.4795 20.9755 12.7255C21.2084 12.9715 21.5293 13.1152 21.8679 13.125C21.6063 13.1303 21.353 13.2176 21.1437 13.3746C20.9345 13.5316 20.7798 13.7503 20.7015 14C20.6524 14.1407 20.6267 14.2885 20.6254 14.4375C20.6167 14.7762 20.7426 15.1045 20.9755 15.3505C21.2084 15.5965 21.5293 15.7402 21.8679 15.75H35.1329C35.4715 15.7402 35.7925 15.5965 36.0254 15.3505C36.2583 15.1045 36.3841 14.7762 36.3754 14.4375C36.3741 14.2885 36.3484 14.1407 36.2993 14Z" fill="#A80132"/>
<path d="M35.5285 3.51064C33.2475 2.84351 30.8747 2.54459 28.4996 2.62514C26.1244 2.54459 23.7517 2.84351 21.4707 3.51064C23.7574 4.14783 26.1266 4.43922 28.4996 4.37514C30.8725 4.43922 33.2417 4.14783 35.5285 3.51064Z" fill="#C97C10"/>
<path d="M33.8904 13.125H35.1329C35.4715 13.1152 35.7925 12.9715 36.0254 12.7255C36.2583 12.4795 36.3841 12.1512 36.3754 11.8125C36.3741 11.6635 36.3484 11.5157 36.2993 11.375C36.2211 11.6247 36.0664 11.8434 35.8571 12.0004C35.6478 12.1574 35.3945 12.2447 35.1329 12.25H21.8679C21.6063 12.2447 21.353 12.1574 21.1437 12.0004C20.9345 11.8434 20.7798 11.6247 20.7015 11.375C20.6524 11.5157 20.6267 11.6635 20.6254 11.8125C20.6167 12.1512 20.7426 12.4795 20.9755 12.7255C21.2084 12.9715 21.5293 13.1152 21.8679 13.125H33.8904ZM32.9279 15.75H35.1329C35.4715 15.7402 35.7925 15.5965 36.0254 15.3505C36.2583 15.1045 36.3841 14.7762 36.3754 14.4375C36.3741 14.2885 36.3484 14.1407 36.2993 14C36.2211 14.2497 36.0664 14.4684 35.8571 14.6254C35.6478 14.7824 35.3945 14.8697 35.1329 14.875H21.8679C21.6063 14.8697 21.353 14.7824 21.1437 14.6254C20.9345 14.4684 20.7798 14.2497 20.7015 14C20.6524 14.1407 20.6267 14.2885 20.6254 14.4375C20.6167 14.7762 20.7426 15.1045 20.9755 15.3505C21.2084 15.5965 21.5293 15.7402 21.8679 15.75H32.9279Z" fill="#7D0126"/>
<path d="M33.89 10.5H34.625L35.5674 7.67287C34.7475 8.36452 33.7105 8.7458 32.6379 8.75H28.8185C27.7178 8.74993 26.6471 8.39115 25.7687 7.72802C24.8902 7.06489 24.2517 6.13352 23.95 5.075L23.6473 4.01625C23.3988 3.976 23.1616 3.92875 22.9341 3.885L22.9 3.8815C22.15 3.73928 21.4169 3.51934 20.7125 3.22525C20.681 3.21213 20.653 3.19812 20.625 3.18412C20.5279 3.1395 20.4369 3.09662 20.3529 3.0485C20.3196 3.03012 20.2864 3.01262 20.2549 2.99425C20.1787 2.9505 20.1096 2.90675 20.044 2.86125C20.0186 2.84375 19.9906 2.82625 19.967 2.80875C19.8904 2.75269 19.8179 2.69129 19.75 2.625L22.375 10.5H33.89Z" fill="#F09413"/>
<path d="M16.25 35.875C16.143 31.8035 17.1458 27.7796 19.1508 24.2345C21.1558 20.6893 24.0876 17.7564 27.632 15.75H24.0725C14.115 19.67 6.625 35.665 6.625 42C6.625 49.245 16.4162 55.125 28.5 55.125C40.5838 55.125 50.375 49.245 50.375 42C50.375 49.875 16.25 52.5 16.25 35.875Z" fill="#FF9C00"/>
<path d="M39.0002 6.99999C38.8272 6.99995 38.658 6.94862 38.5142 6.85247C38.3703 6.75632 38.2582 6.61967 38.192 6.45981C38.1258 6.29995 38.1085 6.12405 38.1422 5.95434C38.1759 5.78463 38.2593 5.62874 38.3816 5.50636L43.6316 0.256365C43.7966 0.0969767 44.0176 0.00878165 44.2471 0.0107753C44.4765 0.0127689 44.6959 0.104792 44.8582 0.267024C45.0204 0.429256 45.1124 0.648717 45.1144 0.878139C45.1164 1.10756 45.0282 1.32859 44.8688 1.49361L39.6188 6.74361C39.4548 6.90772 39.2323 6.99994 39.0002 6.99999ZM39.0002 12.25C38.8123 12.2502 38.6294 12.19 38.4784 12.0782C38.3274 11.9663 38.2164 11.8089 38.1619 11.6291C38.1073 11.4493 38.112 11.2567 38.1754 11.0799C38.2388 10.903 38.3574 10.7512 38.5137 10.647L49.0137 3.64699C49.1093 3.58322 49.2165 3.5389 49.3293 3.51656C49.442 3.49423 49.558 3.49432 49.6707 3.51683C49.7834 3.53933 49.8906 3.58382 49.9861 3.64774C50.0816 3.71166 50.1636 3.79376 50.2273 3.88936C50.2911 3.98497 50.3354 4.09219 50.3578 4.20492C50.3801 4.31765 50.38 4.43368 50.3575 4.54637C50.335 4.65907 50.2905 4.76623 50.2266 4.86173C50.1627 4.95724 50.0806 5.03922 49.985 5.10299L39.485 12.103C39.3414 12.1987 39.1728 12.2499 39.0002 12.25ZM18.0002 6.99999C17.7682 6.99994 17.5456 6.90772 17.3816 6.74361L12.1316 1.49361C11.9722 1.32859 11.884 1.10756 11.886 0.878139C11.888 0.648717 11.98 0.429256 12.1422 0.267024C12.3045 0.104792 12.5239 0.0127689 12.7534 0.0107753C12.9828 0.00878165 13.2038 0.0969767 13.3688 0.256365L18.6188 5.50636C18.7412 5.62874 18.8245 5.78463 18.8582 5.95434C18.892 6.12405 18.8746 6.29995 18.8084 6.45981C18.7422 6.61967 18.6301 6.75632 18.4862 6.85247C18.3424 6.94862 18.1732 6.99995 18.0002 6.99999ZM18.0002 12.25C17.8277 12.2499 17.659 12.1987 17.5155 12.103L7.01546 5.10299C6.82238 4.97419 6.68838 4.77397 6.64292 4.54637C6.62042 4.43368 6.62033 4.31765 6.64266 4.20492C6.66499 4.09219 6.70931 3.98497 6.77309 3.88936C6.83686 3.79376 6.91884 3.71166 7.01434 3.64774C7.10985 3.58382 7.21701 3.53933 7.3297 3.51683C7.5573 3.47137 7.79363 3.51819 7.98671 3.64699L18.4867 10.647C18.643 10.7512 18.7616 10.903 18.825 11.0799C18.8884 11.2567 18.8931 11.4493 18.8386 11.6291C18.784 11.8089 18.673 11.9663 18.522 12.0782C18.3711 12.19 18.1881 12.2502 18.0002 12.25Z" fill="#FFC608"/>
<path d="M32.0486 35.7962L29.3746 34.4592V27.125H31.1246V28H32.8746V26.25C32.8746 26.0179 32.7825 25.7954 32.6184 25.6313C32.4543 25.4672 32.2317 25.375 31.9996 25.375H29.3746V23.625H27.6246V25.375H27.0349C25.985 25.3749 24.9658 25.7293 24.1425 26.3808C23.3191 27.0323 22.7399 27.9427 22.4987 28.9645C22.2575 29.9863 22.3684 31.0597 22.8134 32.0106C23.2584 32.9615 24.0115 33.7343 24.9506 34.2038L27.6246 35.5408V42.875H24.1246V42H22.3746V43.75C22.3746 43.9821 22.4668 44.2046 22.6309 44.3687C22.795 44.5328 23.0176 44.625 23.2496 44.625H27.6246V46.375H29.3746V44.625H29.9644C31.0143 44.6251 32.0335 44.2707 32.8568 43.6192C33.6801 42.9677 34.2594 42.0573 34.5006 41.0355C34.7418 40.0137 34.6309 38.9403 34.1859 37.9894C33.7409 37.0385 32.9878 36.2657 32.0486 35.7962ZM25.7329 32.6375C25.1469 32.3441 24.6771 31.8614 24.3995 31.2678C24.122 30.6741 24.0529 30.0041 24.2036 29.3663C24.3542 28.7285 24.7157 28.1602 25.2296 27.7534C25.7434 27.3467 26.3795 27.1252 27.0349 27.125H27.6246V33.5842L25.7329 32.6375ZM29.9644 42.875H29.3746V36.4158L31.2664 37.3625C31.8524 37.6559 32.3222 38.1386 32.5997 38.7322C32.8773 39.3259 32.9463 39.9959 32.7957 40.6337C32.6451 41.2715 32.2835 41.8398 31.7697 42.2466C31.2558 42.6533 30.6197 42.8748 29.9644 42.875Z" fill="#FFDF75"/>
<path d="M29.375 44.625V45.4711C30.0397 45.4307 30.6878 45.2475 31.2752 44.9339C31.8626 44.6202 32.3754 44.1836 32.7787 43.6537C31.9739 44.2796 30.9843 44.6212 29.9648 44.625H29.375ZM27.625 44.625H23.25C23.0179 44.625 22.7954 44.5328 22.6313 44.3687C22.4672 44.2046 22.375 43.9821 22.375 43.75V42.875H21.5V44.625C21.5 44.8571 21.5922 45.0796 21.7563 45.2437C21.9204 45.4078 22.1429 45.5 22.375 45.5H26.75V47.25H28.5V46.375H27.625V44.625Z" fill="#FFAA00"/>
<path d="M31.125 27.125H29.375V28H30.25V28.875H32V28H31.125V27.125Z" fill="#FFAA00"/>
<path d="M27.625 25.375V24.5H26.75V25.4039C26.8462 25.3978 26.9372 25.375 27.0352 25.375H27.625ZM27.625 35.5408L24.951 34.2038C24.3362 33.9 23.7967 33.4633 23.3714 32.9253C22.9462 32.3873 22.6459 31.7615 22.4923 31.0932C22.3387 30.4248 22.3357 29.7307 22.4833 29.0611C22.631 28.3914 22.9258 27.763 23.3462 27.2213C22.7148 27.6972 22.2155 28.3267 21.8958 29.0499C21.5762 29.7732 21.4467 30.5662 21.5199 31.3535C21.593 32.1409 21.8662 32.8964 22.3136 33.5484C22.761 34.2005 23.3677 34.7272 24.076 35.0788L26.75 36.4158V42.875H27.625V35.5408ZM24.5914 28.4664C25.0584 28.1629 25.6032 28.0009 26.1602 28H26.75V33.1467L27.625 33.5842V27.125H27.0352C26.5481 27.1259 26.069 27.2492 25.642 27.4836C25.215 27.718 24.8537 28.0559 24.5914 28.4664ZM32.875 39.9648C32.8767 39.4241 32.727 38.8937 32.4427 38.4338C32.1585 37.9739 31.7511 37.6028 31.2667 37.3625L29.375 36.4158V37.7283L30.3917 38.2366C30.7571 38.4188 31.0799 38.6761 31.3389 38.9917C31.5979 39.3073 31.7873 39.674 31.8947 40.0679C32.0021 40.4618 32.0251 40.8739 31.9621 41.2773C31.8991 41.6807 31.7516 42.0662 31.5292 42.4086C31.9405 42.1468 32.2793 41.7858 32.5145 41.3587C32.7496 40.9316 32.8736 40.4523 32.875 39.9648Z" fill="#FFAA00"/>
<path d="M36.375 49.875V35.875C36.3744 35.5003 36.4457 35.1291 36.585 34.7812C34.835 35.735 33.75 37.0475 33.75 38.5V52.5C33.7674 53.2747 34.0517 54.0196 34.555 54.6087C36.0782 54.3573 37.5791 53.9857 39.0437 53.4975C37.39 52.5612 36.375 51.2838 36.375 49.875Z" fill="#FF9C00"/>
<path d="M33.925 37.5059C33.8105 37.8248 33.7513 38.161 33.75 38.4999V42.6631C34.2867 41.9175 34.5899 41.0293 34.6211 40.1111C34.6522 39.1929 34.4099 38.2861 33.925 37.5059Z" fill="#FFC052"/>
<path d="M55.625 46.375V49.875C55.625 52.7712 51.32 55.125 46 55.125C40.68 55.125 36.375 52.7712 36.375 49.875V46.375C36.375 49.2713 40.68 51.625 46 51.625C51.32 51.625 55.625 49.2713 55.625 46.375Z" fill="#FFCB52"/>
<path d="M55.625 39.375V42.875C55.625 45.7712 51.32 48.125 46 48.125C40.68 48.125 36.375 45.7712 36.375 42.875V39.375C36.375 42.2713 40.68 44.625 46 44.625C51.32 44.625 55.625 42.2713 55.625 39.375Z" fill="#FFCB52"/>
<path d="M55.625 42.875V46.375C55.625 49.2712 51.32 51.625 46 51.625C40.68 51.625 36.375 49.2712 36.375 46.375V42.875C36.375 45.7713 40.68 48.125 46 48.125C51.32 48.125 55.625 45.7713 55.625 42.875Z" fill="#F09413"/>
<path d="M55.625 35.875V39.375C55.625 42.2712 51.32 44.625 46 44.625C40.68 44.625 36.375 42.2712 36.375 39.375V35.875C36.375 38.7713 40.68 41.125 46 41.125C51.32 41.125 55.625 38.7713 55.625 35.875Z" fill="#F09413"/>
<path d="M55.625 35.875C55.625 38.7712 51.32 41.125 46 41.125C40.68 41.125 36.375 38.7712 36.375 35.875C36.375 32.9787 40.68 30.625 46 30.625C51.32 30.625 55.625 32.9787 55.625 35.875ZM52.125 35.875C52.125 34.4225 49.3862 33.25 46 33.25C42.6137 33.25 39.875 34.4225 39.875 35.875C39.875 37.3275 42.6137 38.5 46 38.5C49.3862 38.5 52.125 37.3275 52.125 35.875Z" fill="#FFC052"/>
<path d="M46 38.5C49.3827 38.5 52.125 37.3247 52.125 35.875C52.125 34.4253 49.3827 33.25 46 33.25C42.6173 33.25 39.875 34.4253 39.875 35.875C39.875 37.3247 42.6173 38.5 46 38.5Z" fill="#FFDF75"/>
<path d="M52.125 35.875C52.1265 36.0253 52.0967 36.1743 52.0376 36.3125C51.5563 35.07 49.0363 34.125 46 34.125C42.9638 34.125 40.4438 35.07 39.9625 36.3125C39.9034 36.1743 39.8736 36.0253 39.875 35.875C39.875 34.4225 42.6138 33.25 46 33.25C49.3863 33.25 52.125 34.4225 52.125 35.875Z" fill="#C97C10"/>
<path d="M55.625 37.625V39.375C55.625 42.2712 51.32 44.625 46 44.625C43.8971 44.6564 41.8109 44.2481 39.875 43.4263C37.74 42.4638 36.375 41.0025 36.375 39.375V35.875C36.375 37.5025 37.74 38.9638 39.875 39.9263C39.8723 40.4674 40.0472 40.9945 40.3727 41.4267C40.6983 41.859 41.1566 42.1726 41.6775 42.3194C43.0873 42.6953 44.5409 42.8822 46 42.875C51.32 42.875 55.625 40.5212 55.625 37.625Z" fill="#DE8800"/>
<path d="M55.625 41.125V42.875C55.625 45.7712 51.32 48.125 46 48.125C43.8971 48.1564 41.8109 47.7481 39.875 46.9263C37.74 45.9638 36.375 44.5025 36.375 42.875V39.375C36.375 41.0025 37.74 42.4638 39.875 43.4263C39.8723 43.9674 40.0472 44.4945 40.3727 44.9267C40.6983 45.359 41.1566 45.6726 41.6775 45.8194C43.0873 46.1953 44.5409 46.3822 46 46.375C51.32 46.375 55.625 44.0212 55.625 41.125Z" fill="#DE8800"/>
<path d="M55.625 44.625V46.375C55.625 49.2712 51.32 51.625 46 51.625C43.8971 51.6564 41.8109 51.2481 39.875 50.4263C37.74 49.4638 36.375 48.0025 36.375 46.375V42.875C36.375 44.5025 37.74 45.9638 39.875 46.9263C39.8723 47.4674 40.0472 47.9945 40.3727 48.4267C40.6983 48.859 41.1566 49.1726 41.6775 49.3194C43.0873 49.6953 44.5409 49.8822 46 49.875C51.32 49.875 55.625 47.5212 55.625 44.625Z" fill="#DE8800"/>
<path d="M55.625 48.125V49.875C55.625 52.7712 51.32 55.125 46 55.125C43.8971 55.1564 41.8109 54.7481 39.875 53.9263C37.74 52.9638 36.375 51.5025 36.375 49.875V46.375C36.375 48.0025 37.74 49.4638 39.875 50.4263C39.8723 50.9674 40.0472 51.4945 40.3727 51.9267C40.6983 52.359 41.1566 52.6726 41.6775 52.8194C43.0873 53.1953 44.5409 53.3822 46 53.375C51.32 53.375 55.625 51.0212 55.625 48.125Z" fill="#DE8800"/>
</g>
<defs>
<clipPath id="clip0_5609_18629">
<rect width="56" height="56" fill="white" transform="translate(0.5)"/>
</clipPath>
</defs>
</svg>
