<svg width="57" height="56" viewBox="0 0 57 56" fill="none" xmlns="http://www.w3.org/2000/svg">
<path fill-rule="evenodd" clip-rule="evenodd" d="M49.1519 47.5358H33.7331C32.9129 47.5358 32.8473 46.4204 33.5362 46.2564V17.3542C32.8473 17.1902 32.9129 16.042 33.7331 16.042H49.1519C50.3657 16.042 51.3827 17.059 51.3827 18.2728V45.305C51.3827 46.5517 50.3657 47.5358 49.1519 47.5358Z" fill="#FE4675"/>
<path fill-rule="evenodd" clip-rule="evenodd" d="M30.8789 55.9674H9.12842C7.19286 55.9674 5.61816 54.3927 5.61816 52.4572V11.1543C5.61816 9.21874 7.19286 7.64404 9.12842 7.64404H12.8355C13.2292 7.64404 13.426 7.87369 13.4916 8.16894H25.9579C25.9907 7.87369 26.1876 7.64404 26.5813 7.64404H30.8789C32.8144 7.64404 34.3891 9.21874 34.3891 11.1543V52.4572C34.3891 54.3927 32.8144 55.9674 30.8789 55.9674Z" fill="#323949"/>
<path fill-rule="evenodd" clip-rule="evenodd" d="M26.5806 13.4176H12.8348C12.474 13.4176 12.1787 13.1223 12.1787 12.7615V3.34613C12.1787 1.50899 13.3597 0.0327148 14.7704 0.0327148H29.7956C30.6485 0.0327148 29.5003 1.31215 28.6802 1.34496L27.7616 4.88802C27.9256 4.98643 27.2367 5.15047 27.2367 5.41291V12.7615C27.2367 13.1223 26.9415 13.4176 26.5806 13.4176Z" fill="#D6E3FF"/>
<path fill-rule="evenodd" clip-rule="evenodd" d="M27.2373 5.41291V2.69001C27.2373 -0.85305 32.5519 -0.85305 32.5519 2.69001V5.41291H27.2373Z" fill="#CDD5F6"/>
<path fill-rule="evenodd" clip-rule="evenodd" d="M28.7129 15.7798H11.26C10.8992 15.7798 10.6367 15.4845 10.6367 15.1236V12.7616C10.6367 12.4007 10.8992 12.1055 11.26 12.1055H28.7129C29.0737 12.1055 29.369 12.4007 29.369 12.7616V15.1236C29.369 15.4845 29.0737 15.7798 28.7129 15.7798Z" fill="#282E3A"/>
<path fill-rule="evenodd" clip-rule="evenodd" d="M28.9759 32.6094H11.3919C9.91558 32.6094 8.66895 31.3956 8.66895 29.8865V20.4055C8.66895 18.8964 9.91558 17.6826 11.3919 17.6826H28.9759C30.485 17.6826 31.6988 18.8964 31.6988 20.4055V29.8865C31.6988 31.3956 30.485 32.6094 28.9759 32.6094Z" fill="#9ECBFF"/>
<path fill-rule="evenodd" clip-rule="evenodd" d="M21.9227 39.1378C17.0346 39.1378 17.2315 39.5971 17.2315 36.1196C17.2315 35.4307 17.7892 34.873 18.4781 34.873C23.3662 34.873 23.1694 34.4465 23.1694 37.924C23.1694 38.5801 22.6117 39.1378 21.9227 39.1378ZM13.3603 39.1378C8.47223 39.1378 8.66906 39.5971 8.66906 36.1196C8.66906 35.4307 9.22677 34.873 9.91569 34.873C14.8038 34.873 14.607 34.4465 14.607 37.924C14.607 38.5801 14.0493 39.1378 13.3603 39.1378ZM30.4851 39.1378C25.597 39.1378 25.7938 39.5971 25.7938 36.1196C25.7938 35.4307 26.3515 34.873 27.0077 34.873C31.8958 34.873 31.6989 34.4465 31.6989 37.924C31.6989 38.5801 31.174 39.1378 30.4851 39.1378ZM21.9227 45.699C17.0346 45.699 17.2315 46.1255 17.2315 42.648C17.2315 41.9919 17.7892 41.4342 18.4781 41.4342C23.3662 41.4342 23.1694 40.9749 23.1694 44.4524C23.1694 45.1413 22.6117 45.699 21.9227 45.699ZM13.3603 45.699C8.47223 45.699 8.66906 46.1255 8.66906 42.648C8.66906 41.9919 9.22677 41.4342 9.91569 41.4342C14.8038 41.4342 14.607 40.9749 14.607 44.4524C14.607 45.1413 14.0493 45.699 13.3603 45.699ZM30.4851 45.699C25.597 45.699 25.7938 46.1255 25.7938 42.648C25.7938 41.9919 26.3515 41.4342 27.0077 41.4342C31.8958 41.4342 31.6989 40.9749 31.6989 44.4524C31.6989 45.1413 31.174 45.699 30.4851 45.699Z" fill="#CCCCCC"/>
<path fill-rule="evenodd" clip-rule="evenodd" d="M21.9228 52.2272C17.0347 52.2272 17.2316 52.6865 17.2316 49.2091C17.2316 48.5201 17.7893 47.9624 18.4782 47.9624C23.3663 47.9624 23.1695 47.5032 23.1695 50.9806C23.1695 51.6695 22.6118 52.2272 21.9228 52.2272Z" fill="#F8D5B4"/>
<path fill-rule="evenodd" clip-rule="evenodd" d="M13.3603 52.2272C8.47223 52.2272 8.66906 52.6865 8.66906 49.2091C8.66906 48.5201 9.22677 47.9624 9.91569 47.9624C14.8038 47.9624 14.607 47.5032 14.607 50.9806C14.607 51.6695 14.0493 52.2272 13.3603 52.2272Z" fill="#F491AB"/>
<path fill-rule="evenodd" clip-rule="evenodd" d="M30.4844 52.2272C25.5962 52.2272 25.7931 52.6865 25.7931 49.2091C25.7931 48.5201 26.3508 47.9624 27.0069 47.9624C31.895 47.9624 31.6982 47.5032 31.6982 50.9806C31.6982 51.6695 31.1733 52.2272 30.4844 52.2272Z" fill="#98D095"/>
<path fill-rule="evenodd" clip-rule="evenodd" d="M37.8333 47.5358H34.3887V16.042H37.8333V47.5358Z" fill="#F6C959"/>
<path fill-rule="evenodd" clip-rule="evenodd" d="M43.6404 26.048H41.2783C40.7863 26.048 40.3926 25.6215 40.3926 25.1294V20.2085C40.3926 19.7164 40.7863 19.3228 41.2783 19.3228H43.6404C44.1325 19.3228 44.5261 19.7164 44.5261 20.2085V25.1294C44.5261 25.6215 44.1325 26.048 43.6404 26.048Z" fill="#F6C959"/>
<path fill-rule="evenodd" clip-rule="evenodd" d="M46.7889 26.0482C46.4281 26.0482 46.1328 25.7529 46.1328 25.3921V19.9791C46.1328 19.1261 47.4451 19.1261 47.4451 19.9791V25.3921C47.4451 25.7529 47.1498 26.0482 46.7889 26.0482Z" fill="#E53F69"/>
<path fill-rule="evenodd" clip-rule="evenodd" d="M43.6404 35.1353H41.2783C40.7863 35.1353 40.3926 34.7416 40.3926 34.2495V29.3286C40.3926 28.8365 40.7863 28.4429 41.2783 28.4429H43.6404C44.1325 28.4429 44.5261 28.8365 44.5261 29.3286V34.2495C44.5261 34.7416 44.1325 35.1353 43.6404 35.1353Z" fill="#F6C959"/>
<path fill-rule="evenodd" clip-rule="evenodd" d="M46.7889 35.1355C46.4281 35.1355 46.1328 34.8403 46.1328 34.4794V29.0992C46.1328 28.2462 47.4451 28.2462 47.4451 29.0992V34.4794C47.4451 34.8403 47.1498 35.1355 46.7889 35.1355Z" fill="#E53F69"/>
<path fill-rule="evenodd" clip-rule="evenodd" d="M43.6404 44.2554H41.2783C40.7863 44.2554 40.3926 43.8618 40.3926 43.3697V38.4488C40.3926 37.9567 40.7863 37.563 41.2783 37.563H43.6404C44.1325 37.563 44.5261 37.9567 44.5261 38.4488V43.3697C44.5261 43.8618 44.1325 44.2554 43.6404 44.2554Z" fill="#F6C959"/>
<path fill-rule="evenodd" clip-rule="evenodd" d="M46.7889 44.2556C46.4281 44.2556 46.1328 43.9604 46.1328 43.5995V38.2193C46.1328 37.3664 47.4451 37.3664 47.4451 38.2193V43.5995C47.4451 43.9604 47.1498 44.2556 46.7889 44.2556Z" fill="#E53F69"/>
<path fill-rule="evenodd" clip-rule="evenodd" d="M28.9759 17.6826H11.3919C9.91558 17.6826 8.66895 18.8964 8.66895 20.4055V29.8865C8.66895 30.6738 8.99701 31.3628 9.5219 31.8548L31.338 19.0277C30.8787 18.2075 29.9929 17.6826 28.9759 17.6826Z" fill="#8FC2FC"/>
</svg>
