<svg width="104" height="104" viewBox="0 0 104 104" fill="none" xmlns="http://www.w3.org/2000/svg">
<path d="M86.8708 104H17.1299C16.008 104 15.0986 103.09 15.0986 101.969V11.5518C15.0986 10.4301 16.008 9.52051 17.1299 9.52051H33.8146C34.9364 9.52051 69.0645 9.52051 70.1861 9.52051H86.8708C87.9925 9.52051 88.9021 10.4301 88.9021 11.5518V101.969C88.9021 103.09 87.9925 104 86.8708 104Z" fill="#E1E1F9"/>
<path d="M70.1863 18.3422H33.8135C32.6916 18.3422 31.7822 17.4326 31.7822 16.3109V6.79128C31.7822 5.66962 32.6916 4.76003 33.8135 4.76003H37.6186V2.03125C37.6186 0.909594 38.528 0 39.6499 0H64.3499C65.4715 0 66.3811 0.909594 66.3811 2.03125V4.76003H70.1863C71.3079 4.76003 72.2175 5.66962 72.2175 6.79128V16.3109C72.2175 17.4326 71.3081 18.3422 70.1863 18.3422Z" fill="#47568C"/>
<path d="M40.0197 52.6638H32.2197C31.0979 52.6638 30.1885 51.7542 30.1885 50.6326V41.4243C30.1885 40.3027 31.0979 39.3931 32.2197 39.3931H40.0197C41.1416 39.3931 42.051 40.3027 42.051 41.4243V50.6326C42.051 51.7542 41.1414 52.6638 40.0197 52.6638Z" fill="#F03800"/>
<path d="M55.8996 52.6638H48.0996C46.9778 52.6638 46.0684 51.7542 46.0684 50.6326V33.2993C46.0684 32.1777 46.9778 31.2681 48.0996 31.2681H55.8996C57.0213 31.2681 57.9309 32.1777 57.9309 33.2993V50.6326C57.9309 51.7542 57.0215 52.6638 55.8996 52.6638Z" fill="#FDBF00"/>
<path d="M71.7805 52.6638H63.9805C62.8588 52.6638 61.9492 51.7542 61.9492 50.6326V25.1743C61.9492 24.0527 62.8588 23.1431 63.9805 23.1431H71.7803C72.9019 23.1431 73.8115 24.0527 73.8115 25.1743V50.6326C73.8117 51.7542 72.9021 52.6638 71.7805 52.6638Z" fill="#3CD34E"/>
<path d="M71.7804 61.0596H32.2197C31.0979 61.0596 30.1885 60.15 30.1885 59.0283C30.1885 57.9067 31.0979 56.9971 32.2197 56.9971H71.7804C72.902 56.9971 73.8116 57.9067 73.8116 59.0283C73.8116 60.15 72.902 61.0596 71.7804 61.0596Z" fill="#C7C7E5"/>
<path d="M26.0004 70.0782C23.0825 70.02 23.5231 65.5431 26.3987 66.0543C28.7485 66.4701 28.3873 70.1327 26.0004 70.0782Z" fill="#C7C7E5"/>
<path d="M26.0003 78.311C23.6137 78.3697 23.2514 74.6955 25.6044 74.2889C28.4755 73.7695 28.9173 78.2596 26.0003 78.311Z" fill="#C7C7E5"/>
<path d="M26.0005 86.5453C23.6128 86.5992 23.252 82.9321 25.6046 82.5214C28.4756 82.0047 28.9188 86.4895 26.0005 86.5453Z" fill="#C7C7E5"/>
<path d="M26.0002 94.7785C23.6143 94.8339 23.2509 91.1639 25.6043 90.7566C28.4761 90.2378 28.9171 94.7232 26.0002 94.7785Z" fill="#C7C7E5"/>
<path d="M78.0001 70.0781H33.8271C32.7053 70.0781 31.7959 69.1685 31.7959 68.0469C31.7959 66.9252 32.7053 66.0156 33.8271 66.0156H78.0001C79.1218 66.0156 80.0314 66.9252 80.0314 68.0469C80.0314 69.1685 79.1218 70.0781 78.0001 70.0781Z" fill="#C7C7E5"/>
<path d="M78.0001 78.3115H33.8271C32.7053 78.3115 31.7959 77.4019 31.7959 76.2803C31.7959 75.1586 32.7053 74.249 33.8271 74.249H78.0001C79.1218 74.249 80.0314 75.1586 80.0314 76.2803C80.0314 77.4019 79.1218 78.3115 78.0001 78.3115Z" fill="#C7C7E5"/>
<path d="M78.0001 86.5449H33.8271C32.7053 86.5449 31.7959 85.6353 31.7959 84.5137C31.7959 83.392 32.7053 82.4824 33.8271 82.4824H78.0001C79.1218 82.4824 80.0314 83.392 80.0314 84.5137C80.0314 85.6353 79.1218 86.5449 78.0001 86.5449Z" fill="#C7C7E5"/>
<path d="M78.0001 94.7783H33.8271C32.7053 94.7783 31.7959 93.8687 31.7959 92.7471C31.7959 91.6254 32.7053 90.7158 33.8271 90.7158H78.0001C79.1218 90.7158 80.0314 91.6254 80.0314 92.7471C80.0314 93.8687 79.1218 94.7783 78.0001 94.7783Z" fill="#C7C7E5"/>
</svg>
