<svg width="57" height="56" viewBox="0 0 57 56" fill="none" xmlns="http://www.w3.org/2000/svg">
<path d="M54.752 37.622V13.125C54.752 11.6708 53.5812 10.5 52.127 10.5H4.87603C3.42175 10.5 2.25098 11.6708 2.25098 13.125V37.622H54.752Z" fill="#E4EFF8"/>
<path d="M4.87502 10.5C3.42076 10.5 2.25 11.6708 2.25 13.125V37.6218H4.00001C4.00001 37.6218 8.89101 11.6263 54.0839 11.3887C53.6037 10.8469 52.9095 10.5 52.1254 10.5H4.87502Z" fill="#C4DCF0"/>
<path d="M41.9277 11.1836L42.4575 37.622H45.127V21.7521C46.6376 21.3639 47.7521 20.0101 47.7521 18.3751V16.6251L46.1285 11.1836H41.9277Z" fill="#C4DCF0"/>
<path d="M13.626 16.6411H43.3766V37.6218H13.626V16.6411Z" fill="#FFCA28"/>
<path d="M13.625 17.5V22.6287C13.9059 22.7009 14.196 22.75 14.5 22.75C16.439 22.75 18 21.189 18 19.25C18 21.189 19.561 22.75 21.5001 22.75C23.4391 22.75 25.0001 21.189 25.0001 19.25C25.0001 21.189 26.5611 22.75 28.5001 22.75C30.4391 22.75 32.0001 21.189 32.0001 19.25C32.0001 21.189 33.5611 22.75 35.5002 22.75C37.4392 22.75 39.0002 21.189 39.0002 19.25C39.0002 21.189 40.5612 22.75 42.5002 22.75C42.8042 22.75 43.0943 22.7009 43.3752 22.6287V17.5H39.0002H32.0001H25.0001H18H13.625Z" fill="#ECB200"/>
<path d="M42.0661 16.6413C42.0661 35.9649 14.3467 37.6363 14.3467 37.6363C22.5287 40.1294 34.2462 37.6218 43.3769 37.6218V16.6411L42.0661 16.6413Z" fill="#ECB200"/>
<path d="M43.3766 6.12402L46.0017 16.6242H11.001L13.626 6.12402H43.3766Z" fill="#FF5555"/>
<path d="M30.2511 6.12451C31.9242 16.2089 23.251 16.6213 23.251 16.6213L23.2527 16.6247H32.0012V6.12451H30.2511ZM35.9541 6.12451L36.1865 6.17578C36.1721 6.15673 36.1653 6.1437 36.1506 6.12451H35.9541Z" fill="#FF2929"/>
<path d="M31.126 7.87111L32.001 16.6213H39.0011L37.2511 6.99609L31.126 7.87111Z" fill="#E4EFF8"/>
<path d="M42.0543 6.12451C44.8468 15.655 38.127 16.6213 38.127 16.6213L38.1287 16.6247H46.0021L43.3771 6.12451H42.0543Z" fill="#FF2929"/>
<path d="M36.8136 6.99609C37.3435 16.2969 32.001 16.6213 32.001 16.6213C32.001 16.6213 32.047 16.8944 32.1155 17.2553L39.0011 16.6213L38.1261 6.99609H36.8136Z" fill="#C4DCF0"/>
<path d="M18.001 16.6213L19.751 6.12109H25.8761L25.0011 16.6213H18.001Z" fill="#E4EFF8"/>
<path d="M24.126 44.6255L20.626 52.5006H36.3763L32.8762 44.6255H24.126Z" fill="#38668C"/>
<path d="M32.0627 44.6255C31.3143 49.9387 24.9532 51.2472 21.0481 51.5504L20.626 52.5006H36.3763L32.8762 44.6255H32.0627Z" fill="#2C5170"/>
<path d="M54.752 37.6255V42.0034C54.752 43.4576 53.5812 44.6284 52.127 44.6284H4.87603C3.42175 44.6284 2.25098 43.4576 2.25098 42.0034V37.6255H54.752Z" fill="#38668C"/>
<path d="M24.1262 44.6255L23.3486 46.3755H33.654L32.8764 44.6255H24.1262Z" fill="#2C5170"/>
<path d="M49.8678 37.6251C44.8973 44.6208 32.0017 44.6252 32.0017 44.6252L31.9932 44.6285H52.1271C53.5814 44.6285 54.7522 43.4578 54.7522 42.0035V37.625L49.8678 37.6251Z" fill="#2C5170"/>
<path d="M25.0011 16.6245V18.3745C25.0011 20.3136 23.4401 21.8746 21.5011 21.8746C19.562 21.8746 18.001 20.3136 18.001 18.3745V16.6245H25.0011ZM25.8762 27.1219V37.6221H17.126V27.1219H25.8762Z" fill="#E4EFF8"/>
<path d="M24.3312 27.1216C24.964 35.493 19.2951 36.5965 17.126 36.7211V37.6218H25.8762V27.1216H24.3312Z" fill="#C4DCF0"/>
<path d="M29.376 26.2466H39.8762V34.1217H29.376V26.2466Z" fill="#E4EFF8"/>
<path d="M29.376 26.2466V34.1217H31.126C31.126 34.1217 30.4097 28.1932 39.8762 27.9436V26.2466H29.376Z" fill="#C4DCF0"/>
<path d="M18.0302 6.12451C18.0942 13.3812 13.4481 15.1514 11.2607 15.589L11.001 16.6247H19.7512V16.6213H18.0011L19.7512 6.12451H18.0302Z" fill="#FF2929"/>
<path d="M25.0302 6.12451C25.0942 13.3812 20.4481 15.1514 18.2607 15.589L18.001 16.6247H26.7512V16.6213H25.0011L26.7512 6.12451H25.0302Z" fill="#C4DCF0"/>
<path d="M20.626 1.74902H36.3763C37.3458 1.74902 38.1264 2.52954 38.1264 3.49905V6.99911C38.1264 7.96863 37.3458 8.74914 36.3763 8.74914H20.626C19.6565 8.74914 18.876 7.96863 18.876 6.99911V3.49905C18.876 2.52954 19.6565 1.74902 20.626 1.74902Z" fill="#FFCA28"/>
<path d="M35.5323 1.74951C32.2904 6.71277 23.0533 7.63779 19.083 7.81138C19.3755 8.36738 19.952 8.74963 20.6263 8.74963H36.3766C37.3461 8.74963 38.1266 7.96912 38.1266 6.9996V3.49954C38.1266 2.53003 37.3461 1.74951 36.3766 1.74951H35.5323Z" fill="#ECB200"/>
<path d="M18.0011 16.6245V18.3745C18.0011 20.3136 16.4401 21.8746 14.501 21.8746C12.562 21.8746 11.001 20.3136 11.001 18.3745V16.6245H18.0011Z" fill="#FF5151"/>
<path d="M23.2508 16.625C23.2508 18.564 21.6898 20.1251 19.7508 20.1251C19.2367 20.1251 18.7524 20.008 18.3135 19.8106C18.8606 21.0272 20.0758 21.8751 21.5008 21.8751C23.4398 21.8751 25.0009 20.3141 25.0009 18.375V16.625H23.2508Z" fill="#C4DCF0"/>
<path d="M16.2508 16.625C16.2508 18.564 14.6898 20.1251 12.7508 20.1251C12.2367 20.1251 11.7524 20.008 11.3135 19.8106C11.8606 21.0272 13.0758 21.8751 14.5008 21.8751C16.4398 21.8751 18.0009 20.3141 18.0009 18.375V16.625H16.2508Z" fill="#FF2929"/>
<path d="M32.0011 16.6245V18.3745C32.0011 20.3136 30.4401 21.8746 28.501 21.8746C26.562 21.8746 25.001 20.3136 25.001 18.3745V16.6245H32.0011Z" fill="#FF5151"/>
<path d="M30.2518 16.625C30.2518 18.564 28.6908 20.1251 26.7517 20.1251C26.2376 20.1251 25.7534 20.008 25.3145 19.8106C25.8616 21.0272 27.0768 21.8751 28.5018 21.8751C30.4408 21.8751 32.0018 20.3141 32.0018 18.375V16.625H30.2518Z" fill="#FF2929"/>
<path d="M46.0021 16.6245V18.3745C46.0021 20.3136 44.4411 21.8746 42.502 21.8746C40.563 21.8746 39.002 20.3136 39.002 18.3745V16.6245H46.0021Z" fill="#FF5151"/>
<path d="M44.2518 16.625C44.2518 18.564 42.6908 20.1251 40.7517 20.1251C40.2376 20.1251 39.7534 20.008 39.3145 19.8106C39.8616 21.0272 41.0768 21.8751 42.5018 21.8751C44.4408 21.8751 46.0018 20.3141 46.0018 18.375V16.625H44.2518Z" fill="#FF2929"/>
<path d="M39.0011 16.6245V18.3745C39.0011 20.3136 37.4401 21.8746 35.501 21.8746C33.562 21.8746 32.001 20.3136 32.001 18.3745V16.6245H39.0011Z" fill="#E4EFF8"/>
<path d="M37.2518 16.625C37.2518 18.564 35.6908 20.1251 33.7517 20.1251C33.2376 20.1251 32.7534 20.008 32.3145 19.8106C32.8616 21.0272 34.0768 21.8751 35.5018 21.8751C37.4408 21.8751 39.0018 20.3141 39.0018 18.375V16.625H37.2518Z" fill="#C4DCF0"/>
<path d="M18.001 51.6255H39.0014C39.4862 51.6255 39.8764 52.0157 39.8764 52.5005V53.3755C39.8764 53.8603 39.4862 54.2505 39.0014 54.2505H18.001C17.5162 54.2505 17.126 53.8603 17.126 53.3755V52.5005C17.126 52.0157 17.5162 51.6255 18.001 51.6255Z" fill="#38668C"/>
</svg>
