<svg width="57" height="56" viewBox="0 0 57 56" fill="none" xmlns="http://www.w3.org/2000/svg">
<g clip-path="url(#clip0_5533_9434)">
<path d="M46 4.375V49H11C10.5359 49 10.0908 48.8156 9.76256 48.4874C9.43437 48.1592 9.25 47.7141 9.25 47.25V22.75L4 0H41.625C42.7853 0 43.8981 0.460936 44.7186 1.28141C45.5391 2.10188 46 3.21468 46 4.375Z" fill="#F3F3F3"/>
<path d="M9.25 22.75H2.25C1.78587 22.75 1.34075 22.5656 1.01256 22.2374C0.684374 21.9092 0.5 21.4641 0.5 21V4.375C0.5 3.21468 0.960936 2.10188 1.78141 1.28141C2.60188 0.460936 3.71468 0 4.875 0C6.03532 0 7.14812 0.460936 7.96859 1.28141C8.78906 2.10188 9.25 3.21468 9.25 4.375V22.75Z" fill="#D9D9D9"/>
<path d="M23.25 5.25H16.25C16.0179 5.25 15.7954 5.15781 15.6313 4.99372C15.4672 4.82962 15.375 4.60706 15.375 4.375C15.375 4.14294 15.4672 3.92038 15.6313 3.75628C15.7954 3.59219 16.0179 3.5 16.25 3.5H23.25C23.4821 3.5 23.7046 3.59219 23.8687 3.75628C24.0328 3.92038 24.125 4.14294 24.125 4.375C24.125 4.60706 24.0328 4.82962 23.8687 4.99372C23.7046 5.15781 23.4821 5.25 23.25 5.25Z" fill="#FFAC00"/>
<path d="M19.75 12.25C19.5179 12.25 19.2954 12.1578 19.1313 11.9937C18.9672 11.8296 18.875 11.6071 18.875 11.375V4.375C18.875 4.14294 18.9672 3.92038 19.1313 3.75628C19.2954 3.59219 19.5179 3.5 19.75 3.5C19.9821 3.5 20.2046 3.59219 20.3687 3.75628C20.5328 3.92038 20.625 4.14294 20.625 4.375V11.375C20.625 11.6071 20.5328 11.8296 20.3687 11.9937C20.2046 12.1578 19.9821 12.25 19.75 12.25Z" fill="#FFAC00"/>
<path d="M30.2497 12.2499C30.071 12.2505 29.8963 12.1963 29.7492 12.0946C29.6022 11.9929 29.4898 11.8486 29.4272 11.6812L27.6247 6.86866L25.8222 11.6812C25.741 11.8993 25.5765 12.0762 25.3648 12.1731C25.1531 12.2699 24.9116 12.2786 24.6935 12.1974C24.4753 12.1162 24.2984 11.9516 24.2016 11.74C24.1048 11.5283 24.096 11.2868 24.1772 11.0687L26.8022 4.06866C26.8635 3.89974 26.9754 3.75379 27.1225 3.65066C27.2697 3.54752 27.445 3.49219 27.6247 3.49219C27.8044 3.49219 27.9798 3.54752 28.1269 3.65066C28.2741 3.75379 28.3859 3.89974 28.4472 4.06866L31.0722 11.0687C31.1218 11.2012 31.1384 11.3439 31.1207 11.4843C31.103 11.6247 31.0515 11.7588 30.9707 11.8749C30.8898 11.9911 30.7819 12.0859 30.6564 12.1512C30.5308 12.2165 30.3913 12.2504 30.2497 12.2499Z" fill="#FFAC00"/>
<path d="M29.375 10.5H25.875C25.6429 10.5 25.4204 10.4078 25.2563 10.2437C25.0922 10.0796 25 9.85706 25 9.625C25 9.39294 25.0922 9.17038 25.2563 9.00628C25.4204 8.84219 25.6429 8.75 25.875 8.75H29.375C29.6071 8.75 29.8296 8.84219 29.9937 9.00628C30.1578 9.17038 30.25 9.39294 30.25 9.625C30.25 9.85706 30.1578 10.0796 29.9937 10.2437C29.8296 10.4078 29.6071 10.5 29.375 10.5Z" fill="#FFAC00"/>
<path d="M39 12.25C38.8642 12.25 38.7302 12.2184 38.6087 12.1576C38.4872 12.0969 38.3815 12.0087 38.3 11.9L33.05 4.9C32.9811 4.80807 32.9309 4.70347 32.9024 4.59216C32.8739 4.48085 32.8675 4.36501 32.8838 4.25126C32.9 4.1375 32.9385 4.02807 32.9971 3.92919C33.0556 3.83032 33.1331 3.74394 33.225 3.675C33.3169 3.60606 33.4215 3.55589 33.5328 3.52738C33.6442 3.49886 33.76 3.49254 33.8737 3.50879C33.9875 3.52504 34.0969 3.56354 34.1958 3.62208C34.2947 3.68063 34.3811 3.75807 34.45 3.85L39.7 10.85C39.7975 10.98 39.8569 11.1346 39.8715 11.2964C39.8861 11.4583 39.8553 11.621 39.7826 11.7663C39.71 11.9117 39.5982 12.0339 39.46 12.1193C39.3218 12.2048 39.1625 12.25 39 12.25Z" fill="#FFAC00"/>
<path d="M33.75 12.25C33.5875 12.25 33.4282 12.2048 33.29 12.1193C33.1518 12.0339 33.04 11.9117 32.9674 11.7663C32.8947 11.621 32.8639 11.4583 32.8785 11.2964C32.8931 11.1346 32.9525 10.98 33.05 10.85L38.3 3.85C38.4392 3.66435 38.6465 3.54162 38.8763 3.5088C39.106 3.47598 39.3393 3.53576 39.525 3.675C39.7107 3.81424 39.8334 4.02153 39.8662 4.25126C39.899 4.48099 39.8392 4.71435 39.7 4.9L34.45 11.9C34.3685 12.0087 34.2628 12.0969 34.1413 12.1576C34.0198 12.2184 33.8858 12.25 33.75 12.25Z" fill="#FFAC00"/>
<path d="M12.75 16.625H19.75V18.375H12.75V16.625Z" fill="#D9D9D9"/>
<path d="M23.25 16.625H42.5V18.375H23.25V16.625Z" fill="#D9D9D9"/>
<path d="M12.75 21.875H19.75V23.625H12.75V21.875Z" fill="#D9D9D9"/>
<path d="M23.25 21.875H37.25V23.625H23.25V21.875Z" fill="#D9D9D9"/>
<path d="M12.75 27.125H19.75V28.875H12.75V27.125Z" fill="#D9D9D9"/>
<path d="M23.25 27.125H42.5V28.875H23.25V27.125Z" fill="#D9D9D9"/>
<path d="M12.75 32.375H19.75V34.125H12.75V32.375Z" fill="#D9D9D9"/>
<path d="M23.25 32.375H42.5V34.125H23.25V32.375Z" fill="#D9D9D9"/>
<path d="M12.75 37.625H19.75V39.375H12.75V37.625Z" fill="#D9D9D9"/>
<path d="M23.25 37.625H42.5V39.375H23.25V37.625Z" fill="#D9D9D9"/>
<path d="M12.75 42.875H21.5V44.625H12.75V42.875Z" fill="#D9D9D9"/>
<path d="M46.0004 24.5V49H28.5004V39.375H42.5004V37.625H28.5004V34.125H42.5004V32.375H28.5004C28.4384 31.208 28.4648 30.038 28.5792 28.875H42.5004V27.125H29.2092C29.6695 26.3277 30.3314 25.6654 31.1285 25.2047C31.9255 24.744 32.8298 24.5009 33.7504 24.5H46.0004Z" fill="#D9D9D9"/>
<path d="M42.5004 27.125V28.875H28.5791C28.6735 28.2563 28.8875 27.6619 29.2091 27.125H42.5004Z" fill="#C8C8C8"/>
<path d="M28.5 32.375H42.5V34.125H28.5V32.375Z" fill="#C8C8C8"/>
<path d="M28.5 37.625H42.5V39.375H28.5V37.625Z" fill="#C8C8C8"/>
<path d="M56.5 29.75V52.5C56.5 53.4283 56.1313 54.3185 55.4749 54.9749C54.8185 55.6313 53.9283 56 53 56H33.75C32.8217 56 31.9315 55.6313 31.2751 54.9749C30.6187 54.3185 30.25 53.4283 30.25 52.5V29.75C30.25 28.8217 30.6187 27.9315 31.2751 27.2751C31.9315 26.6187 32.8217 26.25 33.75 26.25H53C53.9283 26.25 54.8185 26.6187 55.4749 27.2751C56.1313 27.9315 56.5 28.8217 56.5 29.75Z" fill="#50D9D7"/>
<path d="M33.75 29.75H53V36.75H33.75V29.75Z" fill="white"/>
<path d="M36.375 38.5H34.625C34.1418 38.5 33.75 38.8918 33.75 39.375V41.125C33.75 41.6082 34.1418 42 34.625 42H36.375C36.8582 42 37.25 41.6082 37.25 41.125V39.375C37.25 38.8918 36.8582 38.5 36.375 38.5Z" fill="#00BEBD"/>
<path d="M41.625 38.5H39.875C39.3918 38.5 39 38.8918 39 39.375V41.125C39 41.6082 39.3918 42 39.875 42H41.625C42.1082 42 42.5 41.6082 42.5 41.125V39.375C42.5 38.8918 42.1082 38.5 41.625 38.5Z" fill="#00BEBD"/>
<path d="M46.875 38.5H45.125C44.6418 38.5 44.25 38.8918 44.25 39.375V41.125C44.25 41.6082 44.6418 42 45.125 42H46.875C47.3582 42 47.75 41.6082 47.75 41.125V39.375C47.75 38.8918 47.3582 38.5 46.875 38.5Z" fill="#00BEBD"/>
<path d="M52.125 38.5H50.375C49.8918 38.5 49.5 38.8918 49.5 39.375V41.125C49.5 41.6082 49.8918 42 50.375 42H52.125C52.6082 42 53 41.6082 53 41.125V39.375C53 38.8918 52.6082 38.5 52.125 38.5Z" fill="#00BEBD"/>
<path d="M36.375 43.75H34.625C34.1418 43.75 33.75 44.1418 33.75 44.625V46.375C33.75 46.8582 34.1418 47.25 34.625 47.25H36.375C36.8582 47.25 37.25 46.8582 37.25 46.375V44.625C37.25 44.1418 36.8582 43.75 36.375 43.75Z" fill="#00BEBD"/>
<path d="M41.625 43.75H39.875C39.3918 43.75 39 44.1418 39 44.625V46.375C39 46.8582 39.3918 47.25 39.875 47.25H41.625C42.1082 47.25 42.5 46.8582 42.5 46.375V44.625C42.5 44.1418 42.1082 43.75 41.625 43.75Z" fill="#00BEBD"/>
<path d="M46.875 43.75H45.125C44.6418 43.75 44.25 44.1418 44.25 44.625V46.375C44.25 46.8582 44.6418 47.25 45.125 47.25H46.875C47.3582 47.25 47.75 46.8582 47.75 46.375V44.625C47.75 44.1418 47.3582 43.75 46.875 43.75Z" fill="#00BEBD"/>
<path d="M36.375 49H34.625C34.1418 49 33.75 49.3918 33.75 49.875V51.625C33.75 52.1082 34.1418 52.5 34.625 52.5H36.375C36.8582 52.5 37.25 52.1082 37.25 51.625V49.875C37.25 49.3918 36.8582 49 36.375 49Z" fill="#00BEBD"/>
<path d="M41.625 49H39.875C39.3918 49 39 49.3918 39 49.875V51.625C39 52.1082 39.3918 52.5 39.875 52.5H41.625C42.1082 52.5 42.5 52.1082 42.5 51.625V49.875C42.5 49.3918 42.1082 49 41.625 49Z" fill="#00BEBD"/>
<path d="M46.875 49H45.125C44.6418 49 44.25 49.3918 44.25 49.875V51.625C44.25 52.1082 44.6418 52.5 45.125 52.5H46.875C47.3582 52.5 47.75 52.1082 47.75 51.625V49.875C47.75 49.3918 47.3582 49 46.875 49Z" fill="#00BEBD"/>
<path d="M52.125 43.75H50.375C49.8918 43.75 49.5 44.1418 49.5 44.625V51.625C49.5 52.1082 49.8918 52.5 50.375 52.5H52.125C52.6082 52.5 53 52.1082 53 51.625V44.625C53 44.1418 52.6082 43.75 52.125 43.75Z" fill="#00BEBD"/>
<path d="M45.9998 16.4849V26.2499H40.9248C40.5254 24.2872 40.8113 22.2469 41.735 20.4696C42.6586 18.6924 44.164 17.2858 45.9998 16.4849Z" fill="#D9D9D9"/>
<path d="M56.4998 29.75C55.5896 30.9587 54.3845 31.9137 52.9998 32.5237V29.75H42.4998C41.7223 28.7143 41.1843 27.5188 40.9248 26.25H52.9998C53.9281 26.25 54.8183 26.6187 55.4747 27.2751C56.1311 27.9315 56.4998 28.8217 56.4998 29.75Z" fill="#00BEBD"/>
<path d="M53 29.75V32.5237C51.1932 33.3117 49.1733 33.4664 47.2676 32.963C45.3619 32.4596 43.6819 31.3274 42.5 29.75H53Z" fill="#F3F3F3"/>
<path d="M49.5 31.5C53.366 31.5 56.5 28.366 56.5 24.5C56.5 20.634 53.366 17.5 49.5 17.5C45.634 17.5 42.5 20.634 42.5 24.5C42.5 28.366 45.634 31.5 49.5 31.5Z" fill="#FFAC00"/>
<path d="M46.875 23.625C46.5289 23.625 46.1905 23.5224 45.9028 23.3301C45.615 23.1378 45.3907 22.8645 45.2582 22.5447C45.1258 22.2249 45.0911 21.8731 45.1586 21.5336C45.2262 21.1941 45.3928 20.8823 45.6376 20.6376C45.8823 20.3928 46.1941 20.2262 46.5336 20.1586C46.8731 20.0911 47.2249 20.1258 47.5447 20.2582C47.8645 20.3907 48.1378 20.615 48.3301 20.9028C48.5224 21.1905 48.625 21.5289 48.625 21.875C48.625 22.3391 48.4406 22.7842 48.1124 23.1124C47.7843 23.4406 47.3391 23.625 46.875 23.625Z" fill="white"/>
<path d="M52.125 28.875C51.7789 28.875 51.4405 28.7724 51.1528 28.5801C50.865 28.3878 50.6407 28.1145 50.5082 27.7947C50.3758 27.4749 50.3411 27.1231 50.4086 26.7836C50.4762 26.4441 50.6428 26.1323 50.8876 25.8876C51.1323 25.6428 51.4441 25.4762 51.7836 25.4086C52.1231 25.3411 52.4749 25.3758 52.7947 25.5082C53.1145 25.6407 53.3878 25.865 53.5801 26.1528C53.7724 26.4405 53.875 26.7789 53.875 27.125C53.875 27.5891 53.6906 28.0343 53.3624 28.3624C53.0343 28.6906 52.5891 28.875 52.125 28.875Z" fill="white"/>
<path d="M46.8752 28.0002C46.7014 28.0012 46.5312 27.9504 46.3864 27.8543C46.2416 27.7583 46.1287 27.6212 46.062 27.4607C45.9954 27.3002 45.978 27.1235 46.0122 26.9531C46.0464 26.7827 46.1306 26.6263 46.254 26.5039L51.504 21.2539C51.6687 21.0891 51.8922 20.9966 52.1252 20.9966C52.3582 20.9966 52.5817 21.0891 52.7465 21.2539C52.9112 21.4187 53.0038 21.6421 53.0038 21.8752C53.0038 22.1082 52.9112 22.3316 52.7465 22.4964L47.4965 27.7464C47.4147 27.8275 47.3177 27.8917 47.2111 27.9352C47.1045 27.9788 46.9904 28.0008 46.8752 28.0002Z" fill="white"/>
</g>
<defs>
<clipPath id="clip0_5533_9434">
<rect width="56" height="56" fill="white" transform="translate(0.5)"/>
</clipPath>
</defs>
</svg>
