<svg width="20" height="15" viewBox="0 0 20 15" fill="none" xmlns="http://www.w3.org/2000/svg">
<path d="M17.404 3.73819C17.416 3.90219 17.416 4.06619 17.416 4.23019C17.4253 5.64712 17.1531 7.05179 16.6151 8.36266C16.0772 9.67354 15.2842 10.8645 14.2823 11.8665C13.2803 12.8684 12.0893 13.6614 10.7785 14.1993C9.46759 14.7373 8.06292 15.0095 6.64598 15.0002C4.58547 15.0053 2.56732 14.4153 0.833984 13.3012C1.13747 13.3347 1.44266 13.3504 1.74798 13.3482C3.45185 13.3527 5.10755 12.783 6.44798 11.7312C5.65816 11.7168 4.89256 11.4561 4.25809 10.9855C3.62362 10.5148 3.15196 9.85784 2.90898 9.10619C3.1455 9.14376 3.38451 9.16349 3.62398 9.16519C3.96142 9.16454 4.29743 9.12119 4.62398 9.03619C3.76547 8.86364 2.9933 8.39882 2.439 7.7209C1.8847 7.04298 1.58254 6.19387 1.58398 5.31819V5.27119C2.10854 5.56375 2.6948 5.72821 3.29498 5.75119C2.49172 5.21537 1.92318 4.39324 1.70539 3.45255C1.48759 2.51186 1.63695 1.52351 2.12298 0.689187C3.0732 1.85887 4.25855 2.81589 5.60223 3.49824C6.94591 4.18059 8.41795 4.57304 9.92298 4.65019C9.86398 4.36563 9.83416 4.0758 9.83398 3.78519C9.83475 3.02599 10.0636 2.28452 10.4908 1.65692C10.918 1.02932 11.5239 0.544527 12.2299 0.265393C12.9359 -0.013741 13.7095 -0.0743419 14.4504 0.0914464C15.1913 0.257235 15.8653 0.641765 16.385 1.19519C17.2318 1.03171 18.0439 0.722445 18.785 0.281186C18.5028 1.1559 17.9111 1.89761 17.121 2.36719C17.8728 2.28164 18.6076 2.08412 19.301 1.78119C18.7832 2.53553 18.1418 3.19715 17.404 3.73819Z" fill="#B5C4E4"/>
</svg>
