<svg width="23" height="15" viewBox="0 0 23 15" fill="none" xmlns="http://www.w3.org/2000/svg">
<path d="M21.7217 2.347C21.6014 1.89281 21.3639 1.47821 21.0329 1.14474C20.7019 0.811281 20.289 0.570662 19.8357 0.446999C18.1717 -1.40071e-06 11.5007 0 11.5007 0C11.5007 0 4.82974 -2.5034e-06 3.16574 0.448997C2.71245 0.572661 2.29962 0.81328 1.96862 1.14674C1.63761 1.48021 1.40005 1.89481 1.27974 2.349C0.685398 5.7687 0.685398 9.2653 1.27974 12.685C1.40124 13.1351 1.63974 13.5451 1.971 13.8732C2.30226 14.2013 2.71447 14.4358 3.16574 14.553C4.82974 15 11.5007 15 11.5007 15C11.5007 15 18.1717 15 19.8357 14.551C20.287 14.4338 20.6992 14.1993 21.0305 13.8712C21.3617 13.5431 21.6002 13.1331 21.7217 12.683C22.3161 9.2633 22.3161 5.7667 21.7217 2.347ZM9.32174 10.687V4.343L14.8977 7.515L9.32174 10.687Z" fill="#B5C4E4"/>
</svg>
