<svg width="57" height="56" viewBox="0 0 57 56" fill="none" xmlns="http://www.w3.org/2000/svg">
<g clip-path="url(#clip0_5533_9245)">
<path d="M27.9684 0.21757L5.50879 15.5327L5.79884 15.9581L28.2584 0.642928L27.9684 0.21757Z" fill="url(#paint0_linear_5533_9245)"/>
<path d="M23.5359 0.494411L5.53711 12.7632L5.82709 13.1886L23.8259 0.91982L23.5359 0.494411Z" fill="url(#paint1_linear_5533_9245)"/>
<path d="M18.0685 1.39762L5.5459 9.9624L5.83654 10.3874L18.3591 1.82258L18.0685 1.39762Z" fill="url(#paint2_linear_5533_9245)"/>
<path d="M10.7583 3.59083L5.56445 7.1792L5.8571 7.60278L11.051 4.01441L10.7583 3.59083Z" fill="url(#paint3_linear_5533_9245)"/>
<path d="M39.5275 19.9994L39.5234 19.9953L35.8828 22.4796L35.8869 22.4837L17.1565 35.2525L17.5447 35.8204L14.9991 37.5979L15.1993 37.8839L9.78125 41.6635L10.0755 42.0884L16.0533 37.9125L18.0268 36.5314L37.0514 23.5583L36.6591 22.9863L40.0097 20.7022L39.8176 20.4243L52.0389 12.0929L51.7488 11.668L39.5275 19.9994Z" fill="url(#paint4_linear_5533_9245)"/>
<path d="M40.5617 22.0626V22.0585L36.6637 24.7145L36.6677 24.7185L18.5421 37.0788L18.9262 37.6426L16.2009 39.5426L16.3929 39.8164L11.0811 43.5347L11.3794 43.9555L16.6871 40.2413L16.6912 40.2454L19.4084 38.3495L19.4125 38.3536L37.5994 25.9525L37.2071 25.3846L41.0439 22.7695L40.8518 22.4876L52.023 14.8712L51.7329 14.4463L40.5617 22.0626Z" fill="url(#paint5_linear_5533_9245)"/>
<path d="M41.5588 24.1548L41.5547 24.1507L38.3308 26.349V26.3531L19.8293 38.9666L20.2134 39.5305L17.7168 41.2752L17.9089 41.549L12.5439 45.3082L12.8382 45.729L18.2031 41.9699L18.2072 41.978L20.6956 40.2415L20.6997 40.2456L39.2093 27.6238L38.8212 27.0559L42.0369 24.8617L41.8489 24.5798L52.0068 17.654L51.7166 17.229L41.5588 24.1548Z" fill="url(#paint6_linear_5533_9245)"/>
<path d="M43.0786 25.8874V25.8833L39.8793 28.0612L39.8834 28.0694L21.1735 40.7687L21.5698 41.3489L18.3786 43.5758L18.5748 43.8577L14.1455 46.955L14.4438 47.3758L19.5023 43.8414V43.8373L22.9019 41.4633L40.9171 29.2339L40.529 28.6577L43.5608 26.5902L43.3687 26.3124L51.9902 20.4367L51.7002 20.0117L43.0786 25.8874Z" fill="url(#paint7_linear_5533_9245)"/>
<path d="M44.9577 27.3703L44.9537 27.3622L41.456 29.7484V29.7525L25.2263 40.8215L25.6104 41.3813L21.7737 44.0658L21.9698 44.3478L15.9756 48.5359L16.2698 48.9568L22.7952 44.3968L26.0926 42.0923L26.0966 42.0964L42.4244 30.962L42.0362 30.3899L45.4358 28.0731L45.2478 27.7953L51.9734 23.2067L51.6833 22.7817L44.9577 27.3703Z" fill="url(#paint8_linear_5533_9245)"/>
<path d="M49.1171 27.5054L49.0232 27.3624L44.9167 30.1613L29.2059 40.8748L29.5982 41.4469L25.3651 44.4052L25.5612 44.6871L18.1328 49.8804L18.427 50.3013L26.3784 44.7443L30.4685 41.8841L45.787 31.4402L45.3988 30.8723L49.5053 28.0733L49.2642 27.7178L49.4113 27.9303L51.961 26.1284L51.6627 25.7075L49.1171 27.5054Z" fill="url(#paint9_linear_5533_9245)"/>
<path d="M49.1867 30.0262V30.0181L46.874 31.5953H46.8699L37.6314 37.8959L38.0237 38.468L34.1133 41.2015L34.3095 41.4834L20.2168 51.3349L20.511 51.7557L35.1594 41.5161L38.5875 39.1217L38.5834 39.1176L47.7402 32.8742L47.3562 32.3062L49.6688 30.729L49.4768 30.4512L51.8998 28.8004L51.6097 28.3755L49.1867 30.0262Z" fill="url(#paint10_linear_5533_9245)"/>
<path d="M49.6489 32.5801L49.5999 32.5106L47.422 33.9938H47.4179L40.0835 38.991L40.4717 39.5631L37.0599 41.9493L37.256 42.2353L22.4033 52.6138L22.6975 53.0347L38.3102 42.125V42.1209L41.3094 40.0289L48.2883 35.2687L47.9042 34.7048L50.082 33.2175L49.841 32.8661L51.504 31.7302L51.3119 31.4482L49.6489 32.5801Z" fill="url(#paint11_linear_5533_9245)"/>
<path d="M7.57933 18.7856L9.66731 17.3269L17.5615 11.9456L17.1733 11.3777L20.6424 9.01593L20.4544 8.73808L32.1404 0.766255L31.8503 0.341309L20.1643 8.30905L20.1602 8.30497L16.6912 10.6708V10.6667L8.33117 16.3667L8.72344 16.9387L6.73761 18.3239L6.93785 18.6058L5.4873 19.6232L5.7815 20.0441L7.57933 18.7856Z" fill="url(#paint12_linear_5533_9245)"/>
<path d="M8.89089 20.6613V20.6572L10.9502 19.2189L20.7077 12.5628L20.3236 11.9989L23.0163 10.1602L22.8365 9.89871L35.5563 1.14645L35.2621 0.725586L22.5464 9.47376L22.5341 9.45333L19.8414 11.288L9.45885 18.3649L9.85109 18.9411L8.0655 20.1873L8.26165 20.4692L5.4668 22.4224L5.76508 22.8432L8.89089 20.6613Z" fill="url(#paint13_linear_5533_9245)"/>
<path d="M9.35234 23.1209L12.09 21.2087L22.7136 13.9642L22.3173 13.3839L25.1734 11.4349L24.9936 11.1693L38.7104 1.73061L38.4162 1.30566L24.7035 10.7444L24.6913 10.728L21.7126 12.7588L21.7207 12.771L10.5863 20.3629L10.9786 20.939L8.57192 22.6224L8.76804 22.9044L5.4502 25.2212L5.74847 25.642L9.35234 23.1209Z" fill="url(#paint14_linear_5533_9245)"/>
<path d="M10.4475 25.1477L13.4303 23.0638L24.7199 15.3657L24.3318 14.7937L27.3432 12.7384L27.143 12.4442L41.8322 2.53969L41.5462 2.11475L26.6567 12.15L26.6649 12.1623L23.8374 14.095L11.7101 22.3651L12.1064 22.9412L9.33609 24.878L9.53221 25.1599L5.4707 27.9956L5.7649 28.4206L10.4475 25.1477Z" fill="url(#paint15_linear_5533_9245)"/>
<path d="M11.7839 26.9823L13.7084 25.638V25.6421L26.7224 16.7632L26.3343 16.1952L29.7011 13.8989L29.5132 13.621L44.2841 3.54897L43.9941 3.12402L29.2231 13.1961L29.219 13.192L25.8317 15.5006V15.5047L12.8381 24.3632L13.2222 24.9311L10.7379 26.6677L10.9381 26.9537L5.70801 30.5984L6.00629 31.0193L11.788 26.9864L11.7839 26.9823Z" fill="url(#paint16_linear_5533_9245)"/>
<path d="M13.0784 28.87L15.2726 27.3377L28.7279 18.1646L28.3397 17.5966L32.0662 15.0551L31.8741 14.7773L47.0496 4.42739L46.7595 4.00244L31.584 14.3523L31.5799 14.3442L27.6328 17.0369V17.0409L13.961 26.3612L14.3532 26.9373L12.0079 28.5758L12.204 28.8577L6.16895 33.0745L6.46314 33.4954L13.0825 28.8741L13.0784 28.87Z" fill="url(#paint17_linear_5533_9245)"/>
<path d="M13.4548 31.4031L16.6011 29.2048L32.4835 18.4381L32.0912 17.862L35.6052 15.4676L35.4132 15.1897L49.5058 5.57942L49.2157 5.15039L35.123 14.7607L35.1189 14.7566L31.4987 17.2287L31.5028 17.2368L15.0076 28.4162L15.3998 28.9964L12.4579 31.0517L12.6581 31.3336L6.82324 35.4074L7.11745 35.8323L13.4548 31.4072V31.4031Z" fill="url(#paint18_linear_5533_9245)"/>
<path d="M13.8428 33.8959L16.6295 31.951L33.8725 20.1914L33.4884 19.6275L37.0188 17.225L36.8267 16.943L51.7366 6.777L51.4465 6.35205L36.5366 16.5181L36.5325 16.514L33.0063 18.9207L33.0022 18.9166L15.3751 30.9377L15.7633 31.5097L12.7805 33.5936L12.9766 33.8755L7.64844 37.5979L7.94262 38.0228L13.8469 33.8959H13.8428Z" fill="url(#paint19_linear_5533_9245)"/>
<path d="M14.3904 36.2779L16.7521 34.6312H16.7562L35.1596 22.0831L34.7755 21.5151L38.1424 19.2188L37.9504 18.9409L52.0554 9.32241L51.7652 8.89746L37.6603 18.516L37.6562 18.5078L34.2893 20.8041L15.8818 33.3564L16.27 33.9203L13.4874 35.8652L13.6958 36.1594L8.625 39.6693L8.91921 40.0902L14.4026 36.2942L14.3904 36.2779Z" fill="url(#paint20_linear_5533_9245)"/>
<path d="M50.0024 36.1151L24.541 53.8574L24.8354 54.2798L50.2967 36.5375L50.0024 36.1151Z" fill="url(#paint21_linear_5533_9245)"/>
<path d="M48.0191 40.8873L26.5723 55.7954L26.8657 56.2176L48.3125 41.3094L48.0191 40.8873Z" fill="url(#paint22_linear_5533_9245)"/>
<path d="M43.5868 46.776L34.165 53.3252L34.4585 53.7474L43.8802 47.1981L43.5868 46.776Z" fill="url(#paint23_linear_5533_9245)"/>
</g>
<defs>
<linearGradient id="paint0_linear_5533_9245" x1="37.5267" y1="-10.1493" x2="-7.70961" y2="29.8161" gradientUnits="userSpaceOnUse">
<stop stop-color="#62B34F"/>
<stop offset="0.46" stop-color="#51BAB4"/>
<stop offset="1" stop-color="#0094D3"/>
</linearGradient>
<linearGradient id="paint1_linear_5533_9245" x1="35.9386" y1="-11.9571" x2="-9.29772" y2="28.0083" gradientUnits="userSpaceOnUse">
<stop stop-color="#62B34F"/>
<stop offset="0.46" stop-color="#51BAB4"/>
<stop offset="1" stop-color="#0094D3"/>
</linearGradient>
<linearGradient id="paint2_linear_5533_9245" x1="34.2721" y1="-13.8323" x2="-10.9602" y2="26.1331" gradientUnits="userSpaceOnUse">
<stop stop-color="#62B34F"/>
<stop offset="0.46" stop-color="#51BAB4"/>
<stop offset="1" stop-color="#0094D3"/>
</linearGradient>
<linearGradient id="paint3_linear_5533_9245" x1="32.528" y1="-15.809" x2="-12.7042" y2="24.1563" gradientUnits="userSpaceOnUse">
<stop stop-color="#62B34F"/>
<stop offset="0.46" stop-color="#51BAB4"/>
<stop offset="1" stop-color="#0094D3"/>
</linearGradient>
<linearGradient id="paint4_linear_5533_9245" x1="52.995" y1="7.36539" x2="7.76275" y2="47.3308" gradientUnits="userSpaceOnUse">
<stop stop-color="#62B34F"/>
<stop offset="0.46" stop-color="#51BAB4"/>
<stop offset="1" stop-color="#0094D3"/>
</linearGradient>
<linearGradient id="paint5_linear_5533_9245" x1="54.4338" y1="8.98736" x2="9.1974" y2="48.9568" gradientUnits="userSpaceOnUse">
<stop stop-color="#62B34F"/>
<stop offset="0.46" stop-color="#51BAB4"/>
<stop offset="1" stop-color="#0094D3"/>
</linearGradient>
<linearGradient id="paint6_linear_5533_9245" x1="55.8803" y1="10.626" x2="10.644" y2="50.5914" gradientUnits="userSpaceOnUse">
<stop stop-color="#62B34F"/>
<stop offset="0.46" stop-color="#51BAB4"/>
<stop offset="1" stop-color="#0094D3"/>
</linearGradient>
<linearGradient id="paint7_linear_5533_9245" x1="57.3225" y1="12.2646" x2="12.0902" y2="52.23" gradientUnits="userSpaceOnUse">
<stop stop-color="#62B34F"/>
<stop offset="0.46" stop-color="#51BAB4"/>
<stop offset="1" stop-color="#0094D3"/>
</linearGradient>
<linearGradient id="paint8_linear_5533_9245" x1="58.8012" y1="13.9355" x2="13.5689" y2="53.9009" gradientUnits="userSpaceOnUse">
<stop stop-color="#62B34F"/>
<stop offset="0.46" stop-color="#51BAB4"/>
<stop offset="1" stop-color="#0094D3"/>
</linearGradient>
<linearGradient id="paint9_linear_5533_9245" x1="60.3292" y1="15.6641" x2="15.0969" y2="55.6295" gradientUnits="userSpaceOnUse">
<stop stop-color="#62B34F"/>
<stop offset="0.46" stop-color="#51BAB4"/>
<stop offset="1" stop-color="#0094D3"/>
</linearGradient>
<linearGradient id="paint10_linear_5533_9245" x1="61.8942" y1="17.4372" x2="16.6619" y2="57.4026" gradientUnits="userSpaceOnUse">
<stop stop-color="#62B34F"/>
<stop offset="0.46" stop-color="#51BAB4"/>
<stop offset="1" stop-color="#0094D3"/>
</linearGradient>
<linearGradient id="paint11_linear_5533_9245" x1="63.4065" y1="19.1452" x2="18.1743" y2="59.1147" gradientUnits="userSpaceOnUse">
<stop stop-color="#62B34F"/>
<stop offset="0.46" stop-color="#51BAB4"/>
<stop offset="1" stop-color="#0094D3"/>
</linearGradient>
<linearGradient id="paint12_linear_5533_9245" x1="39.2297" y1="-8.21482" x2="-6.00259" y2="31.7506" gradientUnits="userSpaceOnUse">
<stop stop-color="#62B34F"/>
<stop offset="0.46" stop-color="#51BAB4"/>
<stop offset="1" stop-color="#0094D3"/>
</linearGradient>
<linearGradient id="paint13_linear_5533_9245" x1="40.815" y1="-6.42087" x2="-4.41729" y2="33.5445" gradientUnits="userSpaceOnUse">
<stop stop-color="#62B34F"/>
<stop offset="0.46" stop-color="#51BAB4"/>
<stop offset="1" stop-color="#0094D3"/>
</linearGradient>
<linearGradient id="paint14_linear_5533_9245" x1="42.396" y1="-4.63133" x2="-2.83627" y2="35.334" gradientUnits="userSpaceOnUse">
<stop stop-color="#62B34F"/>
<stop offset="0.46" stop-color="#51BAB4"/>
<stop offset="1" stop-color="#0094D3"/>
</linearGradient>
<linearGradient id="paint15_linear_5533_9245" x1="44.0223" y1="-2.78848" x2="-1.20994" y2="37.1769" gradientUnits="userSpaceOnUse">
<stop stop-color="#62B34F"/>
<stop offset="0.46" stop-color="#51BAB4"/>
<stop offset="1" stop-color="#0094D3"/>
</linearGradient>
<linearGradient id="paint16_linear_5533_9245" x1="45.5386" y1="-1.07641" x2="0.30629" y2="38.889" gradientUnits="userSpaceOnUse">
<stop stop-color="#62B34F"/>
<stop offset="0.46" stop-color="#51BAB4"/>
<stop offset="1" stop-color="#0094D3"/>
</linearGradient>
<linearGradient id="paint17_linear_5533_9245" x1="47.0782" y1="0.668249" x2="1.84593" y2="40.6336" gradientUnits="userSpaceOnUse">
<stop stop-color="#62B34F"/>
<stop offset="0.46" stop-color="#51BAB4"/>
<stop offset="1" stop-color="#0094D3"/>
</linearGradient>
<linearGradient id="paint18_linear_5533_9245" x1="48.6233" y1="2.41684" x2="3.391" y2="42.3822" gradientUnits="userSpaceOnUse">
<stop stop-color="#62B34F"/>
<stop offset="0.46" stop-color="#51BAB4"/>
<stop offset="1" stop-color="#0094D3"/>
</linearGradient>
<linearGradient id="paint19_linear_5533_9245" x1="50.1349" y1="4.12517" x2="4.90262" y2="44.0905" gradientUnits="userSpaceOnUse">
<stop stop-color="#62B34F"/>
<stop offset="0.46" stop-color="#51BAB4"/>
<stop offset="1" stop-color="#0094D3"/>
</linearGradient>
<linearGradient id="paint20_linear_5533_9245" x1="51.565" y1="5.74305" x2="6.32867" y2="45.7085" gradientUnits="userSpaceOnUse">
<stop stop-color="#62B34F"/>
<stop offset="0.46" stop-color="#51BAB4"/>
<stop offset="1" stop-color="#0094D3"/>
</linearGradient>
<linearGradient id="paint21_linear_5533_9245" x1="64.6076" y1="20.5484" x2="19.4824" y2="60.5118" gradientUnits="userSpaceOnUse">
<stop stop-color="#62B34F"/>
<stop offset="0.46" stop-color="#51BAB4"/>
<stop offset="1" stop-color="#0094D3"/>
</linearGradient>
<linearGradient id="paint22_linear_5533_9245" x1="66.2724" y1="23.1804" x2="21.0206" y2="63.0003" gradientUnits="userSpaceOnUse">
<stop stop-color="#62B34F"/>
<stop offset="0.46" stop-color="#51BAB4"/>
<stop offset="1" stop-color="#0094D3"/>
</linearGradient>
<linearGradient id="paint23_linear_5533_9245" x1="67.8052" y1="24.9273" x2="22.5534" y2="64.7472" gradientUnits="userSpaceOnUse">
<stop stop-color="#62B34F"/>
<stop offset="0.46" stop-color="#51BAB4"/>
<stop offset="1" stop-color="#0094D3"/>
</linearGradient>
<clipPath id="clip0_5533_9245">
<rect width="56" height="56" fill="white" transform="translate(0.5)"/>
</clipPath>
</defs>
</svg>
