<svg width="676" height="265" viewBox="0 0 676 265" fill="none" xmlns="http://www.w3.org/2000/svg">
<g clip-path="url(#clip0_501_31)">
<path d="M358.879 42.7779C357.21 41.5612 355.207 40.8825 353.139 40.833C351.111 40.8725 349.148 41.5537 347.533 42.7779C346.623 43.4439 345.895 44.3273 345.417 45.3468C344.939 46.3664 344.726 47.4894 344.797 48.6126V154.246C344.797 158.928 344.625 164.033 344.281 169.562C343.955 174.922 343.037 180.229 341.545 185.388C340.095 190.351 337.755 195.011 334.637 199.141C331.267 203.47 326.628 206.645 321.364 208.227C319.145 208.817 317.122 209.982 315.499 211.602C314.525 212.864 314.018 214.423 314.064 216.016C314.064 217.948 314.705 219.827 315.887 221.359C316.524 222.186 317.357 222.844 318.311 223.272C319.265 223.7 320.31 223.887 321.354 223.814C327.473 223.896 333.468 222.086 338.512 218.633C343.662 215.05 347.972 210.397 351.145 204.995C354.684 199.001 357.318 192.52 358.961 185.76C360.793 178.507 361.712 171.055 361.697 163.575V48.603C361.768 47.4728 361.546 46.3433 361.053 45.3232C360.559 44.3031 359.811 43.4266 358.879 42.7779Z" fill="white"/>
<path d="M296.768 64.4481C292.556 58.8136 287.185 54.1398 281.016 50.7386C273.897 46.939 265.904 45.0606 257.831 45.2901C250.27 45.2751 242.769 46.6369 235.699 49.3086C228.462 52.0666 221.698 55.9259 215.647 60.749C209.146 65.9314 203.326 71.9101 198.327 78.5438C192.844 85.7372 188.243 93.5579 184.622 101.84V59.8005C184.689 58.6626 184.46 57.5269 183.957 56.5031C183.454 55.4793 182.695 54.6022 181.752 53.9563C180.083 52.7393 178.08 52.0606 176.012 52.0114C173.987 52.0529 172.028 52.7339 170.416 53.9563C169.505 54.6237 168.777 55.5088 168.299 56.53C167.82 57.5512 167.608 58.6758 167.68 59.8005V154.013H85.6456V83.9399C86.2976 71.0652 82.6803 58.3344 75.3519 47.7116C71.9977 43.2472 67.5969 39.6699 62.5345 37.2925C57.4721 34.915 51.9023 33.8098 46.3122 34.0736C45.1717 34.0068 44.0332 34.235 43.0073 34.7362C41.9814 35.2373 41.103 35.9944 40.4574 36.9338C39.2362 38.5973 38.5552 40.5934 38.5058 42.654C38.5475 44.6721 39.2309 46.6249 40.4574 48.2313C41.1251 49.1391 42.0114 49.8648 43.0346 50.3413C44.0579 50.8179 45.1851 51.0299 46.3122 50.9579C50.1336 51.1378 53.8227 52.4078 56.9407 54.6168C60.0587 56.8258 62.4745 59.8809 63.9006 63.4185C67.4308 72.6175 69.0688 82.4299 68.7174 92.2724V154.041H7.55767C6.4812 153.984 5.40699 154.191 4.42949 154.644C3.45198 155.097 2.60108 155.782 1.95158 156.639C0.689956 158.178 0.000762939 160.104 0.000762939 162.09C0.000762939 164.077 0.689956 166.003 1.95158 167.541C2.60136 168.398 3.45231 169.084 4.42974 169.537C5.40718 169.989 6.48125 170.196 7.55767 170.139H250.283C260.257 170.536 270.153 168.25 278.935 163.523C286.102 159.394 292.206 153.661 296.768 146.777C301.169 140.093 304.301 132.66 306.009 124.849C307.678 117.566 308.552 110.125 308.616 102.655C308.593 95.9671 307.643 89.3149 305.794 82.8864C303.926 76.2478 300.868 70.0009 296.768 64.4481ZM289.349 122.852C288.174 128.727 285.876 134.322 282.58 139.331C279.422 143.948 275.113 147.667 270.077 150.123C264.032 152.892 257.425 154.224 250.776 154.013H184.622V133.039C187.334 125.349 190.462 117.811 193.993 110.458C198.014 101.924 202.988 93.8699 208.821 86.4473C214.635 78.9967 221.682 72.5887 229.657 67.4989C237.912 62.3218 247.506 59.6625 257.257 59.8481C262.637 59.7121 267.95 61.0581 272.612 63.7378C276.88 66.2503 280.541 69.6679 283.336 73.7483C286.154 77.9017 288.225 82.5116 289.459 87.372C290.727 92.1144 291.383 96.9985 291.41 101.906C291.465 108.941 290.774 115.962 289.349 122.852Z" fill="white"/>
<path d="M414.596 1.52588e-05C412.638 0.00380321 410.762 0.781353 409.379 2.16211C407.996 3.54288 407.22 5.41403 407.22 7.36483V257.626C407.22 259.576 407.997 261.446 409.381 262.825C410.764 264.204 412.641 264.979 414.598 264.979C416.555 264.979 418.431 264.204 419.815 262.825C421.199 261.446 421.976 259.576 421.976 257.626V7.36483C421.976 5.4132 421.199 3.54134 419.815 2.16044C418.431 0.779543 416.554 0.00254163 414.596 1.52588e-05Z" fill="white"/>
<path d="M626.961 116.717C631.141 134.338 628.793 152.872 620.349 168.905C611.904 184.938 597.932 197.391 581.005 203.972C564.078 210.553 545.335 210.819 528.227 204.72C511.118 198.621 496.797 186.569 487.898 170.782C479 154.995 476.123 136.535 479.799 118.802C483.475 101.069 493.455 85.2567 507.901 74.2751C522.348 63.2936 540.29 57.8826 558.423 59.0383C576.555 60.1941 593.659 67.8387 606.584 80.5649L617.586 70.7022C602.064 55.1182 581.338 45.761 559.347 44.4094C537.355 43.0577 515.632 49.8059 498.306 63.3711C480.981 76.9363 469.261 96.3728 465.374 117.986C461.488 139.599 465.705 161.882 477.226 180.598C488.746 199.315 506.766 213.161 527.86 219.504C548.954 225.847 571.651 224.245 591.637 215.002C611.623 205.759 627.505 189.52 636.263 169.372C645.021 149.224 646.044 126.571 639.14 105.72L626.961 116.717Z" fill="white"/>
<path d="M674.608 45.3997C674.139 44.8406 673.56 44.3829 672.907 44.055C672.254 43.7271 671.54 43.5358 670.81 43.4929C669.363 43.3805 667.93 43.8412 666.821 44.7752L625.483 79.7927L614.214 89.3264L550.375 143.43L518.538 113.356C518.203 113.051 517.817 112.806 517.399 112.632C516.474 112.075 515.402 111.81 514.323 111.871C513.244 111.932 512.209 112.317 511.353 112.975C510.37 113.721 509.666 114.774 509.353 115.965C509.04 117.156 509.136 118.418 509.626 119.548C509.804 119.971 510.039 120.367 510.324 120.726L514.013 125.578L539.364 158.708L542.713 163.122L543.353 163.861C543.977 164.524 544.7 165.087 545.496 165.53C546.572 166.166 547.787 166.533 549.036 166.597C550.344 166.767 551.675 166.641 552.927 166.228C554.18 165.815 555.324 165.127 556.273 164.214L556.618 163.871L622.03 102.221L633.204 91.6717L639.551 85.6893L671.719 55.3291L674.283 52.9456C675.313 51.9795 675.929 50.6547 676.002 49.2473C676.076 47.8398 675.603 46.4582 674.68 45.3902L674.608 45.3997Z" fill="white"/>
<path d="M32.9429 193.183C34.3422 193.183 35.5084 193.677 36.4413 194.664C37.426 195.652 37.9184 196.847 37.9184 198.251C37.9184 199.654 37.426 200.849 36.4413 201.837C35.5084 202.772 34.3422 203.24 32.9429 203.24C31.5435 203.24 30.3514 202.746 29.3667 201.759C28.382 200.771 27.8896 199.602 27.8896 198.251C27.8896 196.847 28.382 195.652 29.3667 194.664C30.3514 193.677 31.5435 193.183 32.9429 193.183ZM44.7597 193.183C46.1591 193.183 47.3511 193.677 48.3359 194.664C49.3206 195.652 49.813 196.847 49.813 198.251C49.813 199.602 49.3206 200.771 48.3359 201.759C47.3511 202.746 46.1591 203.24 44.7597 203.24C43.3603 203.24 42.1683 202.746 41.1836 201.759C40.1988 200.771 39.7065 199.602 39.7065 198.251C39.7065 196.847 40.1988 195.652 41.1836 194.664C42.1683 193.677 43.3603 193.183 44.7597 193.183ZM49.813 208.23V232.554C49.813 237.024 48.284 240.584 45.2262 243.235C42.3756 245.678 38.4626 246.899 33.487 246.899C27.9932 246.899 23.6915 245.132 20.5818 241.598C17.5757 238.427 16.0727 234.139 16.0727 228.734C16.0727 222.861 17.9645 218.027 21.7479 214.233C25.1168 210.803 29.289 209.087 34.2645 209.087C36.9077 209.087 39.4214 209.685 41.8055 210.881L45.0707 208.23H49.813ZM40.3284 218.287C38.5144 217.559 36.8041 217.196 35.1974 217.196C32.295 217.196 29.9368 218.261 28.1228 220.392C26.3607 222.523 25.4796 225.304 25.4796 228.734C25.4796 231.956 26.1793 234.477 27.5786 236.296C29.0298 238.063 31.0252 238.947 33.5648 238.947C35.8452 238.947 37.5556 238.323 38.6958 237.076C39.7842 235.829 40.3284 234.295 40.3284 232.476V218.287Z" fill="white"/>
<path d="M77.6484 210.335V238.245H81.6133V246.198H77.5707C77.1561 252.435 74.6942 257.216 70.1852 260.543C66.4535 263.297 61.8667 264.675 56.4247 264.675C55.4918 264.675 54.4812 264.649 53.3928 264.597L49.5834 259.841V256.489C51.2419 256.748 52.8486 256.878 54.4034 256.878C63.577 256.878 68.1639 252.409 68.1639 243.469V210.335H77.6484Z" fill="white"/>
<path d="M95.4891 238.245V246.198H81.1068V238.245H95.4891Z" fill="white"/>
<path d="M102.388 193.183C103.787 193.183 104.979 193.677 105.964 194.664C106.948 195.652 107.441 196.847 107.441 198.251C107.441 199.602 106.948 200.771 105.964 201.759C104.979 202.746 103.787 203.24 102.388 203.24C100.988 203.24 99.7962 202.746 98.8114 201.759C97.8267 200.771 97.3343 199.602 97.3343 198.251C97.3343 196.847 97.8267 195.652 98.8114 194.664C99.7962 193.677 100.988 193.183 102.388 193.183ZM114.204 193.183C115.604 193.183 116.796 193.677 117.781 194.664C118.765 195.652 119.258 196.847 119.258 198.251C119.258 199.602 118.765 200.771 117.781 201.759C116.796 202.746 115.604 203.24 114.204 203.24C112.857 203.24 111.691 202.746 110.706 201.759C109.721 200.771 109.229 199.602 109.229 198.251C109.229 196.847 109.721 195.652 110.706 194.664C111.691 193.677 112.857 193.183 114.204 193.183ZM118.247 210.335V237.622C118.247 239.649 117.573 241.52 116.226 243.235C114.515 245.21 112.39 246.198 109.851 246.198H94.8465V238.245H106.819C107.389 238.245 107.881 238.038 108.296 237.622C108.659 237.258 108.84 236.816 108.84 236.296V210.335H118.247Z" fill="white"/>
<path d="M146.538 246.198C140.837 246.198 136.354 244.249 133.089 240.35C130.342 237.024 128.968 232.918 128.968 228.032C128.968 222.211 130.601 217.663 133.866 214.389C137.287 211.062 141.666 209.399 147.005 209.399C150.892 209.399 154.26 210.361 157.111 212.284C160.843 214.987 162.708 218.833 162.708 223.822V238.245H165.196V246.198H162.631C162.268 251.811 160.298 256.203 156.722 259.373C154.235 261.608 151.254 263.141 147.782 263.973C145.346 264.545 142.962 264.831 140.63 264.831C139.852 264.831 138.738 264.779 137.287 264.675H137.053L133.089 259.763V256.333C135.214 256.697 137.209 256.878 139.075 256.878C147.575 256.878 152.213 253.318 152.991 246.198H146.538ZM153.224 223.822C153.224 221.743 152.55 220.106 151.203 218.911C150.011 217.871 148.611 217.351 147.005 217.351C144.361 217.351 142.262 218.287 140.707 220.158C139.153 222.029 138.375 224.602 138.375 227.876C138.375 231.047 139.23 233.568 140.941 235.439C142.651 237.31 144.983 238.245 147.937 238.245H153.224V223.822Z" fill="white"/>
<path d="M179.002 238.245V246.198H164.619V238.245H179.002Z" fill="white"/>
<path d="M207.746 193.183C209.093 193.183 210.259 193.677 211.244 194.664C212.229 195.652 212.721 196.847 212.721 198.251C212.721 199.602 212.229 200.771 211.244 201.759C210.259 202.746 209.093 203.24 207.746 203.24C206.346 203.24 205.154 202.746 204.17 201.759C203.185 200.771 202.692 199.602 202.692 198.251C202.692 196.847 203.185 195.652 204.17 194.664C205.154 193.677 206.346 193.183 207.746 193.183ZM193.908 238.245C191.575 235.127 190.409 231.359 190.409 226.941C190.409 222.939 191.42 219.482 193.441 216.572C196.706 211.79 201.423 209.399 207.59 209.399C212.255 209.399 216.168 210.855 219.329 213.765C223.009 217.144 224.849 221.535 224.849 226.941C224.849 231.203 223.683 234.971 221.351 238.245H226.715V246.198H215.054C211.685 246.198 209.249 245.86 207.746 245.184H207.357C205.906 245.86 203.47 246.198 200.049 246.198H178.437V238.245H193.908ZM207.59 238.167C209.922 237.908 211.788 236.842 213.188 234.971C214.639 233.048 215.364 230.605 215.364 227.643C215.364 224.524 214.665 222.029 213.265 220.158C211.866 218.287 209.974 217.351 207.59 217.351C205.258 217.351 203.366 218.287 201.915 220.158C200.516 222.029 199.816 224.524 199.816 227.643C199.816 230.605 200.516 233.048 201.915 234.971C203.366 236.842 205.258 237.908 207.59 238.167Z" fill="white"/>
<path d="M240.573 238.245V246.198H226.191V238.245H240.573Z" fill="white"/>
<path d="M263.409 190.376V237.622C263.409 239.805 262.709 241.676 261.31 243.235C259.703 245.21 257.604 246.198 255.013 246.198H240.008V238.245H251.981C252.551 238.245 253.043 238.038 253.458 237.622C253.82 237.258 254.002 236.816 254.002 236.296V190.376H263.409Z" fill="white"/>
<path d="M283.636 190.376V244.249L278.816 248.147H274.152V190.376H283.636Z" fill="white"/>
</g>
<defs>
<clipPath id="clip0_501_31">
<rect width="676" height="265" fill="white"/>
</clipPath>
</defs>
</svg>
